Grotesca Reforma-Preta.ufo
<glyph name="exclam" format="2">
	<advance width="322"/>
	<unicode hex="0021"/>
	<outline>
		<contour>
			<point x="46" y="800" type="line"/>
			<point x="96" y="250" type="line"/>
			<point x="226" y="250" type="line"/>
			<point x="276" y="800" type="line"/>
		</contour>
		<component base="period" xOffset="21"/>
	</outline>
</glyph>
<glyph name="numbersign" format="2">
	<advance width="868"/>
	<unicode hex="0023"/>
	<outline>
		<contour>
			<point x="47" y="210" type="line"/>
			<point x="174" y="210" type="line"/>
			<point x="127" y="0" type="line"/>
			<point x="260" y="0" type="line"/>
			<point x="307" y="210" type="line"/>
			<point x="475" y="210" type="line"/>
			<point x="428" y="0" type="line"/>
			<point x="561" y="0" type="line"/>
			<point x="608" y="210" type="line"/>
			<point x="781" y="210" type="line"/>
			<point x="781" y="320" type="line"/>
			<point x="633" y="320" type="line"/>
			<point x="669" y="480" type="line"/>
			<point x="821" y="480" type="line"/>
			<point x="821" y="590" type="line"/>
			<point x="694" y="590" type="line"/>
			<point x="741" y="800" type="line"/>
			<point x="608" y="800" type="line"/>
			<point x="561" y="590" type="line"/>
			<point x="393" y="590" type="line"/>
			<point x="440" y="800" type="line"/>
			<point x="307" y="800" type="line"/>
			<point x="260" y="590" type="line"/>
			<point x="87" y="590" type="line"/>
			<point x="87" y="480" type="line"/>
			<point x="235" y="480" type="line"/>
			<point x="199" y="320" type="line"/>
			<point x="47" y="320" type="line"/>
		</contour>
		<contour>
			<point x="326" y="315" type="line"/>
			<point x="364" y="485" type="line"/>
			<point x="542" y="485" type="line"/>
			<point x="504" y="315" type="line"/>
		</contour>
	</outline>
</glyph>
<glyph name="ampersand" format="2">
	<advance width="911"/>
	<unicode hex="0026"/>
	<outline>
		<contour>
			<point x="815" y="0" type="curve"/>
			<point x="815" y="148" type="line"/>
			<point x="802" y="145"/>
			<point x="786" y="143"/>
			<point x="771" y="143" type="curve" smooth="yes"/>
			<point x="746" y="143"/>
			<point x="716" y="158"/>
			<point x="690" y="184" type="curve" smooth="yes"/>
			<point x="373" y="497" type="line" smooth="yes"/>
			<point x="338" y="532"/>
			<point x="310" y="579"/>
			<point x="310" y="631" type="curve" smooth="yes"/>
			<point x="310" y="662"/>
			<point x="326" y="681"/>
			<point x="353" y="681" type="curve" smooth="yes"/>
			<point x="379" y="681"/>
			<point x="394" y="665"/>
			<point x="394" y="637" type="curve" smooth="yes"/>
			<point x="394" y="617"/>
			<point x="386" y="596"/>
			<point x="371" y="576" type="curve" smooth="yes"/>
			<point x="354" y="552"/>
			<point x="327" y="529"/>
			<point x="292" y="509" type="curve" smooth="yes"/>
			<point x="206" y="459" type="line" smooth="yes"/>
			<point x="157" y="431"/>
			<point x="119" y="395"/>
			<point x="94" y="354" type="curve" smooth="yes"/>
			<point x="70" y="316"/>
			<point x="57" y="273"/>
			<point x="57" y="229" type="curve" smooth="yes"/>
			<point x="57" y="75"/>
			<point x="165" y="-16"/>
			<point x="349" y="-16" type="curve" smooth="yes"/>
			<point x="607" y="-16"/>
			<point x="759" y="143"/>
			<point x="759" y="412" type="curve"/>
			<point x="759" y="418" type="line"/>
			<point x="594" y="418" type="line"/>
			<point x="594" y="412" type="line"/>
			<point x="590" y="240"/>
			<point x="499" y="139"/>
			<point x="349" y="139" type="curve" smooth="yes"/>
			<point x="282" y="139"/>
			<point x="242" y="172"/>
			<point x="242" y="229" type="curve" smooth="yes"/>
			<point x="242" y="249"/>
			<point x="247" y="267"/>
			<point x="256" y="283" type="curve" smooth="yes"/>
			<point x="265" y="300"/>
			<point x="279" y="315"/>
			<point x="296" y="325" type="curve" smooth="yes"/>
			<point x="382" y="375" type="line" smooth="yes"/>
			<point x="442" y="410"/>
			<point x="487" y="452"/>
			<point x="518" y="498" type="curve" smooth="yes"/>
			<point x="548" y="542"/>
			<point x="565" y="590"/>
			<point x="569" y="637" type="curve" smooth="yes"/>
			<point x="580" y="750"/>
			<point x="491" y="816"/>
			<point x="359" y="816" type="curve" smooth="yes"/>
			<point x="218" y="816"/>
			<point x="135" y="747"/>
			<point x="135" y="631" type="curve" smooth="yes"/>
			<point x="135" y="553"/>
			<point x="172" y="474"/>
			<point x="229" y="417" type="curve" smooth="yes"/>
			<point x="591" y="60" type="line" smooth="yes"/>
			<point x="632" y="19"/>
			<point x="696" y="-6"/>
			<point x="761" y="-6" type="curve" smooth="yes"/>
			<point x="782" y="-6"/>
			<point x="802" y="-4"/>
		</contour>
	</outline>
</glyph>
<glyph name="quotesingle" format="2">
	<advance width="281"/>
	<unicode hex="0027"/>
	<outline>
		<contour>
			<point x="48" y="710" type="line"/>
			<point x="98" y="530" type="line"/>
			<point x="183" y="530" type="line"/>
			<point x="233" y="710" type="line"/>
			<point x="233" y="820" type="line"/>
			<point x="48" y="820" type="line"/>
		</contour>
	</outline>
</glyph>
<glyph name="parenleft" format="2">
	<advance width="361"/>
	<unicode hex="0028"/>
	<outline>
		<contour>
			<point x="66" y="315" type="line" smooth="yes"/>
			<point x="66" y="140"/>
			<point x="112" y="-48"/>
			<point x="191" y="-190" type="curve"/>
			<point x="351" y="-170" type="line"/>
			<point x="288" y="-31"/>
			<point x="251" y="149"/>
			<point x="251" y="315" type="curve" smooth="yes"/>
			<point x="251" y="325" type="line" smooth="yes"/>
			<point x="251" y="491"/>
			<point x="288" y="671"/>
			<point x="351" y="810" type="curve"/>
			<point x="191" y="830" type="line"/>
			<point x="112" y="688"/>
			<point x="66" y="500"/>
			<point x="66" y="325" type="curve" smooth="yes"/>
		</contour>
	</outline>
</glyph>
<glyph name="parenright" format="2">
	<advance width="417"/>
	<unicode hex="0029"/>
	<outline>
		<contour>
			<point x="351" y="315" type="curve" smooth="yes"/>
			<point x="351" y="325" type="line" smooth="yes"/>
			<point x="351" y="500"/>
			<point x="305" y="688"/>
			<point x="226" y="830" type="curve"/>
			<point x="66" y="810" type="line"/>
			<point x="129" y="671"/>
			<point x="166" y="491"/>
			<point x="166" y="325" type="curve" smooth="yes"/>
			<point x="166" y="315" type="line" smooth="yes"/>
			<point x="166" y="149"/>
			<point x="129" y="-31"/>
			<point x="66" y="-170" type="curve"/>
			<point x="226" y="-190" type="line"/>
			<point x="305" y="-48"/>
			<point x="351" y="140"/>
		</contour>
	</outline>
</glyph>
<glyph name="asterisk" format="2">
	<advance width="403"/>
	<unicode hex="002A"/>
	<outline>
		<contour>
			<point x="36" y="585" type="line"/>
			<point x="88" y="495" type="line"/>
			<point x="91" y="494" type="line"/>
			<point x="164" y="556" type="line"/>
			<point x="147" y="462" type="line"/>
			<point x="149" y="460" type="line"/>
			<point x="253" y="460" type="line"/>
			<point x="255" y="462" type="line"/>
			<point x="238" y="557" type="line"/>
			<point x="311" y="494" type="line"/>
			<point x="314" y="495" type="line"/>
			<point x="366" y="585" type="line"/>
			<point x="365" y="588" type="line"/>
			<point x="276" y="620" type="line"/>
			<point x="365" y="652" type="line"/>
			<point x="366" y="655" type="line"/>
			<point x="314" y="745" type="line"/>
			<point x="311" y="746" type="line"/>
			<point x="238" y="683" type="line"/>
			<point x="255" y="778" type="line"/>
			<point x="253" y="780" type="line"/>
			<point x="149" y="780" type="line"/>
			<point x="147" y="778" type="line"/>
			<point x="164" y="684" type="line"/>
			<point x="91" y="746" type="line"/>
			<point x="88" y="745" type="line"/>
			<point x="36" y="655" type="line"/>
			<point x="37" y="652" type="line"/>
			<point x="127" y="620" type="line"/>
			<point x="37" y="588" type="line"/>
		</contour>
	</outline>
</glyph>
<glyph name="hyphen" format="2">
	<advance width="368"/>
	<unicode hex="002D"/>
	<outline>
		<contour>
			<point x="34" y="238" type="line"/>
			<point x="334" y="238" type="line"/>
			<point x="334" y="368" type="line"/>
			<point x="34" y="368" type="line"/>
		</contour>
	</outline>
</glyph>
<glyph name="slash" format="2">
	<advance width="383"/>
	<unicode hex="002F"/>
	<outline>
		<contour>
			<point x="185" y="820" type="line"/>
			<point x="25" y="-26" type="line"/>
			<point x="198" y="-26" type="line"/>
			<point x="358" y="820" type="line"/>
		</contour>
	</outline>
</glyph>
<glyph name="zero" format="2">
	<advance width="762"/>
	<unicode hex="0030"/>
	<outline>
		<contour>
			<point x="66" y="384" type="line" smooth="yes"/>
			<point x="66" y="133"/>
			<point x="183" y="-16"/>
			<point x="382" y="-16" type="curve" smooth="yes"/>
			<point x="579" y="-16"/>
			<point x="696" y="132"/>
			<point x="696" y="382" type="curve" smooth="yes"/>
			<point x="696" y="397" type="line" smooth="yes"/>
			<point x="696" y="648"/>
			<point x="579" y="796"/>
			<point x="380" y="796" type="curve" smooth="yes"/>
			<point x="183" y="796"/>
			<point x="66" y="649"/>
			<point x="66" y="399" type="curve" smooth="yes"/>
		</contour>
		<contour>
			<point x="251" y="376" type="curve" smooth="yes"/>
			<point x="251" y="399" type="line" smooth="yes"/>
			<point x="251" y="551"/>
			<point x="299" y="641"/>
			<point x="379" y="641" type="curve" smooth="yes"/>
			<point x="462" y="641"/>
			<point x="511" y="553"/>
			<point x="511" y="405" type="curve" smooth="yes"/>
			<point x="511" y="382" type="line" smooth="yes"/>
			<point x="511" y="229"/>
			<point x="463" y="139"/>
			<point x="383" y="139" type="curve" smooth="yes"/>
			<point x="300" y="139"/>
			<point x="251" y="227"/>
		</contour>
	</outline>
</glyph>
<glyph name="one" format="2">
	<advance width="511"/>
	<unicode hex="0031"/>
	<outline>
		<contour>
			<point x="52" y="568" type="curve"/>
			<point x="133" y="449" type="line"/>
			<point x="173" y="471"/>
			<point x="207" y="500"/>
			<point x="224" y="525" type="curve"/>
			<point x="230" y="525" type="line"/>
			<point x="230" y="0" type="line"/>
			<point x="415" y="0" type="line"/>
			<point x="415" y="780" type="line"/>
			<point x="270" y="780" type="line"/>
			<point x="223" y="706"/>
			<point x="142" y="627"/>
		</contour>
	</outline>
</glyph>
<glyph name="two" format="2">
	<advance width="690"/>
	<unicode hex="0032"/>
	<outline>
		<contour>
			<point x="79" y="543" type="line"/>
			<point x="242" y="539" type="line"/>
			<point x="243" y="555" type="line" smooth="yes"/>
			<point x="246" y="609"/>
			<point x="279" y="641"/>
			<point x="331" y="641" type="curve" smooth="yes"/>
			<point x="385" y="641"/>
			<point x="417" y="607"/>
			<point x="417" y="549" type="curve" smooth="yes"/>
			<point x="417" y="412"/>
			<point x="287" y="257"/>
			<point x="66" y="130" type="curve"/>
			<point x="66" y="0" type="line"/>
			<point x="632" y="0" type="line"/>
			<point x="632" y="155" type="line"/>
			<point x="333" y="155" type="line"/>
			<point x="333" y="159" type="line"/>
			<point x="502" y="241"/>
			<point x="602" y="387"/>
			<point x="602" y="554" type="curve" smooth="yes"/>
			<point x="602" y="706"/>
			<point x="504" y="796"/>
			<point x="337" y="796" type="curve" smooth="yes"/>
			<point x="184" y="796"/>
			<point x="89" y="708"/>
			<point x="80" y="559" type="curve" smooth="yes"/>
		</contour>
	</outline>
</glyph>
<glyph name="three" format="2">
	<advance width="734"/>
	<unicode hex="0033"/>
	<outline>
		<contour>
			<point x="67" y="225" type="line" smooth="yes"/>
			<point x="77" y="74"/>
			<point x="184" y="-16"/>
			<point x="354" y="-16" type="curve" smooth="yes"/>
			<point x="539" y="-16"/>
			<point x="648" y="72"/>
			<point x="648" y="220" type="curve" smooth="yes"/>
			<point x="648" y="230" type="line" smooth="yes"/>
			<point x="648" y="332"/>
			<point x="587" y="405"/>
			<point x="484" y="426" type="curve"/>
			<point x="484" y="430" type="line"/>
			<point x="553" y="451"/>
			<point x="593" y="507"/>
			<point x="593" y="580" type="curve" smooth="yes"/>
			<point x="593" y="590" type="line" smooth="yes"/>
			<point x="593" y="719"/>
			<point x="500" y="796"/>
			<point x="342" y="796" type="curve" smooth="yes"/>
			<point x="193" y="796"/>
			<point x="98" y="717"/>
			<point x="87" y="584" type="curve" smooth="yes"/>
			<point x="86" y="572" type="line"/>
			<point x="269" y="568" type="line"/>
			<point x="270" y="580" type="line" smooth="yes"/>
			<point x="274" y="618"/>
			<point x="300" y="641"/>
			<point x="341" y="641" type="curve" smooth="yes"/>
			<point x="389" y="641"/>
			<point x="418" y="615"/>
			<point x="418" y="570" type="curve" smooth="yes"/>
			<point x="418" y="561" type="line" smooth="yes"/>
			<point x="418" y="516"/>
			<point x="387" y="490"/>
			<point x="335" y="490" type="curve" smooth="yes"/>
			<point x="287" y="490" type="line"/>
			<point x="287" y="340" type="line"/>
			<point x="331" y="340" type="line" smooth="yes"/>
			<point x="414" y="340"/>
			<point x="463" y="304"/>
			<point x="463" y="244" type="curve" smooth="yes"/>
			<point x="463" y="235" type="line" smooth="yes"/>
			<point x="463" y="175"/>
			<point x="423" y="139"/>
			<point x="355" y="139" type="curve" smooth="yes"/>
			<point x="294" y="139"/>
			<point x="256" y="174"/>
			<point x="252" y="232" type="curve" smooth="yes"/>
			<point x="251" y="247" type="line"/>
			<point x="66" y="240" type="line"/>
		</contour>
	</outline>
</glyph>
<glyph name="four" format="2">
	<advance width="742"/>
	<unicode hex="0034"/>
	<outline>
		<contour>
			<point x="677" y="125" type="line"/>
			<point x="677" y="280" type="line"/>
			<point x="232" y="280" type="line"/>
			<point x="232" y="284" type="line"/>
			<point x="296" y="359"/>
			<point x="349" y="441"/>
			<point x="373" y="505" type="curve"/>
			<point x="377" y="505" type="line"/>
			<point x="377" y="0" type="line"/>
			<point x="562" y="0" type="line"/>
			<point x="562" y="780" type="line"/>
			<point x="389" y="780" type="line"/>
			<point x="298" y="587"/>
			<point x="172" y="405"/>
			<point x="52" y="290" type="curve"/>
			<point x="52" y="125" type="line"/>
		</contour>
	</outline>
</glyph>
<glyph name="five" format="2">
	<advance width="705"/>
	<unicode hex="0035"/>
	<outline>
		<contour>
			<point x="68" y="215" type="line" smooth="yes"/>
			<point x="87" y="70"/>
			<point x="191" y="-16"/>
			<point x="349" y="-16" type="curve" smooth="yes"/>
			<point x="531" y="-16"/>
			<point x="639" y="87"/>
			<point x="639" y="260" type="curve" smooth="yes"/>
			<point x="639" y="270" type="line" smooth="yes"/>
			<point x="639" y="435"/>
			<point x="539" y="532"/>
			<point x="387" y="532" type="curve" smooth="yes"/>
			<point x="345" y="532"/>
			<point x="307" y="523"/>
			<point x="286" y="508" type="curve"/>
			<point x="282" y="508" type="line"/>
			<point x="287" y="625" type="line"/>
			<point x="573" y="625" type="line"/>
			<point x="573" y="780" type="line"/>
			<point x="111" y="780" type="line"/>
			<point x="88" y="343" type="line"/>
			<point x="250" y="336" type="line"/>
			<point x="267" y="368"/>
			<point x="303" y="387"/>
			<point x="347" y="387" type="curve" smooth="yes"/>
			<point x="414" y="387"/>
			<point x="454" y="343"/>
			<point x="454" y="268" type="curve" smooth="yes"/>
			<point x="454" y="258" type="line" smooth="yes"/>
			<point x="454" y="183"/>
			<point x="415" y="139"/>
			<point x="350" y="139" type="curve" smooth="yes"/>
			<point x="290" y="139"/>
			<point x="250" y="170"/>
			<point x="243" y="222" type="curve" smooth="yes"/>
			<point x="241" y="237" type="line"/>
			<point x="66" y="230" type="line"/>
		</contour>
	</outline>
</glyph>
<glyph name="six" format="2">
	<advance width="740"/>
	<unicode hex="0036"/>
	<outline>
		<contour>
			<point x="66" y="374" type="line" smooth="yes"/>
			<point x="66" y="129"/>
			<point x="185" y="-16"/>
			<point x="386" y="-16" type="curve" smooth="yes"/>
			<point x="555" y="-16"/>
			<point x="674" y="97"/>
			<point x="674" y="256" type="curve" smooth="yes"/>
			<point x="674" y="271" type="line" smooth="yes"/>
			<point x="674" y="410"/>
			<point x="569" y="508"/>
			<point x="421" y="508" type="curve" smooth="yes"/>
			<point x="348" y="508"/>
			<point x="286" y="479"/>
			<point x="255" y="431" type="curve"/>
			<point x="251" y="431" type="line"/>
			<point x="251" y="439" type="line" smooth="yes"/>
			<point x="251" y="566"/>
			<point x="305" y="641"/>
			<point x="396" y="641" type="curve" smooth="yes"/>
			<point x="442" y="641"/>
			<point x="471" y="619"/>
			<point x="475" y="583" type="curve" smooth="yes"/>
			<point x="477" y="566" type="line"/>
			<point x="650" y="573" type="line"/>
			<point x="648" y="590" type="line" smooth="yes"/>
			<point x="633" y="719"/>
			<point x="539" y="796"/>
			<point x="396" y="796" type="curve" smooth="yes"/>
			<point x="189" y="796"/>
			<point x="66" y="645"/>
			<point x="66" y="389" type="curve" smooth="yes"/>
		</contour>
		<contour>
			<point x="265" y="257" type="curve" smooth="yes"/>
			<point x="265" y="265" type="line" smooth="yes"/>
			<point x="265" y="328"/>
			<point x="312" y="373"/>
			<point x="379" y="373" type="curve" smooth="yes"/>
			<point x="443" y="373"/>
			<point x="489" y="325"/>
			<point x="489" y="257" type="curve" smooth="yes"/>
			<point x="489" y="249" type="line" smooth="yes"/>
			<point x="489" y="185"/>
			<point x="442" y="139"/>
			<point x="375" y="139" type="curve" smooth="yes"/>
			<point x="311" y="139"/>
			<point x="265" y="188"/>
		</contour>
	</outline>
</glyph>
<glyph name="seven" format="2">
	<advance width="653"/>
	<unicode hex="0037"/>
	<outline>
		<contour>
			<point x="52" y="625" type="line"/>
			<point x="426" y="625" type="line"/>
			<point x="426" y="615" type="line"/>
			<point x="287" y="453"/>
			<point x="205" y="225"/>
			<point x="205" y="0" type="curve"/>
			<point x="390" y="0" type="line"/>
			<point x="390" y="225"/>
			<point x="472" y="463"/>
			<point x="612" y="640" type="curve"/>
			<point x="612" y="780" type="line"/>
			<point x="52" y="780" type="line"/>
		</contour>
	</outline>
</glyph>
<glyph name="eight" format="2">
	<advance width="728"/>
	<unicode hex="0038"/>
	<outline>
		<contour>
			<point x="66" y="220" type="line" smooth="yes"/>
			<point x="66" y="72"/>
			<point x="178" y="-16"/>
			<point x="368" y="-16" type="curve" smooth="yes"/>
			<point x="553" y="-16"/>
			<point x="662" y="72"/>
			<point x="662" y="220" type="curve" smooth="yes"/>
			<point x="662" y="230" type="line" smooth="yes"/>
			<point x="662" y="321"/>
			<point x="613" y="393"/>
			<point x="529" y="424" type="curve"/>
			<point x="529" y="428" type="line"/>
			<point x="587" y="455"/>
			<point x="622" y="515"/>
			<point x="622" y="590" type="curve" smooth="yes"/>
			<point x="622" y="599" type="line" smooth="yes"/>
			<point x="622" y="723"/>
			<point x="525" y="796"/>
			<point x="361" y="796" type="curve" smooth="yes"/>
			<point x="201" y="796"/>
			<point x="106" y="723"/>
			<point x="106" y="599" type="curve" smooth="yes"/>
			<point x="106" y="590" type="line" smooth="yes"/>
			<point x="106" y="515"/>
			<point x="141" y="455"/>
			<point x="199" y="428" type="curve"/>
			<point x="199" y="424" type="line"/>
			<point x="115" y="393"/>
			<point x="66" y="321"/>
			<point x="66" y="230" type="curve" smooth="yes"/>
		</contour>
		<contour>
			<point x="251" y="240" type="curve" smooth="yes"/>
			<point x="251" y="245" type="line" smooth="yes"/>
			<point x="251" y="317"/>
			<point x="293" y="360"/>
			<point x="363" y="360" type="curve" smooth="yes"/>
			<point x="435" y="360"/>
			<point x="477" y="319"/>
			<point x="477" y="250" type="curve" smooth="yes"/>
			<point x="477" y="245" type="line" smooth="yes"/>
			<point x="477" y="172"/>
			<point x="435" y="129"/>
			<point x="365" y="129" type="curve" smooth="yes"/>
			<point x="293" y="129"/>
			<point x="251" y="170"/>
		</contour>
		<contour>
			<point x="271" y="574" type="curve" smooth="yes"/>
			<point x="271" y="578" type="line" smooth="yes"/>
			<point x="271" y="630"/>
			<point x="306" y="661"/>
			<point x="365" y="661" type="curve" smooth="yes"/>
			<point x="423" y="661"/>
			<point x="457" y="631"/>
			<point x="457" y="581" type="curve" smooth="yes"/>
			<point x="457" y="577" type="line" smooth="yes"/>
			<point x="457" y="522"/>
			<point x="423" y="490"/>
			<point x="366" y="490" type="curve" smooth="yes"/>
			<point x="306" y="490"/>
			<point x="271" y="521"/>
		</contour>
	</outline>
</glyph>
<glyph name="nine" format="2">
	<advance width="730"/>
	<unicode hex="0039"/>
	<outline>
		<contour>
			<point x="664" y="406" type="line" smooth="yes"/>
			<point x="664" y="651"/>
			<point x="549" y="796"/>
			<point x="354" y="796" type="curve" smooth="yes"/>
			<point x="185" y="796"/>
			<point x="66" y="683"/>
			<point x="66" y="524" type="curve" smooth="yes"/>
			<point x="66" y="519" type="line" smooth="yes"/>
			<point x="66" y="380"/>
			<point x="167" y="282"/>
			<point x="309" y="282" type="curve" smooth="yes"/>
			<point x="382" y="282"/>
			<point x="444" y="311"/>
			<point x="475" y="359" type="curve"/>
			<point x="479" y="359" type="line"/>
			<point x="479" y="351" type="line" smooth="yes"/>
			<point x="479" y="218"/>
			<point x="429" y="139"/>
			<point x="344" y="139" type="curve" smooth="yes"/>
			<point x="295" y="139"/>
			<point x="262" y="164"/>
			<point x="255" y="207" type="curve" smooth="yes"/>
			<point x="253" y="219" type="line"/>
			<point x="80" y="212" type="line"/>
			<point x="82" y="200" type="line" smooth="yes"/>
			<point x="105" y="64"/>
			<point x="206" y="-16"/>
			<point x="354" y="-16" type="curve" smooth="yes"/>
			<point x="549" y="-16"/>
			<point x="664" y="135"/>
			<point x="664" y="391" type="curve" smooth="yes"/>
		</contour>
		<contour>
			<point x="465" y="533" type="curve" smooth="yes"/>
			<point x="465" y="525" type="line" smooth="yes"/>
			<point x="465" y="462"/>
			<point x="420" y="417"/>
			<point x="356" y="417" type="curve" smooth="yes"/>
			<point x="294" y="417"/>
			<point x="251" y="461"/>
			<point x="251" y="523" type="curve" smooth="yes"/>
			<point x="251" y="531" type="line" smooth="yes"/>
			<point x="251" y="595"/>
			<point x="296" y="641"/>
			<point x="360" y="641" type="curve" smooth="yes"/>
			<point x="422" y="641"/>
			<point x="465" y="596"/>
		</contour>
	</outline>
</glyph>
<glyph name="question" format="2">
	<advance width="665"/>
	<unicode hex="003F"/>
	<outline>
		<contour>
			<point x="57" y="560" type="line"/>
			<point x="230" y="556" type="line"/>
			<point x="231" y="570" type="line" smooth="yes"/>
			<point x="235" y="627"/>
			<point x="273" y="661"/>
			<point x="333" y="661" type="curve" smooth="yes"/>
			<point x="389" y="661"/>
			<point x="422" y="634"/>
			<point x="422" y="588" type="curve" smooth="yes"/>
			<point x="422" y="577"/>
			<point x="418" y="562"/>
			<point x="411" y="548" type="curve" smooth="yes"/>
			<point x="404" y="534"/>
			<point x="392" y="518"/>
			<point x="379" y="506" type="curve" smooth="yes"/>
			<point x="319" y="447" type="line" smooth="yes"/>
			<point x="295" y="424"/>
			<point x="273" y="392"/>
			<point x="259" y="360" type="curve" smooth="yes"/>
			<point x="246" y="330"/>
			<point x="240" y="296"/>
			<point x="240" y="267" type="curve" smooth="yes"/>
			<point x="240" y="251" type="line"/>
			<point x="425" y="251" type="line"/>
			<point x="425" y="270" type="line" smooth="yes"/>
			<point x="425" y="284"/>
			<point x="430" y="302"/>
			<point x="439" y="320" type="curve" smooth="yes"/>
			<point x="450" y="342"/>
			<point x="469" y="365"/>
			<point x="488" y="384" type="curve" smooth="yes"/>
			<point x="548" y="443" type="line" smooth="yes"/>
			<point x="566" y="461"/>
			<point x="582" y="484"/>
			<point x="591" y="507" type="curve" smooth="yes"/>
			<point x="601" y="532"/>
			<point x="607" y="561"/>
			<point x="607" y="585" type="curve" smooth="yes"/>
			<point x="607" y="730"/>
			<point x="505" y="816"/>
			<point x="333" y="816" type="curve" smooth="yes"/>
			<point x="171" y="816"/>
			<point x="69" y="726"/>
			<point x="58" y="574" type="curve" smooth="yes"/>
		</contour>
		<component base="period" xOffset="192"/>
	</outline>
</glyph>
<glyph name="at" format="2">
	<advance width="1216"/>
	<unicode hex="0040"/>
	<outline>
		<contour>
			<point x="705" y="429" type="line"/>
			<point x="683" y="515"/>
			<point x="627" y="566"/>
			<point x="555" y="566" type="curve" smooth="yes"/>
			<point x="436" y="566"/>
			<point x="366" y="482"/>
			<point x="366" y="341" type="curve" smooth="yes"/>
			<point x="366" y="330" type="line" smooth="yes"/>
			<point x="366" y="188"/>
			<point x="435" y="104"/>
			<point x="553" y="104" type="curve" smooth="yes"/>
			<point x="639" y="104"/>
			<point x="703" y="155"/>
			<point x="725" y="241" type="curve"/>
			<point x="725" y="330" type="line"/>
			<point x="690" y="330" type="line"/>
			<point x="690" y="320" type="line" smooth="yes"/>
			<point x="690" y="266"/>
			<point x="659" y="234"/>
			<point x="606" y="234" type="curve" smooth="yes"/>
			<point x="556" y="234"/>
			<point x="526" y="271"/>
			<point x="526" y="334" type="curve" smooth="yes"/>
			<point x="526" y="341" type="line" smooth="yes"/>
			<point x="526" y="401"/>
			<point x="557" y="436"/>
			<point x="610" y="436" type="curve" smooth="yes"/>
			<point x="660" y="436"/>
			<point x="690" y="404"/>
			<point x="690" y="350" type="curve"/>
			<point x="705" y="350" type="line"/>
		</contour>
		<contour>
			<point x="66" y="346" type="line" smooth="yes"/>
			<point x="66" y="28"/>
			<point x="276" y="-160"/>
			<point x="632" y="-160" type="curve" smooth="yes"/>
			<point x="715" y="-160"/>
			<point x="814" y="-149"/>
			<point x="898" y="-131" type="curve"/>
			<point x="898" y="8" type="line"/>
			<point x="893" y="11" type="line"/>
			<point x="820" y="-12"/>
			<point x="724" y="-25"/>
			<point x="633" y="-25" type="curve" smooth="yes"/>
			<point x="380" y="-25"/>
			<point x="231" y="111"/>
			<point x="231" y="341" type="curve" smooth="yes"/>
			<point x="231" y="356" type="line" smooth="yes"/>
			<point x="231" y="575"/>
			<point x="372" y="705"/>
			<point x="611" y="705" type="curve" smooth="yes"/>
			<point x="846" y="705"/>
			<point x="985" y="578"/>
			<point x="985" y="364" type="curve" smooth="yes"/>
			<point x="985" y="349" type="line" smooth="yes"/>
			<point x="985" y="258"/>
			<point x="957" y="205"/>
			<point x="910" y="205" type="curve" smooth="yes"/>
			<point x="872" y="205"/>
			<point x="850" y="233"/>
			<point x="850" y="281" type="curve" smooth="yes"/>
			<point x="850" y="550" type="line"/>
			<point x="720" y="550" type="line"/>
			<point x="690" y="440" type="line"/>
			<point x="690" y="306" type="line" smooth="yes"/>
			<point x="690" y="170"/>
			<point x="771" y="90"/>
			<point x="907" y="90" type="curve" smooth="yes"/>
			<point x="1060" y="90"/>
			<point x="1150" y="192"/>
			<point x="1150" y="364" type="curve" smooth="yes"/>
			<point x="1150" y="369" type="line" smooth="yes"/>
			<point x="1150" y="665"/>
			<point x="950" y="840"/>
			<point x="612" y="840" type="curve" smooth="yes"/>
			<point x="269" y="840"/>
			<point x="66" y="658"/>
			<point x="66" y="351" type="curve" smooth="yes"/>
		</contour>
	</outline>
</glyph>
<glyph name="A" format="2">
	<advance width="903"/>
	<unicode hex="0041"/>
	<anchor x="849" y="10" name="ogonek"/>
	<anchor x="447" y="0" name="bottom"/>
	<anchor x="447" y="800" name="top"/>
	<outline>
		<contour>
			<point x="862" y="0" type="line"/>
			<point x="566" y="800" type="line"/>
			<point x="331" y="800" type="line"/>
			<point x="52" y="0" type="line"/>
			<point x="239" y="0" type="line"/>
			<point x="434" y="590" type="line"/>
			<point x="445" y="650" type="line"/>
			<point x="449" y="650" type="line"/>
			<point x="460" y="590" type="line"/>
			<point x="667" y="0" type="line"/>
		</contour>
		<contour>
			<point x="234" y="305" type="line"/>
			<point x="234" y="150" type="line"/>
			<point x="669" y="150" type="line"/>
			<point x="669" y="305" type="line"/>
		</contour>
	</outline>
</glyph>
<glyph name="B" format="2">
	<advance width="831"/>
	<unicode hex="0042"/>
	<outline>
		<contour>
			<point x="96" y="0" type="line"/>
			<point x="460" y="0" type="line" smooth="yes"/>
			<point x="639" y="0"/>
			<point x="745" y="86"/>
			<point x="745" y="232" type="curve" smooth="yes"/>
			<point x="745" y="242" type="line" smooth="yes"/>
			<point x="745" y="324"/>
			<point x="692" y="389"/>
			<point x="603" y="417" type="curve"/>
			<point x="603" y="421" type="line"/>
			<point x="664" y="453"/>
			<point x="700" y="509"/>
			<point x="700" y="572" type="curve" smooth="yes"/>
			<point x="700" y="582" type="line" smooth="yes"/>
			<point x="700" y="719"/>
			<point x="597" y="800"/>
			<point x="423" y="800" type="curve" smooth="yes"/>
			<point x="96" y="800" type="line"/>
		</contour>
		<contour>
			<point x="281" y="155" type="line"/>
			<point x="281" y="340" type="line"/>
			<point x="457" y="340" type="line" smooth="yes"/>
			<point x="519" y="340"/>
			<point x="555" y="307"/>
			<point x="555" y="250" type="curve" smooth="yes"/>
			<point x="555" y="245" type="line" smooth="yes"/>
			<point x="555" y="188"/>
			<point x="520" y="155"/>
			<point x="461" y="155" type="curve" smooth="yes"/>
		</contour>
		<contour>
			<point x="281" y="475" type="line"/>
			<point x="281" y="645" type="line"/>
			<point x="412" y="645" type="line" smooth="yes"/>
			<point x="474" y="645"/>
			<point x="510" y="615"/>
			<point x="510" y="563" type="curve" smooth="yes"/>
			<point x="510" y="557" type="line" smooth="yes"/>
			<point x="510" y="505"/>
			<point x="475" y="475"/>
			<point x="416" y="475" type="curve" smooth="yes"/>
		</contour>
	</outline>
</glyph>
<glyph name="C" format="2">
	<advance width="826"/>
	<unicode hex="0043"/>
	<anchor x="436" y="800" name="top"/>
	<anchor x="426" y="0" name="bottom"/>
	<outline>
		<contour>
			<point x="767" y="291" type="line"/>
			<point x="587" y="302" type="line"/>
			<point x="585" y="286" type="line" smooth="yes"/>
			<point x="573" y="194"/>
			<point x="517" y="139"/>
			<point x="433" y="139" type="curve" smooth="yes"/>
			<point x="322" y="139"/>
			<point x="256" y="231"/>
			<point x="256" y="386" type="curve" smooth="yes"/>
			<point x="256" y="409" type="line" smooth="yes"/>
			<point x="256" y="567"/>
			<point x="320" y="661"/>
			<point x="429" y="661" type="curve" smooth="yes"/>
			<point x="507" y="661"/>
			<point x="563" y="615"/>
			<point x="579" y="537" type="curve" smooth="yes"/>
			<point x="583" y="518" type="line"/>
			<point x="763" y="532" type="line"/>
			<point x="760" y="550" type="line" smooth="yes"/>
			<point x="732" y="717"/>
			<point x="609" y="816"/>
			<point x="430" y="816" type="curve" smooth="yes"/>
			<point x="201" y="816"/>
			<point x="66" y="665"/>
			<point x="66" y="409" type="curve" smooth="yes"/>
			<point x="66" y="394" type="line" smooth="yes"/>
			<point x="66" y="136"/>
			<point x="202" y="-16"/>
			<point x="432" y="-16" type="curve" smooth="yes"/>
			<point x="621" y="-16"/>
			<point x="745" y="91"/>
			<point x="765" y="273" type="curve" smooth="yes"/>
		</contour>
	</outline>
</glyph>
<glyph name="D" format="2">
	<advance width="843"/>
	<unicode hex="0044"/>
	<anchor x="412" y="400" name="center"/>
	<anchor x="412" y="0" name="bottom"/>
	<anchor x="412" y="800" name="top"/>
	<outline>
		<contour>
			<point x="96" y="0" type="line"/>
			<point x="383" y="0" type="line" smooth="yes"/>
			<point x="631" y="0"/>
			<point x="777" y="146"/>
			<point x="777" y="392" type="curve" smooth="yes"/>
			<point x="777" y="407" type="line" smooth="yes"/>
			<point x="777" y="654"/>
			<point x="630" y="800"/>
			<point x="381" y="800" type="curve" smooth="yes"/>
			<point x="96" y="800" type="line"/>
		</contour>
		<contour>
			<point x="281" y="155" type="line"/>
			<point x="281" y="645" type="line"/>
			<point x="380" y="645" type="line" smooth="yes"/>
			<point x="510" y="645"/>
			<point x="587" y="560"/>
			<point x="587" y="415" type="curve" smooth="yes"/>
			<point x="587" y="392" type="line" smooth="yes"/>
			<point x="587" y="243"/>
			<point x="512" y="155"/>
			<point x="384" y="155" type="curve" smooth="yes"/>
		</contour>
	</outline>
</glyph>
<glyph name="E" format="2">
	<advance width="706"/>
	<unicode hex="0045"/>
	<anchor x="641" y="10" name="ogonek"/>
	<anchor x="356" y="800" name="top"/>
	<anchor x="86" y="800" name="topleft"/>
	<anchor x="356" y="0" name="bottom"/>
	<outline>
		<contour>
			<point x="96" y="0" type="line"/>
			<point x="641" y="0" type="line"/>
			<point x="641" y="155" type="line"/>
			<point x="281" y="155" type="line"/>
			<point x="281" y="350" type="line"/>
			<point x="591" y="350" type="line"/>
			<point x="591" y="505" type="line"/>
			<point x="281" y="505" type="line"/>
			<point x="281" y="645" type="line"/>
			<point x="621" y="645" type="line"/>
			<point x="621" y="800" type="line"/>
			<point x="96" y="800" type="line"/>
		</contour>
	</outline>
</glyph>
<glyph name="F" format="2">
	<advance width="686"/>
	<unicode hex="0046"/>
	<outline>
		<contour>
			<point x="96" y="0" type="line"/>
			<point x="281" y="0" type="line"/>
			<point x="281" y="350" type="line"/>
			<point x="591" y="350" type="line"/>
			<point x="591" y="505" type="line"/>
			<point x="281" y="505" type="line"/>
			<point x="281" y="645" type="line"/>
			<point x="621" y="645" type="line"/>
			<point x="621" y="800" type="line"/>
			<point x="96" y="800" type="line"/>
		</contour>
	</outline>
</glyph>
<glyph name="G" format="2">
	<advance width="843"/>
	<unicode hex="0047"/>
	<anchor x="406" y="800" name="top"/>
	<anchor x="406" y="0" name="bottom"/>
	<outline>
		<contour>
			<point x="777" y="435" type="line"/>
			<point x="441" y="435" type="line"/>
			<point x="441" y="315" type="line"/>
			<point x="595" y="315" type="line"/>
			<point x="595" y="296" type="line" smooth="yes"/>
			<point x="595" y="197"/>
			<point x="539" y="139"/>
			<point x="443" y="139" type="curve" smooth="yes"/>
			<point x="325" y="139"/>
			<point x="256" y="231"/>
			<point x="256" y="386" type="curve" smooth="yes"/>
			<point x="256" y="409" type="line" smooth="yes"/>
			<point x="256" y="567"/>
			<point x="320" y="661"/>
			<point x="429" y="661" type="curve" smooth="yes"/>
			<point x="509" y="661"/>
			<point x="565" y="622"/>
			<point x="579" y="557" type="curve" smooth="yes"/>
			<point x="583" y="538" type="line"/>
			<point x="763" y="552" type="line"/>
			<point x="760" y="570" type="line" smooth="yes"/>
			<point x="734" y="725"/>
			<point x="611" y="816"/>
			<point x="430" y="816" type="curve" smooth="yes"/>
			<point x="201" y="816"/>
			<point x="66" y="665"/>
			<point x="66" y="409" type="curve" smooth="yes"/>
			<point x="66" y="394" type="line" smooth="yes"/>
			<point x="66" y="136"/>
			<point x="206" y="-16"/>
			<point x="442" y="-16" type="curve" smooth="yes"/>
			<point x="653" y="-16"/>
			<point x="777" y="123"/>
			<point x="777" y="357" type="curve" smooth="yes"/>
		</contour>
	</outline>
</glyph>
<glyph name="H" format="2">
	<advance width="832"/>
	<unicode hex="0048"/>
	<outline>
		<contour>
			<point x="96" y="0" type="line"/>
			<point x="281" y="0" type="line"/>
			<point x="281" y="350" type="line"/>
			<point x="551" y="350" type="line"/>
			<point x="551" y="0" type="line"/>
			<point x="736" y="0" type="line"/>
			<point x="736" y="800" type="line"/>
			<point x="551" y="800" type="line"/>
			<point x="551" y="505" type="line"/>
			<point x="281" y="505" type="line"/>
			<point x="281" y="800" type="line"/>
			<point x="96" y="800" type="line"/>
		</contour>
	</outline>
</glyph>
<glyph name="I" format="2">
	<advance width="377"/>
	<unicode hex="0049"/>
	<anchor x="281" y="10" name="ogonek"/>
	<anchor x="189" y="800" name="top"/>
	<anchor x="75" y="800" name="topleft"/>
	<anchor x="189" y="0" name="bottom"/>
	<outline>
		<contour>
			<point x="281" y="800" type="line"/>
			<point x="96" y="800" type="line"/>
			<point x="96" y="0" type="line"/>
			<point x="281" y="0" type="line"/>
		</contour>
	</outline>
</glyph>
<glyph name="J" format="2">
	<advance width="698"/>
	<unicode hex="004A"/>
	<outline>
		<contour>
			<point x="602" y="800" type="line"/>
			<point x="417" y="800" type="line"/>
			<point x="417" y="250" type="line" smooth="yes"/>
			<point x="417" y="180"/>
			<point x="384" y="139"/>
			<point x="327" y="139" type="curve" smooth="yes"/>
			<point x="270" y="139"/>
			<point x="237" y="178"/>
			<point x="237" y="244" type="curve" smooth="yes"/>
			<point x="237" y="305" type="line"/>
			<point x="52" y="295" type="line"/>
			<point x="52" y="252" type="line" smooth="yes"/>
			<point x="52" y="84"/>
			<point x="154" y="-16"/>
			<point x="327" y="-16" type="curve" smooth="yes"/>
			<point x="500" y="-16"/>
			<point x="602" y="84"/>
			<point x="602" y="252" type="curve" smooth="yes"/>
		</contour>
	</outline>
</glyph>
<glyph name="K" format="2">
	<advance width="814"/>
	<unicode hex="004B"/>
	<anchor x="396" y="800" name="top"/>
	<anchor x="396" y="0" name="bottom"/>
	<outline>
		<contour>
			<point x="96" y="0" type="line"/>
			<point x="281" y="0" type="line"/>
			<point x="281" y="281" type="line"/>
			<point x="372" y="393" type="line"/>
			<point x="376" y="393" type="line"/>
			<point x="574" y="0" type="line"/>
			<point x="773" y="0" type="line"/>
			<point x="513" y="513" type="line"/>
			<point x="733" y="800" type="line"/>
			<point x="525" y="800" type="line"/>
			<point x="306" y="507" type="line"/>
			<point x="277" y="448" type="line"/>
			<point x="273" y="448" type="line"/>
			<point x="281" y="512" type="line"/>
			<point x="281" y="800" type="line"/>
			<point x="96" y="800" type="line"/>
		</contour>
	</outline>
</glyph>
<glyph name="L" format="2">
	<advance width="692"/>
	<unicode hex="004C"/>
	<anchor x="151" y="400" name="center"/>
	<anchor x="206" y="800" name="top"/>
	<anchor x="331" y="800" name="topright"/>
	<anchor x="371" y="0" name="bottom"/>
	<outline>
		<contour>
			<point x="651" y="0" type="line"/>
			<point x="651" y="155" type="line"/>
			<point x="281" y="155" type="line"/>
			<point x="281" y="800" type="line"/>
			<point x="96" y="800" type="line"/>
			<point x="96" y="0" type="line"/>
		</contour>
	</outline>
</glyph>
<glyph name="M" format="2">
	<advance width="1063"/>
	<unicode hex="004D"/>
	<outline>
		<contour>
			<point x="967" y="0" type="line"/>
			<point x="967" y="800" type="line"/>
			<point x="712" y="800" type="line"/>
			<point x="534" y="307" type="line"/>
			<point x="529" y="248" type="line"/>
			<point x="525" y="248" type="line"/>
			<point x="520" y="307" type="line"/>
			<point x="340" y="800" type="line"/>
			<point x="96" y="800" type="line"/>
			<point x="96" y="0" type="line"/>
			<point x="266" y="0" type="line"/>
			<point x="266" y="509" type="line"/>
			<point x="254" y="610" type="line"/>
			<point x="258" y="610" type="line"/>
			<point x="276" y="509" type="line"/>
			<point x="463" y="0" type="line"/>
			<point x="588" y="0" type="line"/>
			<point x="772" y="509" type="line"/>
			<point x="790" y="610" type="line"/>
			<point x="794" y="610" type="line"/>
			<point x="782" y="509" type="line"/>
			<point x="782" y="0" type="line"/>
		</contour>
	</outline>
</glyph>
<glyph name="N" format="2">
	<advance width="883"/>
	<unicode hex="004E"/>
	<anchor x="432" y="800" name="top"/>
	<anchor x="432" y="0" name="bottom"/>
	<outline>
		<contour>
			<point x="96" y="800" type="line"/>
			<point x="96" y="0" type="line"/>
			<point x="276" y="0" type="line"/>
			<point x="276" y="505" type="line"/>
			<point x="258" y="597" type="line"/>
			<point x="262" y="597" type="line"/>
			<point x="286" y="519" type="line"/>
			<point x="569" y="0" type="line"/>
			<point x="787" y="0" type="line"/>
			<point x="787" y="800" type="line"/>
			<point x="607" y="800" type="line"/>
			<point x="607" y="291" type="line"/>
			<point x="625" y="199" type="line"/>
			<point x="621" y="199" type="line"/>
			<point x="597" y="277" type="line"/>
			<point x="312" y="800" type="line"/>
		</contour>
	</outline>
</glyph>
<glyph name="O" format="2">
	<advance width="862"/>
	<unicode hex="004F"/>
	<anchor x="431" y="400" name="center"/>
	<anchor x="549" y="10" name="ogonek"/>
	<anchor x="431" y="800" name="top"/>
	<anchor x="839" y="800" name="topright"/>
	<anchor x="23" y="800" name="topleft"/>
	<anchor x="431" y="0" name="bottom"/>
	<outline>
		<contour>
			<point x="66" y="394" type="line" smooth="yes"/>
			<point x="66" y="136"/>
			<point x="202" y="-16"/>
			<point x="432" y="-16" type="curve" smooth="yes"/>
			<point x="661" y="-16"/>
			<point x="796" y="136"/>
			<point x="796" y="392" type="curve" smooth="yes"/>
			<point x="796" y="407" type="line" smooth="yes"/>
			<point x="796" y="664"/>
			<point x="660" y="816"/>
			<point x="430" y="816" type="curve" smooth="yes"/>
			<point x="201" y="816"/>
			<point x="66" y="665"/>
			<point x="66" y="409" type="curve" smooth="yes"/>
		</contour>
		<contour>
			<point x="256" y="386" type="curve" smooth="yes"/>
			<point x="256" y="409" type="line" smooth="yes"/>
			<point x="256" y="567"/>
			<point x="320" y="661"/>
			<point x="429" y="661" type="curve" smooth="yes"/>
			<point x="540" y="661"/>
			<point x="606" y="570"/>
			<point x="606" y="415" type="curve" smooth="yes"/>
			<point x="606" y="392" type="line" smooth="yes"/>
			<point x="606" y="233"/>
			<point x="542" y="139"/>
			<point x="433" y="139" type="curve" smooth="yes"/>
			<point x="322" y="139"/>
			<point x="256" y="231"/>
		</contour>
	</outline>
</glyph>
<glyph name="P" format="2">
	<advance width="773"/>
	<unicode hex="0050"/>
	<outline>
		<contour>
			<point x="96" y="0" type="line"/>
			<point x="281" y="0" type="line"/>
			<point x="281" y="300" type="line"/>
			<point x="447" y="300" type="line" smooth="yes"/>
			<point x="622" y="300"/>
			<point x="725" y="391"/>
			<point x="725" y="544" type="curve" smooth="yes"/>
			<point x="725" y="554" type="line" smooth="yes"/>
			<point x="725" y="709"/>
			<point x="622" y="800"/>
			<point x="447" y="800" type="curve" smooth="yes"/>
			<point x="96" y="800" type="line"/>
		</contour>
		<contour>
			<point x="281" y="455" type="line"/>
			<point x="281" y="645" type="line"/>
			<point x="437" y="645" type="line" smooth="yes"/>
			<point x="499" y="645"/>
			<point x="535" y="611"/>
			<point x="535" y="553" type="curve" smooth="yes"/>
			<point x="535" y="544" type="line" smooth="yes"/>
			<point x="535" y="488"/>
			<point x="499" y="455"/>
			<point x="437" y="455" type="curve" smooth="yes"/>
		</contour>
	</outline>
</glyph>
<glyph name="R" format="2">
	<advance width="838"/>
	<unicode hex="0052"/>
	<anchor x="374" y="800" name="top"/>
	<anchor x="374" y="0" name="bottom"/>
	<outline>
		<contour>
			<point x="96" y="0" type="line"/>
			<point x="281" y="0" type="line"/>
			<point x="281" y="310" type="line"/>
			<point x="453" y="310" type="line"/>
			<point x="595" y="0" type="line"/>
			<point x="797" y="0" type="line"/>
			<point x="653" y="286" type="line" smooth="yes"/>
			<point x="640" y="312"/>
			<point x="617" y="331"/>
			<point x="592" y="339" type="curve"/>
			<point x="592" y="343" type="line"/>
			<point x="688" y="366"/>
			<point x="745" y="443"/>
			<point x="745" y="549" type="curve" smooth="yes"/>
			<point x="745" y="559" type="line" smooth="yes"/>
			<point x="745" y="710"/>
			<point x="642" y="800"/>
			<point x="467" y="800" type="curve" smooth="yes"/>
			<point x="96" y="800" type="line"/>
		</contour>
		<contour>
			<point x="281" y="465" type="line"/>
			<point x="281" y="645" type="line"/>
			<point x="457" y="645" type="line" smooth="yes"/>
			<point x="519" y="645"/>
			<point x="555" y="613"/>
			<point x="555" y="558" type="curve" smooth="yes"/>
			<point x="555" y="549" type="line" smooth="yes"/>
			<point x="555" y="496"/>
			<point x="519" y="465"/>
			<point x="457" y="465" type="curve" smooth="yes"/>
		</contour>
	</outline>
</glyph>
<glyph name="S" format="2">
	<advance width="751"/>
	<unicode hex="0053"/>
	<anchor x="351" y="800" name="top"/>
	<anchor x="351" y="0" name="bottom"/>
	<outline>
		<contour>
			<point x="57" y="244" type="line"/>
			<point x="59" y="230" type="line" smooth="yes"/>
			<point x="81" y="75"/>
			<point x="196" y="-16"/>
			<point x="370" y="-16" type="curve" smooth="yes"/>
			<point x="573" y="-16"/>
			<point x="693" y="74"/>
			<point x="693" y="227" type="curve" smooth="yes"/>
			<point x="693" y="291"/>
			<point x="668" y="354"/>
			<point x="626" y="396" type="curve" smooth="yes"/>
			<point x="587" y="435"/>
			<point x="523" y="467"/>
			<point x="454" y="484" type="curve" smooth="yes"/>
			<point x="358" y="507" type="line" smooth="yes"/>
			<point x="332" y="513"/>
			<point x="309" y="524"/>
			<point x="296" y="537" type="curve" smooth="yes"/>
			<point x="283" y="550"/>
			<point x="275" y="569"/>
			<point x="275" y="588" type="curve" smooth="yes"/>
			<point x="275" y="592" type="line" smooth="yes"/>
			<point x="275" y="635"/>
			<point x="314" y="661"/>
			<point x="379" y="661" type="curve" smooth="yes"/>
			<point x="432" y="661"/>
			<point x="469" y="634"/>
			<point x="478" y="589" type="curve" smooth="yes"/>
			<point x="481" y="574" type="line"/>
			<point x="653" y="588" type="line"/>
			<point x="650" y="603" type="line" smooth="yes"/>
			<point x="623" y="737"/>
			<point x="521" y="816"/>
			<point x="374" y="816" type="curve" smooth="yes"/>
			<point x="192" y="816"/>
			<point x="85" y="730"/>
			<point x="85" y="585" type="curve" smooth="yes"/>
			<point x="85" y="527"/>
			<point x="108" y="468"/>
			<point x="148" y="426" type="curve" smooth="yes"/>
			<point x="182" y="391"/>
			<point x="242" y="360"/>
			<point x="308" y="344" type="curve" smooth="yes"/>
			<point x="404" y="321" type="line" smooth="yes"/>
			<point x="438" y="313"/>
			<point x="466" y="299"/>
			<point x="480" y="285" type="curve" smooth="yes"/>
			<point x="494" y="271"/>
			<point x="503" y="250"/>
			<point x="503" y="230" type="curve" smooth="yes"/>
			<point x="503" y="223" type="line" smooth="yes"/>
			<point x="503" y="170"/>
			<point x="455" y="139"/>
			<point x="375" y="139" type="curve" smooth="yes"/>
			<point x="294" y="139"/>
			<point x="241" y="178"/>
			<point x="232" y="243" type="curve" smooth="yes"/>
			<point x="230" y="257" type="line"/>
		</contour>
	</outline>
</glyph>
<glyph name="T" format="2">
	<advance width="768"/>
	<unicode hex="0054"/>
	<anchor x="390" y="400" name="center"/>
	<anchor x="390" y="0" name="bottom"/>
	<anchor x="390" y="800" name="top"/>
	<outline>
		<contour>
			<point x="52" y="800" type="line"/>
			<point x="52" y="645" type="line"/>
			<point x="297" y="645" type="line"/>
			<point x="297" y="0" type="line"/>
			<point x="482" y="0" type="line"/>
			<point x="482" y="645" type="line"/>
			<point x="727" y="645" type="line"/>
			<point x="727" y="800" type="line"/>
		</contour>
	</outline>
</glyph>
<glyph name="U" format="2">
	<advance width="862"/>
	<unicode hex="0055"/>
	<anchor x="536" y="10" name="ogonek"/>
	<anchor x="431" y="800" name="top"/>
	<anchor x="822" y="800" name="topright"/>
	<anchor x="431" y="0" name="bottom"/>
	<outline>
		<contour>
			<point x="766" y="800" type="line"/>
			<point x="581" y="800" type="line"/>
			<point x="581" y="312" type="line" smooth="yes"/>
			<point x="581" y="203"/>
			<point x="525" y="139"/>
			<point x="431" y="139" type="curve" smooth="yes"/>
			<point x="337" y="139"/>
			<point x="281" y="201"/>
			<point x="281" y="306" type="curve" smooth="yes"/>
			<point x="281" y="800" type="line"/>
			<point x="96" y="800" type="line"/>
			<point x="96" y="314" type="line" smooth="yes"/>
			<point x="96" y="107"/>
			<point x="220" y="-16"/>
			<point x="431" y="-16" type="curve" smooth="yes"/>
			<point x="642" y="-16"/>
			<point x="766" y="106"/>
			<point x="766" y="312" type="curve" smooth="yes"/>
		</contour>
	</outline>
</glyph>
<glyph name="V" format="2">
	<advance width="840"/>
	<unicode hex="0056"/>
	<outline>
		<contour>
			<point x="52" y="800" type="line"/>
			<point x="322" y="0" type="line"/>
			<point x="535" y="0" type="line"/>
			<point x="799" y="800" type="line"/>
			<point x="618" y="800" type="line"/>
			<point x="438" y="214" type="line"/>
			<point x="433" y="150" type="line"/>
			<point x="429" y="150" type="line"/>
			<point x="424" y="214" type="line"/>
			<point x="242" y="800" type="line"/>
		</contour>
	</outline>
</glyph>
<glyph name="W" format="2">
	<advance width="1183"/>
	<unicode hex="0057"/>
	<guideline x="362" y="288" angle="0"/>
	<anchor x="604" y="800" name="top"/>
	<anchor x="604" y="0" name="bottom"/>
	<outline>
		<contour>
			<point x="52" y="800" type="line"/>
			<point x="240" y="0" type="line"/>
			<point x="456" y="0" type="line"/>
			<point x="586" y="538" type="line"/>
			<point x="595" y="642" type="line"/>
			<point x="599" y="642" type="line"/>
			<point x="608" y="538" type="line"/>
			<point x="738" y="0" type="line"/>
			<point x="954" y="0" type="line"/>
			<point x="1142" y="800" type="line"/>
			<point x="977" y="800" type="line"/>
			<point x="868" y="288" type="line"/>
			<point x="858" y="184" type="line"/>
			<point x="854" y="184" type="line"/>
			<point x="844" y="288" type="line"/>
			<point x="710" y="800" type="line"/>
			<point x="500" y="800" type="line"/>
			<point x="369" y="288" type="line"/>
			<point x="359" y="184" type="line"/>
			<point x="355" y="184" type="line"/>
			<point x="345" y="288" type="line"/>
			<point x="239" y="800" type="line"/>
		</contour>
	</outline>
</glyph>
<glyph name="X" format="2">
	<advance width="821"/>
	<unicode hex="0058"/>
	<outline>
		<contour>
			<point x="52" y="0" type="line"/>
			<point x="248" y="0" type="line"/>
			<point x="400" y="283" type="line"/>
			<point x="410" y="342" type="line"/>
			<point x="414" y="342" type="line"/>
			<point x="424" y="283" type="line"/>
			<point x="573" y="0" type="line"/>
			<point x="780" y="0" type="line"/>
			<point x="538" y="434" type="line"/>
			<point x="744" y="800" type="line"/>
			<point x="545" y="800" type="line"/>
			<point x="424" y="565" type="line"/>
			<point x="414" y="506" type="line"/>
			<point x="410" y="506" type="line"/>
			<point x="400" y="565" type="line"/>
			<point x="279" y="800" type="line"/>
			<point x="73" y="800" type="line"/>
			<point x="285" y="418" type="line"/>
		</contour>
	</outline>
</glyph>
<glyph name="Y" format="2">
	<advance width="847"/>
	<unicode hex="0059"/>
	<anchor x="442" y="800" name="top"/>
	<anchor x="442" y="0" name="bottom"/>
	<anchor x="95" y="800" name="topleft"/>
	<outline>
		<contour>
			<point x="52" y="800" type="line"/>
			<point x="347" y="220" type="line"/>
			<point x="347" y="0" type="line"/>
			<point x="532" y="0" type="line"/>
			<point x="532" y="220" type="line"/>
			<point x="806" y="800" type="line"/>
			<point x="618" y="800" type="line"/>
			<point x="452" y="424" type="line"/>
			<point x="444" y="370" type="line"/>
			<point x="440" y="370" type="line"/>
			<point x="432" y="424" type="line"/>
			<point x="254" y="800" type="line"/>
		</contour>
	</outline>
</glyph>
<glyph name="Z" format="2">
	<advance width="754"/>
	<unicode hex="005A"/>
	<anchor x="367" y="800" name="top"/>
	<anchor x="367" y="0" name="bottom"/>
	<outline>
		<contour>
			<point x="52" y="0" type="line"/>
			<point x="702" y="0" type="line"/>
			<point x="702" y="155" type="line"/>
			<point x="277" y="155" type="line"/>
			<point x="277" y="161" type="line"/>
			<point x="317" y="187" type="line"/>
			<point x="672" y="669" type="line"/>
			<point x="672" y="800" type="line"/>
			<point x="72" y="800" type="line"/>
			<point x="72" y="645" type="line"/>
			<point x="447" y="645" type="line"/>
			<point x="447" y="639" type="line"/>
			<point x="407" y="613" type="line"/>
			<point x="52" y="131" type="line"/>
		</contour>
	</outline>
</glyph>
<glyph name="bracketleft" format="2">
	<advance width="411"/>
	<unicode hex="005B"/>
	<outline>
		<contour>
			<point x="48" y="-180" type="line"/>
			<point x="363" y="-180" type="line"/>
			<point x="363" y="-25" type="line"/>
			<point x="233" y="-25" type="line"/>
			<point x="233" y="665" type="line"/>
			<point x="363" y="665" type="line"/>
			<point x="363" y="820" type="line"/>
			<point x="48" y="820" type="line"/>
		</contour>
	</outline>
</glyph>
<glyph name="bracketright" format="2">
	<advance width="411"/>
	<unicode hex="005D"/>
	<outline>
		<contour>
			<point x="363" y="-180" type="line"/>
			<point x="363" y="820" type="line"/>
			<point x="48" y="820" type="line"/>
			<point x="48" y="665" type="line"/>
			<point x="178" y="665" type="line"/>
			<point x="178" y="-25" type="line"/>
			<point x="48" y="-25" type="line"/>
			<point x="48" y="-180" type="line"/>
		</contour>
	</outline>
</glyph>
<glyph name="a" format="2">
	<advance width="649"/>
	<unicode hex="0061"/>
	<anchor x="547" y="10" name="ogonek"/>
	<anchor x="315" y="0" name="bottom"/>
	<anchor x="319" y="590" name="top"/>
	<outline>
		<contour>
			<point x="70" y="410" type="line"/>
			<point x="229" y="406" type="line"/>
			<point x="231" y="420" type="line" smooth="yes"/>
			<point x="236" y="455"/>
			<point x="266" y="476"/>
			<point x="312" y="476" type="curve" smooth="yes"/>
			<point x="362" y="476"/>
			<point x="391" y="441"/>
			<point x="391" y="383" type="curve" smooth="yes"/>
			<point x="391" y="110" type="line" smooth="yes"/>
			<point x="391" y="62"/>
			<point x="397" y="21"/>
			<point x="408" y="0" type="curve"/>
			<point x="587" y="0" type="line"/>
			<point x="589" y="4" type="line"/>
			<point x="578" y="41"/>
			<point x="571" y="84"/>
			<point x="571" y="119" type="curve" smooth="yes"/>
			<point x="571" y="388" type="line" smooth="yes"/>
			<point x="571" y="525"/>
			<point x="478" y="606"/>
			<point x="320" y="606" type="curve" smooth="yes"/>
			<point x="168" y="606"/>
			<point x="79" y="538"/>
			<point x="71" y="424" type="curve" smooth="yes"/>
		</contour>
		<contour>
			<point x="426" y="225" type="line"/>
			<point x="391" y="225" type="line"/>
			<point x="391" y="155"/>
			<point x="354" y="114"/>
			<point x="291" y="114" type="curve" smooth="yes"/>
			<point x="248" y="114"/>
			<point x="222" y="137"/>
			<point x="222" y="175" type="curve" smooth="yes"/>
			<point x="222" y="180" type="line" smooth="yes"/>
			<point x="222" y="219"/>
			<point x="246" y="245"/>
			<point x="286" y="250" type="curve" smooth="yes"/>
			<point x="426" y="267" type="line"/>
			<point x="426" y="368" type="line"/>
			<point x="247" y="345" type="line" smooth="yes"/>
			<point x="117" y="328"/>
			<point x="40" y="259"/>
			<point x="40" y="160" type="curve" smooth="yes"/>
			<point x="40" y="155" type="line" smooth="yes"/>
			<point x="40" y="48"/>
			<point x="113" y="-16"/>
			<point x="236" y="-16" type="curve" smooth="yes"/>
			<point x="339" y="-16"/>
			<point x="410" y="53"/>
			<point x="426" y="171" type="curve"/>
		</contour>
	</outline>
</glyph>
<glyph name="b" format="2">
	<advance width="685"/>
	<unicode hex="0062"/>
	<outline>
		<contour>
			<point x="65" y="820" type="line"/>
			<point x="65" y="0" type="line"/>
			<point x="215" y="0" type="line"/>
			<point x="245" y="110" type="line"/>
			<point x="245" y="820" type="line"/>
		</contour>
		<contour>
			<point x="230" y="121" type="line"/>
			<point x="251" y="35"/>
			<point x="318" y="-16"/>
			<point x="410" y="-16" type="curve" smooth="yes"/>
			<point x="548" y="-16"/>
			<point x="629" y="97"/>
			<point x="629" y="289" type="curve" smooth="yes"/>
			<point x="629" y="300" type="line" smooth="yes"/>
			<point x="629" y="492"/>
			<point x="548" y="606"/>
			<point x="412" y="606" type="curve" smooth="yes"/>
			<point x="319" y="606"/>
			<point x="251" y="555"/>
			<point x="230" y="469" type="curve"/>
			<point x="230" y="310" type="line"/>
			<point x="245" y="310" type="line"/>
			<point x="245" y="414"/>
			<point x="284" y="476"/>
			<point x="350" y="476" type="curve" smooth="yes"/>
			<point x="411" y="476"/>
			<point x="447" y="413"/>
			<point x="447" y="306" type="curve" smooth="yes"/>
			<point x="447" y="289" type="line" smooth="yes"/>
			<point x="447" y="179"/>
			<point x="408" y="114"/>
			<point x="342" y="114" type="curve" smooth="yes"/>
			<point x="281" y="114"/>
			<point x="245" y="176"/>
			<point x="245" y="280" type="curve"/>
			<point x="230" y="280" type="line"/>
		</contour>
	</outline>
</glyph>
<glyph name="c" format="2">
	<advance width="639"/>
	<unicode hex="0063"/>
	<anchor x="319" y="590" name="top"/>
	<anchor x="309" y="0" name="bottom"/>
	<outline>
		<contour>
			<point x="410" y="388" type="line"/>
			<point x="577" y="395" type="line"/>
			<point x="575" y="412" type="line" smooth="yes"/>
			<point x="561" y="534"/>
			<point x="471" y="606"/>
			<point x="332" y="606" type="curve" smooth="yes"/>
			<point x="148" y="606"/>
			<point x="40" y="493"/>
			<point x="40" y="301" type="curve" smooth="yes"/>
			<point x="40" y="290" type="line" smooth="yes"/>
			<point x="40" y="98"/>
			<point x="147" y="-16"/>
			<point x="329" y="-16" type="curve" smooth="yes"/>
			<point x="477" y="-16"/>
			<point x="571" y="64"/>
			<point x="582" y="199" type="curve" smooth="yes"/>
			<point x="583" y="211" type="line"/>
			<point x="416" y="217" type="line"/>
			<point x="414" y="199" type="line" smooth="yes"/>
			<point x="408" y="146"/>
			<point x="377" y="114"/>
			<point x="330" y="114" type="curve" smooth="yes"/>
			<point x="262" y="114"/>
			<point x="222" y="177"/>
			<point x="222" y="284" type="curve" smooth="yes"/>
			<point x="222" y="301" type="line" smooth="yes"/>
			<point x="222" y="411"/>
			<point x="262" y="476"/>
			<point x="331" y="476" type="curve" smooth="yes"/>
			<point x="371" y="476"/>
			<point x="399" y="450"/>
			<point x="407" y="405" type="curve" smooth="yes"/>
		</contour>
	</outline>
</glyph>
<glyph name="e" format="2">
	<advance width="648"/>
	<unicode hex="0065"/>
	<anchor x="379" y="10" name="ogonek"/>
	<anchor x="324" y="0" name="bottom"/>
	<anchor x="324" y="590" name="top"/>
	<outline>
		<contour>
			<point x="583" y="191" type="line"/>
			<point x="416" y="197" type="line"/>
			<point x="414" y="179" type="line" smooth="yes"/>
			<point x="409" y="132"/>
			<point x="376" y="104"/>
			<point x="325" y="104" type="curve" smooth="yes"/>
			<point x="260" y="104"/>
			<point x="222" y="168"/>
			<point x="222" y="276" type="curve" smooth="yes"/>
			<point x="222" y="331" type="line" smooth="yes"/>
			<point x="222" y="428"/>
			<point x="261" y="486"/>
			<point x="326" y="486" type="curve" smooth="yes"/>
			<point x="386" y="486"/>
			<point x="422" y="431"/>
			<point x="422" y="339" type="curve" smooth="yes"/>
			<point x="422" y="322" type="line"/>
			<point x="454" y="366" type="line"/>
			<point x="144" y="366" type="line"/>
			<point x="144" y="266" type="line"/>
			<point x="592" y="266" type="line"/>
			<point x="592" y="286" type="line" smooth="yes"/>
			<point x="592" y="487"/>
			<point x="494" y="606"/>
			<point x="327" y="606" type="curve" smooth="yes"/>
			<point x="147" y="606"/>
			<point x="40" y="493"/>
			<point x="40" y="301" type="curve" smooth="yes"/>
			<point x="40" y="290" type="line" smooth="yes"/>
			<point x="40" y="98"/>
			<point x="144" y="-16"/>
			<point x="319" y="-16" type="curve" smooth="yes"/>
			<point x="474" y="-16"/>
			<point x="572" y="56"/>
			<point x="582" y="179" type="curve" smooth="yes"/>
		</contour>
	</outline>
</glyph>
<glyph name="f" format="2">
	<advance width="515"/>
	<unicode hex="0066"/>
	<outline>
		<contour>
			<point x="145" y="0" type="line"/>
			<point x="325" y="0" type="line"/>
			<point x="325" y="637" type="line" smooth="yes"/>
			<point x="325" y="673"/>
			<point x="347" y="695"/>
			<point x="383" y="695" type="curve" smooth="yes"/>
			<point x="404" y="695"/>
			<point x="427" y="693"/>
			<point x="445" y="689" type="curve"/>
			<point x="445" y="820" type="line"/>
			<point x="415" y="827"/>
			<point x="375" y="831"/>
			<point x="337" y="831" type="curve" smooth="yes"/>
			<point x="216" y="831"/>
			<point x="145" y="759"/>
			<point x="145" y="637" type="curve" smooth="yes"/>
		</contour>
		<contour>
			<point x="45" y="590" type="line"/>
			<point x="45" y="460" type="line"/>
			<point x="445" y="460" type="line"/>
			<point x="445" y="590" type="line"/>
		</contour>
	</outline>
</glyph>
<glyph name="g" format="2">
	<advance width="679"/>
	<unicode hex="0067"/>
	<anchor x="350" y="590" name="top"/>
	<anchor x="328" y="-180" name="bottom"/>
	<outline>
		<contour>
			<point x="58" y="-4" type="line" smooth="yes"/>
			<point x="66" y="-125"/>
			<point x="166" y="-196"/>
			<point x="328" y="-196" type="curve" smooth="yes"/>
			<point x="501" y="-196"/>
			<point x="604" y="-108"/>
			<point x="604" y="42" type="curve" smooth="yes"/>
			<point x="604" y="590" type="line"/>
			<point x="454" y="590" type="line"/>
			<point x="424" y="480" type="line"/>
			<point x="424" y="47" type="line" smooth="yes"/>
			<point x="424" y="-24"/>
			<point x="388" y="-66"/>
			<point x="327" y="-66" type="curve" smooth="yes"/>
			<point x="277" y="-66"/>
			<point x="244" y="-41"/>
			<point x="238" y="0" type="curve" smooth="yes"/>
			<point x="236" y="14" type="line"/>
			<point x="57" y="10" type="line"/>
		</contour>
		<contour>
			<point x="439" y="469" type="line"/>
			<point x="418" y="555"/>
			<point x="351" y="606"/>
			<point x="259" y="606" type="curve" smooth="yes"/>
			<point x="121" y="606"/>
			<point x="40" y="508"/>
			<point x="40" y="341" type="curve" smooth="yes"/>
			<point x="40" y="330" type="line" smooth="yes"/>
			<point x="40" y="163"/>
			<point x="121" y="64"/>
			<point x="257" y="64" type="curve" smooth="yes"/>
			<point x="350" y="64"/>
			<point x="418" y="115"/>
			<point x="439" y="201" type="curve"/>
			<point x="439" y="320" type="line"/>
			<point x="424" y="320" type="line"/>
			<point x="424" y="241"/>
			<point x="385" y="194"/>
			<point x="319" y="194" type="curve" smooth="yes"/>
			<point x="258" y="194"/>
			<point x="222" y="242"/>
			<point x="222" y="324" type="curve" smooth="yes"/>
			<point x="222" y="341" type="line" smooth="yes"/>
			<point x="222" y="426"/>
			<point x="261" y="476"/>
			<point x="327" y="476" type="curve" smooth="yes"/>
			<point x="388" y="476"/>
			<point x="424" y="429"/>
			<point x="424" y="350" type="curve"/>
			<point x="439" y="350" type="line"/>
		</contour>
	</outline>
</glyph>
<glyph name="h" format="2">
	<advance width="684"/>
	<unicode hex="0068"/>
	<outline>
		<contour>
			<point x="65" y="820" type="line"/>
			<point x="65" y="0" type="line"/>
			<point x="245" y="0" type="line"/>
			<point x="245" y="820" type="line"/>
		</contour>
		<contour>
			<point x="230" y="310" type="line"/>
			<point x="245" y="310" type="line"/>
			<point x="245" y="414"/>
			<point x="280" y="476"/>
			<point x="340" y="476" type="curve" smooth="yes"/>
			<point x="395" y="476"/>
			<point x="427" y="431"/>
			<point x="427" y="356" type="curve" smooth="yes"/>
			<point x="427" y="0" type="line"/>
			<point x="609" y="0" type="line"/>
			<point x="609" y="350" type="line" smooth="yes"/>
			<point x="609" y="511"/>
			<point x="532" y="606"/>
			<point x="402" y="606" type="curve" smooth="yes"/>
			<point x="315" y="606"/>
			<point x="251" y="555"/>
			<point x="230" y="469" type="curve"/>
		</contour>
	</outline>
</glyph>
<glyph name="k" format="2">
	<advance width="690"/>
	<unicode hex="006B"/>
	<anchor x="373" y="820" name="top"/>
	<anchor x="373" y="0" name="bottom"/>
	<outline>
		<contour>
			<point x="65" y="0" type="line"/>
			<point x="245" y="0" type="line"/>
			<point x="245" y="208" type="line"/>
			<point x="301" y="291" type="line"/>
			<point x="305" y="291" type="line"/>
			<point x="432" y="0" type="line"/>
			<point x="630" y="0" type="line"/>
			<point x="434" y="395" type="line"/>
			<point x="580" y="590" type="line"/>
			<point x="401" y="590" type="line"/>
			<point x="268" y="393" type="line"/>
			<point x="241" y="335" type="line"/>
			<point x="237" y="335" type="line"/>
			<point x="245" y="400" type="line"/>
			<point x="245" y="820" type="line"/>
			<point x="65" y="820" type="line"/>
		</contour>
	</outline>
</glyph>
<glyph name="l" format="2">
	<advance width="320"/>
	<unicode hex="006C"/>
	<anchor x="155" y="410" name="center"/>
	<anchor x="155" y="820" name="top"/>
	<anchor x="295" y="820" name="topright"/>
	<anchor x="155" y="0" name="bottom"/>
	<outline>
		<contour>
			<point x="65" y="820" type="line"/>
			<point x="65" y="0" type="line"/>
			<point x="245" y="0" type="line"/>
			<point x="245" y="820" type="line"/>
		</contour>
	</outline>
</glyph>
<glyph name="m" format="2">
	<advance width="1008"/>
	<unicode hex="006D"/>
	<anchor x="448" y="590" name="top"/>
	<anchor x="448" y="0" name="bottom"/>
	<outline>
		<contour>
			<point x="65" y="590" type="line"/>
			<point x="65" y="0" type="line"/>
			<point x="245" y="0" type="line"/>
			<point x="245" y="480" type="line"/>
			<point x="215" y="590" type="line"/>
		</contour>
		<contour>
			<point x="407" y="356" type="curve" smooth="yes"/>
			<point x="407" y="0" type="line"/>
			<point x="589" y="0" type="line"/>
			<point x="589" y="360" type="line" smooth="yes"/>
			<point x="589" y="515"/>
			<point x="516" y="606"/>
			<point x="392" y="606" type="curve" smooth="yes"/>
			<point x="311" y="606"/>
			<point x="251" y="555"/>
			<point x="230" y="469" type="curve"/>
			<point x="230" y="310" type="line"/>
			<point x="245" y="310" type="line"/>
			<point x="245" y="414"/>
			<point x="277" y="476"/>
			<point x="330" y="476" type="curve" smooth="yes"/>
			<point x="378" y="476"/>
			<point x="407" y="431"/>
		</contour>
		<contour>
			<point x="751" y="356" type="curve" smooth="yes"/>
			<point x="751" y="0" type="line"/>
			<point x="933" y="0" type="line"/>
			<point x="933" y="350" type="line" smooth="yes"/>
			<point x="933" y="511"/>
			<point x="860" y="606"/>
			<point x="736" y="606" type="curve" smooth="yes"/>
			<point x="651" y="606"/>
			<point x="587" y="551"/>
			<point x="564" y="459" type="curve"/>
			<point x="564" y="310" type="line"/>
			<point x="589" y="310" type="line"/>
			<point x="589" y="414"/>
			<point x="621" y="476"/>
			<point x="674" y="476" type="curve" smooth="yes"/>
			<point x="722" y="476"/>
			<point x="751" y="431"/>
		</contour>
	</outline>
</glyph>
<glyph name="o" format="2">
	<advance width="672"/>
	<unicode hex="006F"/>
	<anchor x="326" y="295" name="center"/>
	<anchor x="436" y="10" name="ogonek"/>
	<anchor x="326" y="590" name="top"/>
	<anchor x="631" y="590" name="topright"/>
	<anchor x="326" y="0" name="bottom"/>
	<outline>
		<contour>
			<point x="40" y="290" type="line" smooth="yes"/>
			<point x="40" y="98"/>
			<point x="147" y="-16"/>
			<point x="329" y="-16" type="curve" smooth="yes"/>
			<point x="509" y="-16"/>
			<point x="616" y="97"/>
			<point x="616" y="289" type="curve" smooth="yes"/>
			<point x="616" y="300" type="line" smooth="yes"/>
			<point x="616" y="492"/>
			<point x="509" y="606"/>
			<point x="327" y="606" type="curve" smooth="yes"/>
			<point x="147" y="606"/>
			<point x="40" y="493"/>
			<point x="40" y="301" type="curve" smooth="yes"/>
		</contour>
		<contour>
			<point x="222" y="284" type="curve" smooth="yes"/>
			<point x="222" y="301" type="line" smooth="yes"/>
			<point x="222" y="411"/>
			<point x="261" y="476"/>
			<point x="326" y="476" type="curve" smooth="yes"/>
			<point x="394" y="476"/>
			<point x="434" y="413"/>
			<point x="434" y="306" type="curve" smooth="yes"/>
			<point x="434" y="289" type="line" smooth="yes"/>
			<point x="434" y="179"/>
			<point x="395" y="114"/>
			<point x="330" y="114" type="curve" smooth="yes"/>
			<point x="262" y="114"/>
			<point x="222" y="177"/>
		</contour>
	</outline>
</glyph>
<glyph name="q" format="2">
	<advance width="679"/>
	<unicode hex="0071"/>
	<outline>
		<contour>
			<point x="604" y="-180" type="line"/>
			<point x="604" y="590" type="line"/>
			<point x="454" y="590" type="line"/>
			<point x="424" y="480" type="line"/>
			<point x="424" y="-180" type="line"/>
		</contour>
		<contour>
			<point x="439" y="469" type="line"/>
			<point x="418" y="555"/>
			<point x="351" y="606"/>
			<point x="259" y="606" type="curve" smooth="yes"/>
			<point x="121" y="606"/>
			<point x="40" y="493"/>
			<point x="40" y="301" type="curve" smooth="yes"/>
			<point x="40" y="290" type="line" smooth="yes"/>
			<point x="40" y="98"/>
			<point x="121" y="-16"/>
			<point x="257" y="-16" type="curve" smooth="yes"/>
			<point x="350" y="-16"/>
			<point x="418" y="35"/>
			<point x="439" y="121" type="curve"/>
			<point x="439" y="280" type="line"/>
			<point x="424" y="280" type="line"/>
			<point x="424" y="176"/>
			<point x="385" y="114"/>
			<point x="319" y="114" type="curve" smooth="yes"/>
			<point x="258" y="114"/>
			<point x="222" y="177"/>
			<point x="222" y="284" type="curve" smooth="yes"/>
			<point x="222" y="301" type="line" smooth="yes"/>
			<point x="222" y="411"/>
			<point x="261" y="476"/>
			<point x="327" y="476" type="curve" smooth="yes"/>
			<point x="388" y="476"/>
			<point x="424" y="414"/>
			<point x="424" y="310" type="curve"/>
			<point x="439" y="310" type="line"/>
		</contour>
	</outline>
</glyph>
<glyph name="r" format="2">
	<advance width="464"/>
	<unicode hex="0072"/>
	<anchor x="190" y="590" name="top"/>
	<anchor x="155" y="0" name="bottom"/>
	<outline>
		<contour>
			<point x="65" y="590" type="line"/>
			<point x="65" y="0" type="line"/>
			<point x="245" y="0" type="line"/>
			<point x="245" y="460" type="line"/>
			<point x="215" y="590" type="line"/>
		</contour>
		<contour>
			<point x="413" y="476" type="line"/>
			<point x="424" y="600" type="line"/>
			<point x="410" y="604"/>
			<point x="392" y="606"/>
			<point x="376" y="606" type="curve" smooth="yes"/>
			<point x="301" y="606"/>
			<point x="247" y="540"/>
			<point x="230" y="429" type="curve"/>
			<point x="230" y="250" type="line"/>
			<point x="245" y="250" type="line"/>
			<point x="245" y="392"/>
			<point x="299" y="476"/>
			<point x="390" y="476" type="curve" smooth="yes"/>
		</contour>
	</outline>
</glyph>
<glyph name="s" format="2">
	<advance width="634"/>
	<unicode hex="0073"/>
	<anchor x="284" y="590" name="top"/>
	<anchor x="285" y="0" name="bottom"/>
	<outline>
		<contour>
			<point x="50" y="185" type="line"/>
			<point x="51" y="173" type="line" smooth="yes"/>
			<point x="61" y="54"/>
			<point x="160" y="-16"/>
			<point x="317" y="-16" type="curve" smooth="yes"/>
			<point x="479" y="-16"/>
			<point x="574" y="53"/>
			<point x="574" y="170" type="curve" smooth="yes"/>
			<point x="574" y="216"/>
			<point x="557" y="262"/>
			<point x="529" y="292" type="curve" smooth="yes"/>
			<point x="500" y="323"/>
			<point x="445" y="349"/>
			<point x="382" y="361" type="curve" smooth="yes"/>
			<point x="310" y="375" type="line" smooth="yes"/>
			<point x="289" y="379"/>
			<point x="270" y="388"/>
			<point x="259" y="398" type="curve" smooth="yes"/>
			<point x="248" y="408"/>
			<point x="241" y="422"/>
			<point x="241" y="436" type="curve" smooth="yes"/>
			<point x="241" y="440" type="line" smooth="yes"/>
			<point x="241" y="469"/>
			<point x="266" y="486"/>
			<point x="307" y="486" type="curve" smooth="yes"/>
			<point x="348" y="486"/>
			<point x="374" y="467"/>
			<point x="377" y="435" type="curve" smooth="yes"/>
			<point x="378" y="423" type="line"/>
			<point x="544" y="430" type="line"/>
			<point x="543" y="442" type="line" smooth="yes"/>
			<point x="534" y="545"/>
			<point x="447" y="606"/>
			<point x="309" y="606" type="curve" smooth="yes"/>
			<point x="159" y="606"/>
			<point x="71" y="540"/>
			<point x="71" y="429" type="curve" smooth="yes"/>
			<point x="71" y="375"/>
			<point x="89" y="327"/>
			<point x="119" y="300" type="curve" smooth="yes"/>
			<point x="150" y="273"/>
			<point x="197" y="251"/>
			<point x="247" y="241" type="curve" smooth="yes"/>
			<point x="318" y="227" type="line" smooth="yes"/>
			<point x="341" y="222"/>
			<point x="363" y="212"/>
			<point x="377" y="200" type="curve" smooth="yes"/>
			<point x="388" y="190"/>
			<point x="394" y="176"/>
			<point x="394" y="162" type="curve" smooth="yes"/>
			<point x="394" y="158" type="line" smooth="yes"/>
			<point x="394" y="124"/>
			<point x="365" y="104"/>
			<point x="317" y="104" type="curve" smooth="yes"/>
			<point x="260" y="104"/>
			<point x="224" y="132"/>
			<point x="220" y="180" type="curve" smooth="yes"/>
			<point x="219" y="192" type="line"/>
		</contour>
	</outline>
</glyph>
<glyph name="t" format="2">
	<advance width="515"/>
	<unicode hex="0074"/>
	<anchor x="235" y="295" name="center"/>
	<anchor x="235" y="590" name="top"/>
	<anchor x="375" y="820" name="topright"/>
	<anchor x="292" y="0" name="bottom"/>
	<outline>
		<contour>
			<point x="145" y="183" type="line" smooth="yes"/>
			<point x="145" y="61"/>
			<point x="218" y="-11"/>
			<point x="342" y="-11" type="curve" smooth="yes"/>
			<point x="377" y="-11"/>
			<point x="415" y="-7"/>
			<point x="445" y="0" type="curve"/>
			<point x="445" y="131" type="line"/>
			<point x="428" y="127"/>
			<point x="406" y="125"/>
			<point x="387" y="125" type="curve" smooth="yes"/>
			<point x="348" y="125"/>
			<point x="325" y="147"/>
			<point x="325" y="183" type="curve" smooth="yes"/>
			<point x="325" y="770" type="line"/>
			<point x="255" y="770" type="line"/>
			<point x="145" y="674" type="line"/>
		</contour>
		<contour>
			<point x="45" y="460" type="line"/>
			<point x="445" y="460" type="line"/>
			<point x="445" y="590" type="line"/>
			<point x="45" y="590" type="line"/>
		</contour>
	</outline>
</glyph>
<glyph name="u" format="2">
	<advance width="684"/>
	<unicode hex="0075"/>
	<anchor x="609" y="10" name="ogonek"/>
	<anchor x="345" y="590" name="top"/>
	<anchor x="639" y="590" name="topright"/>
	<anchor x="355" y="0" name="bottom"/>
	<outline>
		<contour>
			<point x="609" y="0" type="line"/>
			<point x="609" y="590" type="line"/>
			<point x="429" y="590" type="line"/>
			<point x="429" y="110" type="line"/>
			<point x="459" y="0" type="line"/>
		</contour>
		<contour>
			<point x="247" y="234" type="curve" smooth="yes"/>
			<point x="247" y="590" type="line"/>
			<point x="65" y="590" type="line"/>
			<point x="65" y="240" type="line" smooth="yes"/>
			<point x="65" y="79"/>
			<point x="140" y="-16"/>
			<point x="267" y="-16" type="curve" smooth="yes"/>
			<point x="357" y="-16"/>
			<point x="423" y="35"/>
			<point x="444" y="121" type="curve"/>
			<point x="444" y="280" type="line"/>
			<point x="429" y="280" type="line"/>
			<point x="429" y="176"/>
			<point x="392" y="114"/>
			<point x="329" y="114" type="curve" smooth="yes"/>
			<point x="277" y="114"/>
			<point x="247" y="159"/>
		</contour>
	</outline>
</glyph>
<glyph name="v" format="2">
	<advance width="691"/>
	<unicode hex="0076"/>
	<outline>
		<contour>
			<point x="50" y="590" type="line"/>
			<point x="245" y="0" type="line"/>
			<point x="447" y="0" type="line"/>
			<point x="631" y="590" type="line"/>
			<point x="453" y="590" type="line"/>
			<point x="356" y="179" type="line"/>
			<point x="351" y="100" type="line"/>
			<point x="347" y="100" type="line"/>
			<point x="342" y="179" type="line"/>
			<point x="246" y="590" type="line"/>
		</contour>
	</outline>
</glyph>
<glyph name="w" format="2">
	<advance width="1048"/>
	<unicode hex="0077"/>
	<anchor x="531" y="590" name="top"/>
	<anchor x="531" y="0" name="bottom"/>
	<outline>
		<contour>
			<point x="50" y="590" type="line"/>
			<point x="223" y="0" type="line"/>
			<point x="429" y="0" type="line"/>
			<point x="516" y="383" type="line"/>
			<point x="522" y="490" type="line"/>
			<point x="528" y="490" type="line"/>
			<point x="534" y="383" type="line"/>
			<point x="620" y="0" type="line"/>
			<point x="826" y="0" type="line"/>
			<point x="988" y="590" type="line"/>
			<point x="810" y="590" type="line"/>
			<point x="735" y="179" type="line"/>
			<point x="729" y="100" type="line"/>
			<point x="723" y="100" type="line"/>
			<point x="717" y="179" type="line"/>
			<point x="624" y="590" type="line"/>
			<point x="429" y="590" type="line"/>
			<point x="338" y="179" type="line"/>
			<point x="332" y="100" type="line"/>
			<point x="326" y="100" type="line"/>
			<point x="320" y="179" type="line"/>
			<point x="246" y="590" type="line"/>
		</contour>
	</outline>
</glyph>
<glyph name="x" format="2">
	<advance width="664"/>
	<unicode hex="0078"/>
	<outline>
		<contour>
			<point x="50" y="0" type="line"/>
			<point x="226" y="0" type="line"/>
			<point x="316" y="195" type="line"/>
			<point x="322" y="255" type="line"/>
			<point x="326" y="255" type="line"/>
			<point x="334" y="195" type="line"/>
			<point x="413" y="0" type="line"/>
			<point x="604" y="0" type="line"/>
			<point x="440" y="329" type="line"/>
			<point x="564" y="590" type="line"/>
			<point x="392" y="590" type="line"/>
			<point x="332" y="432" type="line"/>
			<point x="326" y="372" type="line"/>
			<point x="322" y="372" type="line"/>
			<point x="316" y="432" type="line"/>
			<point x="256" y="590" type="line"/>
			<point x="66" y="590" type="line"/>
			<point x="208" y="311" type="line"/>
		</contour>
	</outline>
</glyph>
<glyph name="y" format="2">
	<advance width="691"/>
	<unicode hex="0079"/>
	<anchor x="347" y="590" name="top"/>
	<anchor x="319" y="0" name="bottom"/>
	<outline>
		<contour>
			<point x="50" y="590" type="line"/>
			<point x="267" y="0" type="line"/>
			<point x="214" y="-180" type="line"/>
			<point x="401" y="-180" type="line"/>
			<point x="631" y="590" type="line"/>
			<point x="453" y="590" type="line"/>
			<point x="366" y="179" type="line"/>
			<point x="361" y="100" type="line"/>
			<point x="357" y="100" type="line"/>
			<point x="352" y="179" type="line"/>
			<point x="246" y="590" type="line"/>
		</contour>
	</outline>
</glyph>
<glyph name="z" format="2">
	<advance width="600"/>
	<unicode hex="007A"/>
	<anchor x="300" y="590" name="top"/>
	<anchor x="300" y="0" name="bottom"/>
	<outline>
		<contour>
			<point x="58" y="0" type="line"/>
			<point x="542" y="0" type="line"/>
			<point x="542" y="130" type="line"/>
			<point x="259" y="130" type="line"/>
			<point x="259" y="134" type="line"/>
			<point x="299" y="162" type="line"/>
			<point x="509" y="455" type="line"/>
			<point x="509" y="590" type="line"/>
			<point x="68" y="590" type="line"/>
			<point x="68" y="460" type="line"/>
			<point x="308" y="460" type="line"/>
			<point x="308" y="456" type="line"/>
			<point x="268" y="428" type="line"/>
			<point x="58" y="137" type="line"/>
		</contour>
	</outline>
</glyph>
<glyph name="braceleft" format="2">
	<advance width="401"/>
	<unicode hex="007B"/>
	<outline>
		<contour>
			<point x="28" y="255" type="line"/>
			<point x="48" y="255" type="line" smooth="yes"/>
			<point x="92" y="255"/>
			<point x="118" y="222"/>
			<point x="118" y="165" type="curve" smooth="yes"/>
			<point x="118" y="154"/>
			<point x="117" y="134"/>
			<point x="115" y="111" type="curve" smooth="yes"/>
			<point x="111" y="56" type="line" smooth="yes"/>
			<point x="109" y="33"/>
			<point x="108" y="12"/>
			<point x="108" y="-1" type="curve" smooth="yes"/>
			<point x="108" y="-124"/>
			<point x="203" y="-196"/>
			<point x="363" y="-196" type="curve"/>
			<point x="373" y="-41" type="line"/>
			<point x="323" y="-41"/>
			<point x="293" y="-13"/>
			<point x="293" y="34" type="curve" smooth="yes"/>
			<point x="293" y="46"/>
			<point x="294" y="65"/>
			<point x="296" y="86" type="curve" smooth="yes"/>
			<point x="300" y="141" type="line" smooth="yes"/>
			<point x="302" y="165"/>
			<point x="303" y="188"/>
			<point x="303" y="205" type="curve" smooth="yes"/>
			<point x="303" y="269"/>
			<point x="267" y="311"/>
			<point x="206" y="318" type="curve"/>
			<point x="206" y="322" type="line"/>
			<point x="267" y="329"/>
			<point x="303" y="371"/>
			<point x="303" y="435" type="curve" smooth="yes"/>
			<point x="303" y="452"/>
			<point x="302" y="475"/>
			<point x="300" y="499" type="curve" smooth="yes"/>
			<point x="296" y="554" type="line" smooth="yes"/>
			<point x="294" y="575"/>
			<point x="293" y="594"/>
			<point x="293" y="606" type="curve" smooth="yes"/>
			<point x="293" y="653"/>
			<point x="323" y="681"/>
			<point x="373" y="681" type="curve"/>
			<point x="363" y="836" type="line"/>
			<point x="203" y="836"/>
			<point x="108" y="764"/>
			<point x="108" y="641" type="curve" smooth="yes"/>
			<point x="108" y="628"/>
			<point x="109" y="607"/>
			<point x="111" y="584" type="curve" smooth="yes"/>
			<point x="115" y="529" type="line" smooth="yes"/>
			<point x="117" y="506"/>
			<point x="118" y="486"/>
			<point x="118" y="475" type="curve" smooth="yes"/>
			<point x="118" y="418"/>
			<point x="92" y="385"/>
			<point x="48" y="385" type="curve" smooth="yes"/>
			<point x="28" y="385" type="line"/>
		</contour>
	</outline>
</glyph>
<glyph name="braceright" format="2">
	<advance width="401"/>
	<unicode hex="007D"/>
	<outline>
		<contour>
			<point x="373" y="255" type="line"/>
			<point x="373" y="385" type="line"/>
			<point x="353" y="385" type="line" smooth="yes"/>
			<point x="309" y="385"/>
			<point x="283" y="418"/>
			<point x="283" y="475" type="curve" smooth="yes"/>
			<point x="283" y="486"/>
			<point x="284" y="506"/>
			<point x="286" y="529" type="curve" smooth="yes"/>
			<point x="290" y="584" type="line" smooth="yes"/>
			<point x="292" y="607"/>
			<point x="293" y="628"/>
			<point x="293" y="641" type="curve" smooth="yes"/>
			<point x="293" y="764"/>
			<point x="198" y="836"/>
			<point x="38" y="836" type="curve"/>
			<point x="28" y="681" type="line"/>
			<point x="78" y="681"/>
			<point x="108" y="653"/>
			<point x="108" y="606" type="curve" smooth="yes"/>
			<point x="108" y="594"/>
			<point x="107" y="575"/>
			<point x="105" y="554" type="curve" smooth="yes"/>
			<point x="101" y="499" type="line" smooth="yes"/>
			<point x="99" y="475"/>
			<point x="98" y="452"/>
			<point x="98" y="435" type="curve" smooth="yes"/>
			<point x="98" y="371"/>
			<point x="134" y="329"/>
			<point x="195" y="322" type="curve"/>
			<point x="195" y="318" type="line"/>
			<point x="134" y="311"/>
			<point x="98" y="269"/>
			<point x="98" y="205" type="curve" smooth="yes"/>
			<point x="98" y="188"/>
			<point x="99" y="165"/>
			<point x="101" y="141" type="curve" smooth="yes"/>
			<point x="105" y="86" type="line" smooth="yes"/>
			<point x="107" y="65"/>
			<point x="108" y="46"/>
			<point x="108" y="34" type="curve" smooth="yes"/>
			<point x="108" y="-13"/>
			<point x="78" y="-41"/>
			<point x="28" y="-41" type="curve"/>
			<point x="38" y="-196" type="line"/>
			<point x="198" y="-196"/>
			<point x="293" y="-124"/>
			<point x="293" y="-1" type="curve" smooth="yes"/>
			<point x="293" y="12"/>
			<point x="292" y="33"/>
			<point x="290" y="56" type="curve" smooth="yes"/>
			<point x="286" y="111" type="line" smooth="yes"/>
			<point x="284" y="134"/>
			<point x="283" y="154"/>
			<point x="283" y="165" type="curve" smooth="yes"/>
			<point x="283" y="222"/>
			<point x="309" y="255"/>
			<point x="353" y="255" type="curve" smooth="yes"/>
		</contour>
	</outline>
</glyph>
<glyph name="cent" format="2">
	<advance width="639"/>
	<unicode hex="00A2"/>
	<outline>
		<contour>
			<point x="262" y="-120" type="line"/>
			<point x="402" y="-120" type="line"/>
			<point x="402" y="16" type="line"/>
			<point x="262" y="16" type="line"/>
		</contour>
		<contour>
			<point x="262" y="574" type="line"/>
			<point x="402" y="574" type="line"/>
			<point x="402" y="710" type="line"/>
			<point x="262" y="710" type="line"/>
		</contour>
		<component base="c"/>
	</outline>
</glyph>
<glyph name="sterling" format="2">
	<advance width="732"/>
	<unicode hex="00A3"/>
	<outline>
		<contour>
			<point x="616" y="166" type="line"/>
			<point x="606" y="166" type="line"/>
			<point x="585" y="149"/>
			<point x="553" y="139"/>
			<point x="521" y="139" type="curve" smooth="yes"/>
			<point x="502" y="139"/>
			<point x="479" y="142"/>
			<point x="460" y="146" type="curve" smooth="yes"/>
			<point x="412" y="156" type="line" smooth="yes"/>
			<point x="389" y="161"/>
			<point x="366" y="163"/>
			<point x="351" y="163" type="curve" smooth="yes"/>
			<point x="321" y="163"/>
			<point x="294" y="158"/>
			<point x="277" y="149" type="curve"/>
			<point x="274" y="154" type="line"/>
			<point x="329" y="190"/>
			<point x="361" y="244"/>
			<point x="361" y="300" type="curve" smooth="yes"/>
			<point x="361" y="328"/>
			<point x="354" y="362"/>
			<point x="343" y="392" type="curve" smooth="yes"/>
			<point x="307" y="490" type="line" smooth="yes"/>
			<point x="297" y="518"/>
			<point x="291" y="547"/>
			<point x="291" y="568" type="curve" smooth="yes"/>
			<point x="291" y="614"/>
			<point x="321" y="641"/>
			<point x="373" y="641" type="curve" smooth="yes"/>
			<point x="424" y="641"/>
			<point x="456" y="614"/>
			<point x="459" y="569" type="curve" smooth="yes"/>
			<point x="461" y="546" type="line"/>
			<point x="644" y="560" type="line"/>
			<point x="642" y="583" type="line" smooth="yes"/>
			<point x="631" y="717"/>
			<point x="531" y="796"/>
			<point x="373" y="796" type="curve" smooth="yes"/>
			<point x="205" y="796"/>
			<point x="106" y="710"/>
			<point x="106" y="565" type="curve" smooth="yes"/>
			<point x="106" y="534"/>
			<point x="114" y="494"/>
			<point x="128" y="457" type="curve" smooth="yes"/>
			<point x="161" y="368" type="line" smooth="yes"/>
			<point x="170" y="343"/>
			<point x="176" y="310"/>
			<point x="176" y="280" type="curve" smooth="yes"/>
			<point x="176" y="217"/>
			<point x="142" y="158"/>
			<point x="84" y="122" type="curve"/>
			<point x="137" y="0" type="line"/>
			<point x="143" y="0" type="line"/>
			<point x="173" y="13"/>
			<point x="213" y="20"/>
			<point x="251" y="20" type="curve" smooth="yes"/>
			<point x="282" y="20"/>
			<point x="321" y="16"/>
			<point x="357" y="8" type="curve" smooth="yes"/>
			<point x="412" y="-4" type="line" smooth="yes"/>
			<point x="448" y="-12"/>
			<point x="486" y="-16"/>
			<point x="516" y="-16" type="curve" smooth="yes"/>
			<point x="576" y="-16"/>
			<point x="632" y="0"/>
			<point x="669" y="28" type="curve" smooth="yes"/>
			<point x="673" y="31" type="line"/>
		</contour>
		<contour>
			<point x="57" y="310" type="line"/>
			<point x="487" y="310" type="line"/>
			<point x="527" y="420" type="line"/>
			<point x="97" y="420" type="line"/>
		</contour>
	</outline>
</glyph>
<glyph name="currency" format="2">
	<advance width="612"/>
	<unicode hex="00A4"/>
	<outline>
		<contour>
			<point x="246" y="139" type="line"/>
			<point x="151" y="234" type="line"/>
			<point x="32" y="115" type="line"/>
			<point x="127" y="20" type="line"/>
		</contour>
		<contour>
			<point x="127" y="568" type="line"/>
			<point x="32" y="473" type="line"/>
			<point x="151" y="354" type="line"/>
			<point x="246" y="449" type="line"/>
		</contour>
		<contour>
			<point x="306" y="84" type="curve" smooth="yes"/>
			<point x="429" y="84"/>
			<point x="516" y="171"/>
			<point x="516" y="295" type="curve" smooth="yes"/>
			<point x="516" y="417"/>
			<point x="429" y="504"/>
			<point x="306" y="504" type="curve" smooth="yes"/>
			<point x="183" y="504"/>
			<point x="96" y="417"/>
			<point x="96" y="295" type="curve" smooth="yes"/>
			<point x="96" y="171"/>
			<point x="183" y="84"/>
		</contour>
		<contour>
			<point x="306" y="204" type="curve" smooth="yes"/>
			<point x="253" y="204"/>
			<point x="216" y="241"/>
			<point x="216" y="294" type="curve" smooth="yes"/>
			<point x="216" y="347"/>
			<point x="253" y="384"/>
			<point x="306" y="384" type="curve" smooth="yes"/>
			<point x="359" y="384"/>
			<point x="396" y="347"/>
			<point x="396" y="294" type="curve" smooth="yes"/>
			<point x="396" y="241"/>
			<point x="359" y="204"/>
		</contour>
		<contour>
			<point x="461" y="234" type="line"/>
			<point x="366" y="139" type="line"/>
			<point x="485" y="20" type="line"/>
			<point x="580" y="115" type="line"/>
		</contour>
		<contour>
			<point x="580" y="473" type="line"/>
			<point x="485" y="568" type="line"/>
			<point x="366" y="449" type="line"/>
			<point x="461" y="354" type="line"/>
		</contour>
	</outline>
</glyph>
<glyph name="yen" format="2">
	<advance width="847"/>
	<unicode hex="00A5"/>
	<outline>
		<contour>
			<point x="95" y="175" type="line"/>
			<point x="745" y="175" type="line"/>
			<point x="785" y="285" type="line"/>
			<point x="135" y="285" type="line"/>
		</contour>
		<contour>
			<point x="540" y="455" type="line"/>
			<point x="540" y="345" type="line"/>
			<point x="745" y="345" type="line"/>
			<point x="785" y="455" type="line"/>
		</contour>
		<contour>
			<point x="340" y="345" type="line"/>
			<point x="340" y="455" type="line"/>
			<point x="135" y="455" type="line"/>
			<point x="95" y="345" type="line"/>
		</contour>
		<component base="Y"/>
	</outline>
</glyph>
<glyph name="brokenbar" format="2">
	<advance width="312"/>
	<unicode hex="00A6"/>
	<outline>
		<contour>
			<point x="216" y="270" type="line"/>
			<point x="96" y="270" type="line"/>
			<point x="96" y="-180" type="line"/>
			<point x="216" y="-180" type="line"/>
		</contour>
		<contour>
			<point x="96" y="370" type="line"/>
			<point x="216" y="370" type="line"/>
			<point x="216" y="820" type="line"/>
			<point x="96" y="820" type="line"/>
		</contour>
	</outline>
</glyph>
<glyph name="section" format="2">
	<advance width="650"/>
	<unicode hex="00A7"/>
	<outline>
		<contour>
			<point x="566" y="615" type="line"/>
			<point x="564" y="633" type="line" smooth="yes"/>
			<point x="553" y="735"/>
			<point x="463" y="796"/>
			<point x="323" y="796" type="curve" smooth="yes"/>
			<point x="166" y="796"/>
			<point x="74" y="729"/>
			<point x="74" y="615" type="curve" smooth="yes"/>
			<point x="74" y="591"/>
			<point x="78" y="567"/>
			<point x="86" y="545" type="curve" smooth="yes"/>
			<point x="93" y="525"/>
			<point x="106" y="505"/>
			<point x="120" y="491" type="curve" smooth="yes"/>
			<point x="141" y="469" type="line"/>
			<point x="123" y="456"/>
			<point x="105" y="436"/>
			<point x="92" y="415" type="curve" smooth="yes"/>
			<point x="80" y="396"/>
			<point x="74" y="369"/>
			<point x="74" y="345" type="curve" smooth="yes"/>
			<point x="74" y="304"/>
			<point x="91" y="261"/>
			<point x="119" y="231" type="curve" smooth="yes"/>
			<point x="150" y="198"/>
			<point x="202" y="173"/>
			<point x="279" y="156" type="curve" smooth="yes"/>
			<point x="343" y="142" type="line" smooth="yes"/>
			<point x="364" y="137"/>
			<point x="381" y="128"/>
			<point x="389" y="118" type="curve" smooth="yes"/>
			<point x="397" y="108"/>
			<point x="402" y="95"/>
			<point x="402" y="83" type="curve" smooth="yes"/>
			<point x="402" y="76" type="line" smooth="yes"/>
			<point x="402" y="40"/>
			<point x="373" y="19"/>
			<point x="324" y="19" type="curve" smooth="yes"/>
			<point x="272" y="19"/>
			<point x="238" y="46"/>
			<point x="232" y="93" type="curve" smooth="yes"/>
			<point x="230" y="110" type="line"/>
			<point x="57" y="97" type="line"/>
			<point x="59" y="80" type="line" smooth="yes"/>
			<point x="73" y="-43"/>
			<point x="171" y="-116"/>
			<point x="323" y="-116" type="curve" smooth="yes"/>
			<point x="492" y="-116"/>
			<point x="592" y="-44"/>
			<point x="592" y="77" type="curve" smooth="yes"/>
			<point x="592" y="100"/>
			<point x="589" y="122"/>
			<point x="582" y="143" type="curve" smooth="yes"/>
			<point x="574" y="167"/>
			<point x="564" y="190"/>
			<point x="548" y="208" type="curve" smooth="yes"/>
			<point x="527" y="231" type="line"/>
			<point x="544" y="241"/>
			<point x="561" y="258"/>
			<point x="573" y="277" type="curve" smooth="yes"/>
			<point x="585" y="295"/>
			<point x="592" y="321"/>
			<point x="592" y="347" type="curve" smooth="yes"/>
			<point x="592" y="389"/>
			<point x="576" y="434"/>
			<point x="548" y="468" type="curve" smooth="yes"/>
			<point x="521" y="501"/>
			<point x="465" y="528"/>
			<point x="378" y="548" type="curve" smooth="yes"/>
			<point x="312" y="563" type="line" smooth="yes"/>
			<point x="293" y="567"/>
			<point x="277" y="574"/>
			<point x="269" y="582" type="curve" smooth="yes"/>
			<point x="260" y="591"/>
			<point x="254" y="603"/>
			<point x="254" y="613" type="curve" smooth="yes"/>
			<point x="254" y="617" type="line" smooth="yes"/>
			<point x="254" y="645"/>
			<point x="282" y="661"/>
			<point x="320" y="661" type="curve" smooth="yes"/>
			<point x="356" y="661"/>
			<point x="387" y="645"/>
			<point x="391" y="619" type="curve" smooth="yes"/>
			<point x="394" y="601" type="line"/>
		</contour>
		<contour>
			<point x="254" y="361" type="curve" smooth="yes"/>
			<point x="254" y="365" type="line" smooth="yes"/>
			<point x="254" y="386"/>
			<point x="264" y="405"/>
			<point x="282" y="417" type="curve"/>
			<point x="288" y="414"/>
			<point x="304" y="410"/>
			<point x="323" y="406" type="curve" smooth="yes"/>
			<point x="342" y="402" type="line" smooth="yes"/>
			<point x="380" y="394"/>
			<point x="402" y="372"/>
			<point x="402" y="343" type="curve" smooth="yes"/>
			<point x="402" y="339" type="line" smooth="yes"/>
			<point x="402" y="316"/>
			<point x="391" y="296"/>
			<point x="372" y="286" type="curve"/>
			<point x="360" y="291"/>
			<point x="345" y="295"/>
			<point x="331" y="298" type="curve" smooth="yes"/>
			<point x="312" y="302" type="line" smooth="yes"/>
			<point x="276" y="310"/>
			<point x="254" y="331"/>
		</contour>
	</outline>
</glyph>
<glyph name="copyright" format="2">
	<advance width="932"/>
	<unicode hex="00A9"/>
	<outline>
		<contour>
			<point x="466" y="800" type="curve" smooth="yes"/>
			<point x="245" y="800"/>
			<point x="66" y="621"/>
			<point x="66" y="400" type="curve" smooth="yes"/>
			<point x="66" y="179"/>
			<point x="245" y="0"/>
			<point x="466" y="0" type="curve" smooth="yes"/>
			<point x="689" y="0"/>
			<point x="866" y="179"/>
			<point x="866" y="400" type="curve" smooth="yes"/>
			<point x="866" y="621"/>
			<point x="687" y="800"/>
		</contour>
		<contour>
			<point x="466" y="710" type="curve" smooth="yes"/>
			<point x="638" y="710"/>
			<point x="776" y="572"/>
			<point x="776" y="400" type="curve" smooth="yes"/>
			<point x="776" y="228"/>
			<point x="638" y="90"/>
			<point x="466" y="90" type="curve" smooth="yes"/>
			<point x="294" y="90"/>
			<point x="156" y="228"/>
			<point x="156" y="400" type="curve" smooth="yes"/>
			<point x="156" y="572"/>
			<point x="294" y="710"/>
		</contour>
		<contour>
			<point x="662" y="352" type="line"/>
			<point x="542" y="361" type="line"/>
			<point x="541" y="353" type="line" smooth="yes"/>
			<point x="536" y="313"/>
			<point x="512" y="290"/>
			<point x="473" y="290" type="curve" smooth="yes"/>
			<point x="423" y="290"/>
			<point x="393" y="327"/>
			<point x="393" y="389" type="curve" smooth="yes"/>
			<point x="393" y="404" type="line" smooth="yes"/>
			<point x="393" y="468"/>
			<point x="422" y="506"/>
			<point x="471" y="506" type="curve" smooth="yes"/>
			<point x="511" y="506"/>
			<point x="535" y="485"/>
			<point x="539" y="449" type="curve" smooth="yes"/>
			<point x="540" y="441" type="line"/>
			<point x="661" y="447" type="line"/>
			<point x="660" y="455" type="line" smooth="yes"/>
			<point x="650" y="548"/>
			<point x="583" y="604"/>
			<point x="471" y="604" type="curve" smooth="yes"/>
			<point x="347" y="604"/>
			<point x="273" y="530"/>
			<point x="273" y="404" type="curve" smooth="yes"/>
			<point x="273" y="395" type="line" smooth="yes"/>
			<point x="273" y="267"/>
			<point x="347" y="192"/>
			<point x="473" y="192" type="curve" smooth="yes"/>
			<point x="584" y="192"/>
			<point x="651" y="248"/>
			<point x="661" y="344" type="curve" smooth="yes"/>
		</contour>
	</outline>
</glyph>
<glyph name="ordfeminine" format="2">
	<advance width="433"/>
	<unicode hex="00AA"/>
	<outline>
		<contour>
			<point x="58" y="693" type="line"/>
			<point x="155" y="691" type="line"/>
			<point x="156" y="699" type="line" smooth="yes"/>
			<point x="159" y="720"/>
			<point x="177" y="733"/>
			<point x="205" y="733" type="curve" smooth="yes"/>
			<point x="235" y="733"/>
			<point x="253" y="712"/>
			<point x="253" y="677" type="curve" smooth="yes"/>
			<point x="253" y="511" type="line" smooth="yes"/>
			<point x="253" y="482"/>
			<point x="257" y="457"/>
			<point x="263" y="444" type="curve"/>
			<point x="372" y="444" type="line"/>
			<point x="373" y="447" type="line"/>
			<point x="366" y="469"/>
			<point x="362" y="495"/>
			<point x="362" y="517" type="curve" smooth="yes"/>
			<point x="362" y="680" type="line" smooth="yes"/>
			<point x="362" y="763"/>
			<point x="306" y="812"/>
			<point x="210" y="812" type="curve" smooth="yes"/>
			<point x="118" y="812"/>
			<point x="67" y="771"/>
			<point x="59" y="702" type="curve" smooth="yes"/>
		</contour>
		<contour>
			<point x="274" y="581" type="line"/>
			<point x="253" y="581" type="line"/>
			<point x="253" y="538"/>
			<point x="230" y="514"/>
			<point x="192" y="514" type="curve" smooth="yes"/>
			<point x="166" y="514"/>
			<point x="150" y="528"/>
			<point x="150" y="551" type="curve" smooth="yes"/>
			<point x="150" y="554" type="line" smooth="yes"/>
			<point x="150" y="577"/>
			<point x="165" y="593"/>
			<point x="189" y="596" type="curve" smooth="yes"/>
			<point x="274" y="606" type="line"/>
			<point x="274" y="668" type="line"/>
			<point x="166" y="654" type="line" smooth="yes"/>
			<point x="87" y="644"/>
			<point x="40" y="602"/>
			<point x="40" y="542" type="curve" smooth="yes"/>
			<point x="40" y="538" type="line" smooth="yes"/>
			<point x="40" y="474"/>
			<point x="84" y="435"/>
			<point x="159" y="435" type="curve" smooth="yes"/>
			<point x="221" y="435"/>
			<point x="264" y="477"/>
			<point x="274" y="548" type="curve"/>
		</contour>
		<contour>
			<point x="67" y="371" type="line"/>
			<point x="67" y="293" type="line"/>
			<point x="353" y="293" type="line"/>
			<point x="353" y="371" type="line"/>
		</contour>
	</outline>
</glyph>
<glyph name="registered" format="2">
	<advance width="556"/>
	<unicode hex="00AE"/>
	<outline>
		<contour>
			<point x="278" y="349" type="curve" smooth="yes"/>
			<point x="405" y="349"/>
			<point x="508" y="452"/>
			<point x="508" y="579" type="curve" smooth="yes"/>
			<point x="508" y="706"/>
			<point x="405" y="809"/>
			<point x="278" y="809" type="curve" smooth="yes"/>
			<point x="151" y="809"/>
			<point x="48" y="706"/>
			<point x="48" y="579" type="curve" smooth="yes"/>
			<point x="48" y="452"/>
			<point x="151" y="349"/>
		</contour>
		<contour>
			<point x="278" y="404" type="curve" smooth="yes"/>
			<point x="182" y="404"/>
			<point x="103" y="483"/>
			<point x="103" y="579" type="curve" smooth="yes"/>
			<point x="103" y="675"/>
			<point x="182" y="754"/>
			<point x="278" y="754" type="curve" smooth="yes"/>
			<point x="374" y="754"/>
			<point x="453" y="675"/>
			<point x="453" y="579" type="curve" smooth="yes"/>
			<point x="453" y="483"/>
			<point x="374" y="404"/>
		</contour>
		<contour>
			<point x="188" y="472" type="line"/>
			<point x="254" y="472" type="line"/>
			<point x="254" y="538" type="line"/>
			<point x="293" y="538" type="line"/>
			<point x="318" y="472" type="line"/>
			<point x="390" y="472" type="line"/>
			<point x="361" y="539" type="line" smooth="yes"/>
			<point x="358" y="546"/>
			<point x="352" y="552"/>
			<point x="344" y="555" type="curve"/>
			<point x="344" y="559" type="line"/>
			<point x="365" y="568"/>
			<point x="378" y="588"/>
			<point x="378" y="613" type="curve" smooth="yes"/>
			<point x="378" y="615" type="line" smooth="yes"/>
			<point x="378" y="663"/>
			<point x="344" y="692"/>
			<point x="288" y="692" type="curve" smooth="yes"/>
			<point x="188" y="692" type="line"/>
		</contour>
		<contour>
			<point x="254" y="593" type="line"/>
			<point x="254" y="637" type="line"/>
			<point x="288" y="637" type="line" smooth="yes"/>
			<point x="302" y="637"/>
			<point x="310" y="629"/>
			<point x="310" y="614" type="curve" smooth="yes"/>
			<point x="310" y="613" type="line" smooth="yes"/>
			<point x="310" y="600"/>
			<point x="302" y="593"/>
			<point x="288" y="593" type="curve" smooth="yes"/>
		</contour>
	</outline>
</glyph>
<glyph name="degree" format="2">
	<advance width="344"/>
	<unicode hex="00B0"/>
	<outline>
		<contour>
			<point x="172" y="442" type="curve" smooth="yes"/>
			<point x="255" y="442"/>
			<point x="322" y="510"/>
			<point x="322" y="592" type="curve" smooth="yes"/>
			<point x="322" y="675"/>
			<point x="255" y="742"/>
			<point x="172" y="742" type="curve" smooth="yes"/>
			<point x="89" y="742"/>
			<point x="22" y="675"/>
			<point x="22" y="592" type="curve" smooth="yes"/>
			<point x="22" y="510"/>
			<point x="89" y="442"/>
		</contour>
		<contour>
			<point x="172" y="522" type="curve" smooth="yes"/>
			<point x="135" y="522"/>
			<point x="102" y="555"/>
			<point x="102" y="592" type="curve" smooth="yes"/>
			<point x="102" y="631"/>
			<point x="135" y="662"/>
			<point x="172" y="662" type="curve" smooth="yes"/>
			<point x="211" y="662"/>
			<point x="242" y="631"/>
			<point x="242" y="592" type="curve" smooth="yes"/>
			<point x="242" y="555"/>
			<point x="211" y="522"/>
		</contour>
	</outline>
</glyph>
<glyph name="ordmasculine" format="2">
	<advance width="444"/>
	<unicode hex="00BA"/>
	<guideline x="673" y="439" angle="0"/>
	<outline>
		<contour>
			<point x="40" y="623" type="line" smooth="yes"/>
			<point x="40" y="508"/>
			<point x="105" y="439"/>
			<point x="215" y="439" type="curve" smooth="yes"/>
			<point x="323" y="439"/>
			<point x="388" y="507"/>
			<point x="388" y="623" type="curve" smooth="yes"/>
			<point x="388" y="630" type="line" smooth="yes"/>
			<point x="388" y="745"/>
			<point x="323" y="814"/>
			<point x="213" y="814" type="curve" smooth="yes"/>
			<point x="105" y="814"/>
			<point x="40" y="746"/>
			<point x="40" y="630" type="curve" smooth="yes"/>
		</contour>
		<contour>
			<point x="150" y="620" type="curve" smooth="yes"/>
			<point x="150" y="630" type="line" smooth="yes"/>
			<point x="150" y="696"/>
			<point x="174" y="736"/>
			<point x="213" y="736" type="curve" smooth="yes"/>
			<point x="254" y="736"/>
			<point x="278" y="698"/>
			<point x="278" y="633" type="curve" smooth="yes"/>
			<point x="278" y="623" type="line" smooth="yes"/>
			<point x="278" y="557"/>
			<point x="254" y="517"/>
			<point x="215" y="517" type="curve" smooth="yes"/>
			<point x="174" y="517"/>
			<point x="150" y="555"/>
		</contour>
		<contour>
			<point x="91" y="371" type="line"/>
			<point x="91" y="293" type="line"/>
			<point x="337" y="293" type="line"/>
			<point x="337" y="371" type="line"/>
		</contour>
	</outline>
</glyph>
<glyph name="AE" format="2">
	<advance width="1134"/>
	<unicode hex="00C6"/>
	<outline>
		<contour>
			<point x="52" y="0" type="line"/>
			<point x="239" y="0" type="line"/>
			<point x="453" y="645" type="line"/>
			<point x="524" y="645" type="line"/>
			<point x="524" y="0" type="line"/>
			<point x="1069" y="0" type="line"/>
			<point x="1069" y="155" type="line"/>
			<point x="709" y="155" type="line"/>
			<point x="709" y="350" type="line"/>
			<point x="1019" y="350" type="line"/>
			<point x="1019" y="505" type="line"/>
			<point x="709" y="505" type="line"/>
			<point x="709" y="645" type="line"/>
			<point x="1049" y="645" type="line"/>
			<point x="1049" y="800" type="line"/>
			<point x="331" y="800" type="line"/>
		</contour>
		<contour>
			<point x="254" y="305" type="line"/>
			<point x="254" y="150" type="line"/>
			<point x="689" y="150" type="line"/>
			<point x="689" y="305" type="line"/>
		</contour>
	</outline>
</glyph>
<glyph name="Oslash" format="2">
	<advance width="822"/>
	<unicode hex="00D8"/>
	<outline>
		<contour>
			<point x="853" y="602" type="line"/>
			<point x="853" y="720" type="line"/>
			<point x="10" y="198" type="line"/>
			<point x="10" y="80" type="line"/>
		</contour>
		<component base="O"/>
	</outline>
</glyph>
<glyph name="Thorn" format="2">
	<advance width="771"/>
	<unicode hex="00DE"/>
	<outline>
		<contour>
			<point x="96" y="0" type="line"/>
			<point x="281" y="0" type="line"/>
			<point x="281" y="160" type="line"/>
			<point x="427" y="160" type="line" smooth="yes"/>
			<point x="602" y="160"/>
			<point x="705" y="251"/>
			<point x="705" y="404" type="curve" smooth="yes"/>
			<point x="705" y="414" type="line" smooth="yes"/>
			<point x="705" y="569"/>
			<point x="602" y="660"/>
			<point x="427" y="660" type="curve" smooth="yes"/>
			<point x="281" y="660" type="line"/>
			<point x="281" y="800" type="line"/>
			<point x="96" y="800" type="line"/>
		</contour>
		<contour>
			<point x="281" y="315" type="line"/>
			<point x="281" y="505" type="line"/>
			<point x="417" y="505" type="line" smooth="yes"/>
			<point x="479" y="505"/>
			<point x="515" y="471"/>
			<point x="515" y="413" type="curve" smooth="yes"/>
			<point x="515" y="404" type="line" smooth="yes"/>
			<point x="515" y="348"/>
			<point x="479" y="315"/>
			<point x="417" y="315" type="curve" smooth="yes"/>
		</contour>
	</outline>
</glyph>
<glyph name="germandbls" format="2">
	<advance width="726"/>
	<unicode hex="00DF"/>
	<outline>
		<contour>
			<point x="397" y="-16" type="curve" smooth="yes"/>
			<point x="566" y="-16"/>
			<point x="666" y="78"/>
			<point x="666" y="237" type="curve" smooth="yes"/>
			<point x="666" y="248" type="line" smooth="yes"/>
			<point x="666" y="361"/>
			<point x="590" y="442"/>
			<point x="461" y="466" type="curve"/>
			<point x="461" y="470" type="line"/>
			<point x="559" y="482"/>
			<point x="617" y="537"/>
			<point x="617" y="618" type="curve" smooth="yes"/>
			<point x="617" y="623" type="line" smooth="yes"/>
			<point x="617" y="757"/>
			<point x="522" y="836"/>
			<point x="360" y="836" type="curve" smooth="yes"/>
			<point x="175" y="836"/>
			<point x="65" y="745"/>
			<point x="65" y="590" type="curve" smooth="yes"/>
			<point x="65" y="-60" type="line"/>
			<point x="245" y="-60" type="line"/>
			<point x="245" y="585" type="line" smooth="yes"/>
			<point x="245" y="661"/>
			<point x="284" y="706"/>
			<point x="350" y="706" type="curve" smooth="yes"/>
			<point x="411" y="706"/>
			<point x="447" y="675"/>
			<point x="447" y="623" type="curve" smooth="yes"/>
			<point x="447" y="618" type="line" smooth="yes"/>
			<point x="447" y="563"/>
			<point x="414" y="531"/>
			<point x="359" y="531" type="curve" smooth="yes"/>
			<point x="322" y="531" type="line"/>
			<point x="322" y="401" type="line"/>
			<point x="358" y="401" type="line" smooth="yes"/>
			<point x="438" y="401"/>
			<point x="486" y="346"/>
			<point x="486" y="254" type="curve" smooth="yes"/>
			<point x="486" y="237" type="line" smooth="yes"/>
			<point x="486" y="160"/>
			<point x="446" y="114"/>
			<point x="378" y="114" type="curve" smooth="yes"/>
			<point x="348" y="114"/>
			<point x="318" y="119"/>
			<point x="296" y="128" type="curve"/>
			<point x="296" y="0" type="line"/>
			<point x="322" y="-10"/>
			<point x="360" y="-16"/>
		</contour>
	</outline>
</glyph>
<glyph name="ae" format="2">
	<advance width="999"/>
	<unicode hex="00E6"/>
	<outline>
		<contour>
			<point x="40" y="155" type="line" smooth="yes"/>
			<point x="40" y="48"/>
			<point x="117" y="-16"/>
			<point x="246" y="-16" type="curve" smooth="yes"/>
			<point x="374" y="-16"/>
			<point x="467" y="61"/>
			<point x="496" y="191" type="curve"/>
			<point x="496" y="281" type="line"/>
			<point x="391" y="281" type="line"/>
			<point x="391" y="225" type="line"/>
			<point x="391" y="155"/>
			<point x="358" y="114"/>
			<point x="301" y="114" type="curve" smooth="yes"/>
			<point x="251" y="114"/>
			<point x="222" y="137"/>
			<point x="222" y="175" type="curve" smooth="yes"/>
			<point x="222" y="180" type="line" smooth="yes"/>
			<point x="222" y="217"/>
			<point x="249" y="244"/>
			<point x="296" y="250" type="curve" smooth="yes"/>
			<point x="426" y="267" type="line"/>
			<point x="426" y="368" type="line"/>
			<point x="247" y="345" type="line" smooth="yes"/>
			<point x="117" y="328"/>
			<point x="40" y="259"/>
			<point x="40" y="160" type="curve" smooth="yes"/>
		</contour>
		<contour>
			<point x="64" y="410" type="line"/>
			<point x="243" y="406" type="line"/>
			<point x="245" y="420" type="line" smooth="yes"/>
			<point x="250" y="455"/>
			<point x="278" y="476"/>
			<point x="319" y="476" type="curve" smooth="yes"/>
			<point x="364" y="476"/>
			<point x="391" y="441"/>
			<point x="391" y="383" type="curve" smooth="yes"/>
			<point x="391" y="330" type="line" smooth="yes"/>
			<point x="391" y="113"/>
			<point x="498" y="-16"/>
			<point x="680" y="-16" type="curve" smooth="yes"/>
			<point x="828" y="-16"/>
			<point x="922" y="60"/>
			<point x="933" y="189" type="curve" smooth="yes"/>
			<point x="934" y="201" type="line"/>
			<point x="767" y="207" type="line"/>
			<point x="765" y="189" type="line" smooth="yes"/>
			<point x="760" y="142"/>
			<point x="729" y="114"/>
			<point x="681" y="114" type="curve" smooth="yes"/>
			<point x="613" y="114"/>
			<point x="573" y="174"/>
			<point x="573" y="276" type="curve" smooth="yes"/>
			<point x="573" y="331" type="line" smooth="yes"/>
			<point x="573" y="422"/>
			<point x="613" y="476"/>
			<point x="682" y="476" type="curve" smooth="yes"/>
			<point x="739" y="476"/>
			<point x="773" y="425"/>
			<point x="773" y="339" type="curve" smooth="yes"/>
			<point x="773" y="322" type="line"/>
			<point x="805" y="366" type="line"/>
			<point x="495" y="366" type="line"/>
			<point x="495" y="266" type="line"/>
			<point x="943" y="266" type="line"/>
			<point x="943" y="286" type="line" smooth="yes"/>
			<point x="943" y="487"/>
			<point x="850" y="606"/>
			<point x="693" y="606" type="curve" smooth="yes"/>
			<point x="596" y="606"/>
			<point x="524" y="561"/>
			<point x="498" y="485" type="curve"/>
			<point x="494" y="485" type="line"/>
			<point x="471" y="561"/>
			<point x="399" y="606"/>
			<point x="300" y="606" type="curve" smooth="yes"/>
			<point x="160" y="606"/>
			<point x="73" y="538"/>
			<point x="65" y="424" type="curve" smooth="yes"/>
		</contour>
	</outline>
</glyph>
<glyph name="eth" format="2">
	<advance width="710"/>
	<unicode hex="00F0"/>
	<outline>
		<contour>
			<point x="40" y="301" type="curve" smooth="yes"/>
			<point x="40" y="290" type="line" smooth="yes"/>
			<point x="40" y="98"/>
			<point x="145" y="-16"/>
			<point x="323" y="-16" type="curve" smooth="yes"/>
			<point x="500" y="-16"/>
			<point x="604" y="105"/>
			<point x="604" y="310" type="curve" smooth="yes"/>
			<point x="604" y="524" type="line" smooth="yes"/>
			<point x="604" y="598"/>
			<point x="587" y="685"/>
			<point x="557" y="760" type="curve" smooth="yes"/>
			<point x="533" y="820" type="line"/>
			<point x="344" y="820" type="line"/>
			<point x="400" y="667" type="line" smooth="yes"/>
			<point x="415" y="626"/>
			<point x="424" y="573"/>
			<point x="424" y="524" type="curve" smooth="yes"/>
			<point x="424" y="310" type="line" smooth="yes"/>
			<point x="424" y="187"/>
			<point x="385" y="114"/>
			<point x="319" y="114" type="curve" smooth="yes"/>
			<point x="258" y="114"/>
			<point x="222" y="177"/>
			<point x="222" y="284" type="curve" smooth="yes"/>
			<point x="222" y="301" type="line" smooth="yes"/>
			<point x="222" y="411"/>
			<point x="261" y="476"/>
			<point x="327" y="476" type="curve" smooth="yes"/>
			<point x="388" y="476"/>
			<point x="424" y="414"/>
			<point x="424" y="310" type="curve"/>
			<point x="439" y="310" type="line"/>
			<point x="439" y="469" type="line"/>
			<point x="418" y="555"/>
			<point x="351" y="606"/>
			<point x="259" y="606" type="curve" smooth="yes"/>
			<point x="121" y="606"/>
			<point x="40" y="493"/>
		</contour>
		<contour>
			<point x="274" y="636" type="line"/>
			<point x="654" y="693" type="line"/>
			<point x="654" y="794" type="line"/>
			<point x="274" y="737" type="line"/>
		</contour>
	</outline>
</glyph>
<glyph name="oslash" format="2">
	<advance width="691"/>
	<unicode hex="00F8"/>
	<outline>
		<contour>
			<point x="0" y="72" type="line"/>
			<point x="676" y="407" type="line"/>
			<point x="676" y="519" type="line"/>
			<point x="0" y="184" type="line"/>
		</contour>
		<component base="o"/>
	</outline>
</glyph>
<glyph name="dcroat" format="2">
	<advance width="668"/>
	<unicode hex="0111"/>
	<outline>
		<contour>
			<point x="294" y="660" type="line"/>
			<point x="654" y="660" type="line"/>
			<point x="694" y="760" type="line"/>
			<point x="334" y="760" type="line"/>
		</contour>
		<component base="d"/>
	</outline>
</glyph>
<glyph name="Hbar" format="2">
	<advance width="852"/>
	<unicode hex="0126"/>
	<outline>
		<contour>
			<point x="61" y="700" type="line"/>
			<point x="21" y="590" type="line"/>
			<point x="791" y="590" type="line"/>
			<point x="831" y="700" type="line"/>
		</contour>
		<component base="H"/>
	</outline>
</glyph>
<glyph name="hbar" format="2">
	<advance width="688"/>
	<unicode hex="0127"/>
	<outline>
		<contour>
			<point x="-6" y="660" type="line"/>
			<point x="354" y="660" type="line"/>
			<point x="394" y="760" type="line"/>
			<point x="34" y="760" type="line"/>
		</contour>
		<component base="h" xOffset="4"/>
	</outline>
</glyph>
<glyph name="idotless" format="2">
	<advance width="320"/>
	<unicode hex="0131"/>
	<anchor x="245" y="10" name="ogonek"/>
	<anchor x="155" y="0" name="bottom"/>
	<anchor x="155" y="590" name="top"/>
	<outline>
		<contour>
			<point x="65" y="590" type="line"/>
			<point x="65" y="0" type="line"/>
			<point x="245" y="0" type="line"/>
			<point x="245" y="590" type="line"/>
		</contour>
	</outline>
</glyph>
<glyph name="Lslash" format="2">
	<advance width="717"/>
	<unicode hex="0141"/>
	<outline>
		<contour>
			<point x="50" y="276" type="line"/>
			<point x="430" y="413" type="line"/>
			<point x="430" y="520" type="line"/>
			<point x="50" y="383" type="line"/>
		</contour>
		<component base="L" xOffset="25"/>
	</outline>
</glyph>
<glyph name="lslash" format="2">
	<advance width="335"/>
	<unicode hex="0142"/>
	<outline>
		<contour>
			<point x="-30" y="276" type="line"/>
			<point x="350" y="413" type="line"/>
			<point x="350" y="520" type="line"/>
			<point x="-30" y="383" type="line"/>
		</contour>
		<component base="l"/>
	</outline>
</glyph>
<glyph name="Eng" format="2">
	<advance width="893"/>
	<unicode hex="014A"/>
	<outline>
		<contour>
			<point x="797" y="76" type="line"/>
			<point x="612" y="76" type="line"/>
			<point x="612" y="32" type="line" smooth="yes"/>
			<point x="612" y="-14"/>
			<point x="563" y="-41"/>
			<point x="479" y="-41" type="curve" smooth="yes"/>
			<point x="446" y="-41"/>
			<point x="410" y="-33"/>
			<point x="382" y="-20" type="curve"/>
			<point x="382" y="-170" type="line"/>
			<point x="417" y="-186"/>
			<point x="468" y="-196"/>
			<point x="520" y="-196" type="curve" smooth="yes"/>
			<point x="694" y="-196"/>
			<point x="797" y="-123"/>
			<point x="797" y="0" type="curve" smooth="yes"/>
		</contour>
		<component base="N"/>
	</outline>
</glyph>
<glyph name="eng" format="2">
	<advance width="689"/>
	<unicode hex="014B"/>
	<outline>
		<contour>
			<point x="614" y="100" type="line"/>
			<point x="432" y="100" type="line"/>
			<point x="432" y="3" type="line" smooth="yes"/>
			<point x="432" y="-33"/>
			<point x="412" y="-55"/>
			<point x="376" y="-55" type="curve" smooth="yes"/>
			<point x="355" y="-55"/>
			<point x="332" y="-53"/>
			<point x="314" y="-49" type="curve"/>
			<point x="314" y="-180" type="line"/>
			<point x="344" y="-187"/>
			<point x="384" y="-191"/>
			<point x="422" y="-191" type="curve" smooth="yes"/>
			<point x="543" y="-191"/>
			<point x="614" y="-119"/>
			<point x="614" y="3" type="curve" smooth="yes"/>
		</contour>
		<component base="n"/>
	</outline>
</glyph>
<glyph name="OE" format="2">
	<advance width="1221"/>
	<unicode hex="0152"/>
	<outline>
		<contour>
			<point x="66" y="394" type="line" smooth="yes"/>
			<point x="66" y="136"/>
			<point x="195" y="-16"/>
			<point x="412" y="-16" type="curve" smooth="yes"/>
			<point x="503" y="-16"/>
			<point x="575" y="15"/>
			<point x="607" y="68" type="curve"/>
			<point x="611" y="68" type="line"/>
			<point x="611" y="0" type="line"/>
			<point x="1156" y="0" type="line"/>
			<point x="1156" y="155" type="line"/>
			<point x="796" y="155" type="line"/>
			<point x="796" y="350" type="line"/>
			<point x="1106" y="350" type="line"/>
			<point x="1106" y="505" type="line"/>
			<point x="796" y="505" type="line"/>
			<point x="796" y="645" type="line"/>
			<point x="1136" y="645" type="line"/>
			<point x="1136" y="800" type="line"/>
			<point x="611" y="800" type="line"/>
			<point x="611" y="731" type="line"/>
			<point x="607" y="731" type="line"/>
			<point x="575" y="784"/>
			<point x="502" y="816"/>
			<point x="410" y="816" type="curve" smooth="yes"/>
			<point x="194" y="816"/>
			<point x="66" y="665"/>
			<point x="66" y="409" type="curve" smooth="yes"/>
		</contour>
		<contour>
			<point x="256" y="386" type="curve" smooth="yes"/>
			<point x="256" y="409" type="line" smooth="yes"/>
			<point x="256" y="567"/>
			<point x="320" y="661"/>
			<point x="429" y="661" type="curve" smooth="yes"/>
			<point x="540" y="661"/>
			<point x="606" y="570"/>
			<point x="606" y="415" type="curve" smooth="yes"/>
			<point x="606" y="392" type="line" smooth="yes"/>
			<point x="606" y="233"/>
			<point x="542" y="139"/>
			<point x="433" y="139" type="curve" smooth="yes"/>
			<point x="322" y="139"/>
			<point x="256" y="231"/>
		</contour>
	</outline>
</glyph>
<glyph name="oe" format="2">
	<advance width="1042"/>
	<unicode hex="0153"/>
	<outline>
		<contour>
			<point x="40" y="290" type="line" smooth="yes"/>
			<point x="40" y="98"/>
			<point x="137" y="-16"/>
			<point x="319" y="-16" type="curve" smooth="yes"/>
			<point x="423" y="-16"/>
			<point x="499" y="28"/>
			<point x="523" y="102" type="curve"/>
			<point x="527" y="102" type="line"/>
			<point x="552" y="28"/>
			<point x="629" y="-16"/>
			<point x="733" y="-16" type="curve" smooth="yes"/>
			<point x="882" y="-16"/>
			<point x="965" y="60"/>
			<point x="976" y="189" type="curve" smooth="yes"/>
			<point x="977" y="201" type="line"/>
			<point x="810" y="207" type="line"/>
			<point x="808" y="189" type="line" smooth="yes"/>
			<point x="803" y="142"/>
			<point x="772" y="114"/>
			<point x="724" y="114" type="curve" smooth="yes"/>
			<point x="656" y="114"/>
			<point x="616" y="174"/>
			<point x="616" y="276" type="curve" smooth="yes"/>
			<point x="616" y="331" type="line" smooth="yes"/>
			<point x="616" y="422"/>
			<point x="656" y="476"/>
			<point x="725" y="476" type="curve" smooth="yes"/>
			<point x="782" y="476"/>
			<point x="816" y="425"/>
			<point x="816" y="339" type="curve" smooth="yes"/>
			<point x="816" y="322" type="line"/>
			<point x="848" y="366" type="line"/>
			<point x="538" y="366" type="line"/>
			<point x="538" y="266" type="line"/>
			<point x="986" y="266" type="line"/>
			<point x="986" y="286" type="line" smooth="yes"/>
			<point x="986" y="487"/>
			<point x="893" y="606"/>
			<point x="736" y="606" type="curve" smooth="yes"/>
			<point x="623" y="606"/>
			<point x="545" y="558"/>
			<point x="527" y="478" type="curve"/>
			<point x="523" y="478" type="line"/>
			<point x="505" y="558"/>
			<point x="428" y="606"/>
			<point x="317" y="606" type="curve" smooth="yes"/>
			<point x="143" y="606"/>
			<point x="40" y="493"/>
			<point x="40" y="301" type="curve" smooth="yes"/>
		</contour>
		<contour>
			<point x="222" y="284" type="curve" smooth="yes"/>
			<point x="222" y="301" type="line" smooth="yes"/>
			<point x="222" y="411"/>
			<point x="261" y="476"/>
			<point x="326" y="476" type="curve" smooth="yes"/>
			<point x="394" y="476"/>
			<point x="434" y="413"/>
			<point x="434" y="306" type="curve" smooth="yes"/>
			<point x="434" y="289" type="line" smooth="yes"/>
			<point x="434" y="179"/>
			<point x="395" y="114"/>
			<point x="330" y="114" type="curve" smooth="yes"/>
			<point x="262" y="114"/>
			<point x="222" y="177"/>
		</contour>
	</outline>
</glyph>
<glyph name="Tbar" format="2">
	<advance width="757"/>
	<unicode hex="0166"/>
	<outline>
		<contour>
			<point x="166" y="490" type="line"/>
			<point x="126" y="380" type="line"/>
			<point x="616" y="380" type="line"/>
			<point x="656" y="490" type="line"/>
		</contour>
		<component base="T"/>
	</outline>
</glyph>
<glyph name="tbar" format="2">
	<advance width="548"/>
	<unicode hex="0167"/>
	<outline>
		<contour>
			<point x="45" y="270" type="line"/>
			<point x="405" y="270" type="line"/>
			<point x="445" y="370" type="line"/>
			<point x="85" y="370" type="line"/>
		</contour>
		<component base="t" xOffset="33"/>
	</outline>
</glyph>
<glyph name="jdotless" format="2">
	<advance width="325"/>
	<unicode hex="0237"/>
	<anchor x="160" y="590" name="top"/>
	<anchor x="160" y="-180" name="bottom"/>
	<outline>
		<contour>
			<point x="250" y="3" type="curve" smooth="yes"/>
			<point x="250" y="590" type="line"/>
			<point x="70" y="590" type="line"/>
			<point x="70" y="3" type="line" smooth="yes"/>
			<point x="70" y="-33"/>
			<point x="48" y="-55"/>
			<point x="12" y="-55" type="curve" smooth="yes"/>
			<point x="-9" y="-55"/>
			<point x="-32" y="-53"/>
			<point x="-50" y="-49" type="curve"/>
			<point x="-50" y="-180" type="line"/>
			<point x="-20" y="-187"/>
			<point x="20" y="-191"/>
			<point x="58" y="-191" type="curve" smooth="yes"/>
			<point x="179" y="-191"/>
			<point x="250" y="-119"/>
		</contour>
	</outline>
</glyph>
<glyph name="gravecomb" format="2">
	<advance width="182"/>
	<unicode hex="0300"/>
	<anchor x="101" y="800" name="top"/>
	<anchor x="117" y="590" name="_top"/>
	<outline>
		<contour>
			<point x="141" y="820" type="line"/>
			<point x="-35" y="820" type="line"/>
			<point x="107" y="670" type="line"/>
			<point x="210" y="670" type="line"/>
		</contour>
	</outline>
</glyph>
<glyph name="acutecomb" format="2">
	<advance width="182"/>
	<unicode hex="0301"/>
	<anchor x="81" y="800" name="top"/>
	<anchor x="65" y="590" name="_top"/>
	<outline>
		<contour>
			<point x="34" y="820" type="line"/>
			<point x="-35" y="670" type="line"/>
			<point x="68" y="670" type="line"/>
			<point x="210" y="820" type="line"/>
		</contour>
	</outline>
</glyph>
<glyph name="circumflexcomb" format="2">
	<advance width="374"/>
	<unicode hex="0302"/>
	<anchor x="188" y="800" name="top"/>
	<anchor x="188" y="590" name="_top"/>
	<outline>
		<contour>
			<point x="0" y="660" type="line"/>
			<point x="133" y="660" type="line"/>
			<point x="179" y="724" type="line"/>
			<point x="185" y="746" type="line"/>
			<point x="189" y="746" type="line"/>
			<point x="195" y="724" type="line"/>
			<point x="241" y="660" type="line"/>
			<point x="374" y="660" type="line"/>
			<point x="245" y="820" type="line"/>
			<point x="129" y="820" type="line"/>
		</contour>
	</outline>
</glyph>
<glyph name="tildecomb" format="2">
	<advance width="420"/>
	<unicode hex="0303"/>
	<anchor x="210" y="771" name="top"/>
	<anchor x="210" y="590" name="_top"/>
	<outline>
		<contour>
			<point x="0" y="674" type="curve"/>
			<point x="70" y="664" type="line"/>
			<point x="76" y="701"/>
			<point x="98" y="723"/>
			<point x="128" y="723" type="curve" smooth="yes"/>
			<point x="141" y="723"/>
			<point x="157" y="718"/>
			<point x="171" y="710" type="curve" smooth="yes"/>
			<point x="224" y="679" type="line" smooth="yes"/>
			<point x="246" y="666"/>
			<point x="275" y="658"/>
			<point x="301" y="658" type="curve" smooth="yes"/>
			<point x="373" y="658"/>
			<point x="417" y="712"/>
			<point x="420" y="798" type="curve"/>
			<point x="350" y="808" type="line"/>
			<point x="344" y="771"/>
			<point x="322" y="749"/>
			<point x="292" y="749" type="curve" smooth="yes"/>
			<point x="279" y="749"/>
			<point x="263" y="754"/>
			<point x="249" y="762" type="curve" smooth="yes"/>
			<point x="196" y="793" type="line" smooth="yes"/>
			<point x="174" y="806"/>
			<point x="145" y="814"/>
			<point x="119" y="814" type="curve" smooth="yes"/>
			<point x="47" y="814"/>
			<point x="3" y="760"/>
		</contour>
	</outline>
</glyph>
<glyph name="macroncomb" format="2">
	<advance width="338"/>
	<unicode hex="0304"/>
	<anchor x="169" y="760" name="top"/>
	<anchor x="169" y="590" name="_top"/>
	<outline>
		<contour>
			<point x="14" y="760" type="line"/>
			<point x="14" y="670" type="line"/>
			<point x="324" y="670" type="line"/>
			<point x="324" y="760" type="line"/>
		</contour>
	</outline>
</glyph>
<glyph name="brevecomb" format="2">
	<advance width="312"/>
	<unicode hex="0306"/>
	<anchor x="156" y="800" name="top"/>
	<anchor x="156" y="590" name="_top"/>
	<outline>
		<contour>
			<point x="336" y="775" type="curve"/>
			<point x="236" y="785" type="line"/>
			<point x="236" y="747"/>
			<point x="206" y="725"/>
			<point x="156" y="725" type="curve" smooth="yes"/>
			<point x="106" y="725"/>
			<point x="76" y="747"/>
			<point x="76" y="785" type="curve"/>
			<point x="-24" y="775" type="line"/>
			<point x="-24" y="693"/>
			<point x="43" y="645"/>
			<point x="156" y="645" type="curve" smooth="yes"/>
			<point x="269" y="645"/>
			<point x="336" y="693"/>
		</contour>
	</outline>
</glyph>
<glyph name="dotaccentcomb" format="2">
	<advance width="248"/>
	<unicode hex="0307"/>
	<anchor x="124" y="780" name="top"/>
	<anchor x="124" y="590" name="_top"/>
	<outline>
		<contour>
			<point x="34" y="800" type="line"/>
			<point x="34" y="680" type="line"/>
			<point x="214" y="680" type="line"/>
			<point x="214" y="800" type="line"/>
		</contour>
	</outline>
</glyph>
<glyph name="dieresiscomb" format="2">
	<advance width="368"/>
	<unicode hex="0308"/>
	<anchor x="184" y="780" name="top"/>
	<anchor x="184" y="590" name="_top"/>
	<outline>
		<contour>
			<point x="34" y="800" type="line"/>
			<point x="34" y="680" type="line"/>
			<point x="154" y="680" type="line"/>
			<point x="154" y="800" type="line"/>
		</contour>
		<contour>
			<point x="214" y="800" type="line"/>
			<point x="214" y="680" type="line"/>
			<point x="334" y="680" type="line"/>
			<point x="334" y="800" type="line"/>
		</contour>
	</outline>
</glyph>
<glyph name="ringcomb" format="2">
	<advance width="228"/>
	<unicode hex="030A"/>
	<anchor x="114" y="816" name="top"/>
	<anchor x="114" y="590" name="_top"/>
	<outline>
		<contour>
			<point x="114" y="636" type="curve" smooth="yes"/>
			<point x="174" y="636"/>
			<point x="209" y="669"/>
			<point x="209" y="726" type="curve" smooth="yes"/>
			<point x="209" y="783"/>
			<point x="174" y="816"/>
			<point x="114" y="816" type="curve" smooth="yes"/>
			<point x="54" y="816"/>
			<point x="19" y="783"/>
			<point x="19" y="726" type="curve" smooth="yes"/>
			<point x="19" y="669"/>
			<point x="54" y="636"/>
		</contour>
		<contour>
			<point x="114" y="686" type="curve" smooth="yes"/>
			<point x="89" y="686"/>
			<point x="74" y="701"/>
			<point x="74" y="726" type="curve" smooth="yes"/>
			<point x="74" y="751"/>
			<point x="89" y="766"/>
			<point x="114" y="766" type="curve" smooth="yes"/>
			<point x="139" y="766"/>
			<point x="154" y="751"/>
			<point x="154" y="726" type="curve" smooth="yes"/>
			<point x="154" y="701"/>
			<point x="139" y="686"/>
		</contour>
	</outline>
</glyph>
<glyph name="hungarumlautcomb" format="2">
	<advance width="332"/>
	<unicode hex="030B"/>
	<anchor x="166" y="800" name="top"/>
	<anchor x="166" y="590" name="_top"/>
	<outline>
		<contour>
			<point x="21" y="820" type="line"/>
			<point x="-48" y="670" type="line"/>
			<point x="55" y="670" type="line"/>
			<point x="197" y="820" type="line"/>
		</contour>
		<contour>
			<point x="244" y="820" type="line"/>
			<point x="175" y="670" type="line"/>
			<point x="278" y="670" type="line"/>
			<point x="420" y="820" type="line"/>
		</contour>
	</outline>
</glyph>
<glyph name="commaaccentcomb" format="2">
	<advance width="113"/>
	<unicode hex="0326"/>
	<anchor x="54" y="0" name="_bottom"/>
	<anchor x="54" y="-180" name="bottom"/>
	<outline>
		<contour>
			<point x="18" y="-260" type="line"/>
			<point x="76" y="-260" type="line"/>
			<point x="124" y="-166" type="line"/>
			<point x="124" y="-50" type="line"/>
			<point x="-16" y="-50" type="line"/>
			<point x="-16" y="-166" type="line"/>
			<point x="44" y="-166" type="line"/>
		</contour>
	</outline>
</glyph>
<glyph name="cedillacomb" format="2">
	<advance width="174"/>
	<unicode hex="0327"/>
	<anchor x="61" y="0" name="_bottom"/>
	<anchor x="61" y="-172" name="bottom"/>
	<outline>
		<contour>
			<point x="38" y="20" type="line"/>
			<point x="38" y="-22"/>
			<point x="32" y="-56"/>
			<point x="21" y="-73" type="curve"/>
			<point x="36" y="-93" type="line"/>
			<point x="72" y="-93" type="line" smooth="yes"/>
			<point x="102" y="-93"/>
			<point x="119" y="-102"/>
			<point x="119" y="-118" type="curve" smooth="yes"/>
			<point x="119" y="-134"/>
			<point x="102" y="-143"/>
			<point x="72" y="-143" type="curve" smooth="yes"/>
			<point x="50" y="-143"/>
			<point x="25" y="-140"/>
			<point x="5" y="-134" type="curve"/>
			<point x="-7" y="-184" type="line"/>
			<point x="18" y="-192"/>
			<point x="49" y="-196"/>
			<point x="77" y="-196" type="curve" smooth="yes"/>
			<point x="150" y="-196"/>
			<point x="193" y="-169"/>
			<point x="193" y="-122" type="curve" smooth="yes"/>
			<point x="193" y="-75"/>
			<point x="160" y="-48"/>
			<point x="104" y="-48" type="curve"/>
			<point x="109" y="-28"/>
			<point x="112" y="-3"/>
			<point x="112" y="20" type="curve"/>
		</contour>
	</outline>
</glyph>
<glyph name="ogonekcomb" format="2">
	<advance width="174"/>
	<unicode hex="0328"/>
	<anchor x="139" y="10" name="_ogonek"/>
	<outline>
		<contour>
			<point x="139" y="0" type="curve"/>
			<point x="129" y="20" type="line"/>
			<point x="50" y="20" type="line"/>
			<point x="18" y="-13"/>
			<point x="-1" y="-50"/>
			<point x="-1" y="-79" type="curve" smooth="yes"/>
			<point x="-1" y="-137"/>
			<point x="34" y="-172"/>
			<point x="92" y="-172" type="curve" smooth="yes"/>
			<point x="117" y="-172"/>
			<point x="140" y="-169"/>
			<point x="154" y="-164" type="curve"/>
			<point x="154" y="-106" type="line"/>
			<point x="147" y="-109"/>
			<point x="137" y="-111"/>
			<point x="129" y="-111" type="curve" smooth="yes"/>
			<point x="109" y="-111"/>
			<point x="97" y="-98"/>
			<point x="97" y="-76" type="curve" smooth="yes"/>
			<point x="97" y="-48"/>
			<point x="113" y="-19"/>
		</contour>
	</outline>
</glyph>
<glyph name="endash" format="2">
	<advance width="786"/>
	<unicode hex="2013"/>
	<outline>
		<contour>
			<point x="68" y="238" type="line"/>
			<point x="718" y="238" type="line"/>
			<point x="718" y="368" type="line"/>
			<point x="68" y="368" type="line"/>
		</contour>
	</outline>
</glyph>
<glyph name="guilsinglleft" format="2">
	<advance width="360"/>
	<unicode hex="2039"/>
	<outline>
		<contour>
			<point x="178" y="503" type="line"/>
			<point x="48" y="290" type="line"/>
			<point x="178" y="77" type="line"/>
			<point x="312" y="77" type="line"/>
			<point x="192" y="290" type="line"/>
			<point x="312" y="503" type="line"/>
		</contour>
	</outline>
</glyph>
<glyph name="guilsinglright" format="2">
	<advance width="360"/>
	<unicode hex="203A"/>
	<outline>
		<contour>
			<point x="182" y="503" type="line"/>
			<point x="48" y="503" type="line"/>
			<point x="168" y="290" type="line"/>
			<point x="48" y="77" type="line"/>
			<point x="182" y="77" type="line"/>
			<point x="312" y="290" type="line"/>
		</contour>
	</outline>
</glyph>
<glyph name="euro" format="2">
	<advance width="860"/>
	<unicode hex="20AC"/>
	<outline>
		<contour>
			<point x="801" y="291" type="line"/>
			<point x="621" y="302" type="line"/>
			<point x="619" y="286" type="line" smooth="yes"/>
			<point x="607" y="194"/>
			<point x="551" y="139"/>
			<point x="467" y="139" type="curve" smooth="yes"/>
			<point x="356" y="139"/>
			<point x="290" y="231"/>
			<point x="290" y="386" type="curve" smooth="yes"/>
			<point x="290" y="409" type="line" smooth="yes"/>
			<point x="290" y="567"/>
			<point x="354" y="661"/>
			<point x="463" y="661" type="curve" smooth="yes"/>
			<point x="541" y="661"/>
			<point x="597" y="615"/>
			<point x="613" y="537" type="curve" smooth="yes"/>
			<point x="617" y="518" type="line"/>
			<point x="797" y="532" type="line"/>
			<point x="794" y="550" type="line" smooth="yes"/>
			<point x="766" y="717"/>
			<point x="643" y="816"/>
			<point x="464" y="816" type="curve" smooth="yes"/>
			<point x="235" y="816"/>
			<point x="100" y="665"/>
			<point x="100" y="409" type="curve" smooth="yes"/>
			<point x="100" y="394" type="line" smooth="yes"/>
			<point x="100" y="136"/>
			<point x="236" y="-16"/>
			<point x="466" y="-16" type="curve" smooth="yes"/>
			<point x="655" y="-16"/>
			<point x="779" y="91"/>
			<point x="799" y="273" type="curve" smooth="yes"/>
		</contour>
		<contour>
			<point x="15" y="255" type="line"/>
			<point x="445" y="255" type="line"/>
			<point x="485" y="365" type="line"/>
			<point x="55" y="365" type="line"/>
		</contour>
		<contour>
			<point x="15" y="425" type="line"/>
			<point x="445" y="425" type="line"/>
			<point x="485" y="535" type="line"/>
			<point x="55" y="535" type="line"/>
		</contour>
	</outline>
</glyph>
<glyph name="trademark" format="2">
	<advance width="642"/>
	<unicode hex="2122"/>
	<outline>
		<contour>
			<point x="34" y="820" type="line"/>
			<point x="34" y="763" type="line"/>
			<point x="106" y="763" type="line"/>
			<point x="106" y="590" type="line"/>
			<point x="175" y="590" type="line"/>
			<point x="175" y="763" type="line"/>
			<point x="247" y="763" type="line"/>
			<point x="247" y="820" type="line"/>
		</contour>
		<contour>
			<point x="609" y="590" type="line"/>
			<point x="609" y="820" type="line"/>
			<point x="504" y="820" type="line"/>
			<point x="451" y="691" type="line"/>
			<point x="447" y="670" type="line"/>
			<point x="443" y="670" type="line"/>
			<point x="439" y="691" type="line"/>
			<point x="384" y="820" type="line"/>
			<point x="285" y="820" type="line"/>
			<point x="285" y="590" type="line"/>
			<point x="344" y="590" type="line"/>
			<point x="344" y="737" type="line"/>
			<point x="342" y="759" type="line"/>
			<point x="346" y="759" type="line"/>
			<point x="352" y="737" type="line"/>
			<point x="416" y="590" type="line"/>
			<point x="472" y="590" type="line"/>
			<point x="533" y="737" type="line"/>
			<point x="538" y="759" type="line"/>
			<point x="542" y="759" type="line"/>
			<point x="540" y="737" type="line"/>
			<point x="540" y="590" type="line"/>
		</contour>
	</outline>
</glyph>
<glyph name="lozenge" format="2">
	<advance width="787"/>
	<unicode hex="25CA"/>
	<outline>
		<contour>
			<point x="66" y="400" type="line"/>
			<point x="286" y="0" type="line"/>
			<point x="501" y="0" type="line"/>
			<point x="721" y="400" type="line"/>
			<point x="501" y="800" type="line"/>
			<point x="286" y="800" type="line"/>
		</contour>
		<contour>
			<point x="541" y="400" type="line"/>
			<point x="408" y="149" type="line"/>
			<point x="396" y="104" type="line"/>
			<point x="391" y="104" type="line"/>
			<point x="379" y="149" type="line"/>
			<point x="246" y="400" type="line"/>
			<point x="379" y="651" type="line"/>
			<point x="391" y="696" type="line"/>
			<point x="396" y="696" type="line"/>
			<point x="408" y="651" type="line"/>
		</contour>
	</outline>
</glyph>
<glyph name="G.ss02" format="2">
	<advance width="812"/>
	<anchor x="406" y="800" name="top"/>
	<anchor x="406" y="0" name="bottom"/>
	<outline>
		<contour>
			<point x="777" y="435" type="line"/>
			<point x="441" y="435" type="line"/>
			<point x="441" y="315" type="line"/>
			<point x="595" y="315" type="line"/>
			<point x="595" y="296" type="line" smooth="yes"/>
			<point x="595" y="194"/>
			<point x="539" y="134"/>
			<point x="443" y="134" type="curve" smooth="yes"/>
			<point x="325" y="134"/>
			<point x="256" y="228"/>
			<point x="256" y="386" type="curve" smooth="yes"/>
			<point x="256" y="409" type="line" smooth="yes"/>
			<point x="256" y="571"/>
			<point x="320" y="666"/>
			<point x="429" y="666" type="curve" smooth="yes"/>
			<point x="509" y="666"/>
			<point x="564" y="626"/>
			<point x="579" y="557" type="curve" smooth="yes"/>
			<point x="583" y="538" type="line"/>
			<point x="763" y="552" type="line"/>
			<point x="760" y="570" type="line" smooth="yes"/>
			<point x="734" y="725"/>
			<point x="618" y="816"/>
			<point x="430" y="816" type="curve" smooth="yes"/>
			<point x="201" y="816"/>
			<point x="66" y="665"/>
			<point x="66" y="409" type="curve" smooth="yes"/>
			<point x="66" y="394" type="line" smooth="yes"/>
			<point x="66" y="136"/>
			<point x="198" y="-16"/>
			<point x="422" y="-16" type="curve" smooth="yes"/>
			<point x="548" y="-16"/>
			<point x="639" y="38"/>
			<point x="667" y="130" type="curve"/>
			<point x="671" y="130" type="line"/>
			<point x="697" y="0" type="line"/>
			<point x="777" y="0" type="line"/>
		</contour>
	</outline>
</glyph>
<glyph name="J.ss03" format="2">
	<advance width="563"/>
	<outline>
		<contour>
			<point x="467" y="253" type="curve" smooth="yes"/>
			<point x="467" y="800" type="line"/>
			<point x="282" y="800" type="line"/>
			<point x="282" y="262" type="line" smooth="yes"/>
			<point x="282" y="188"/>
			<point x="236" y="139"/>
			<point x="149" y="139" type="curve" smooth="yes"/>
			<point x="116" y="139"/>
			<point x="80" y="147"/>
			<point x="52" y="160" type="curve"/>
			<point x="52" y="10" type="line"/>
			<point x="87" y="-6"/>
			<point x="138" y="-16"/>
			<point x="190" y="-16" type="curve" smooth="yes"/>
			<point x="367" y="-16"/>
			<point x="467" y="93"/>
		</contour>
	</outline>
</glyph>
<glyph name="K.ss04" format="2">
	<advance width="757"/>
	<anchor x="374" y="800" name="top"/>
	<anchor x="374" y="0" name="bottom"/>
	<outline>
		<contour>
			<point x="96" y="0" type="line"/>
			<point x="281" y="0" type="line"/>
			<point x="281" y="363" type="line"/>
			<point x="276" y="403" type="line"/>
			<point x="280" y="403" type="line"/>
			<point x="296" y="363" type="line"/>
			<point x="506" y="0" type="line"/>
			<point x="716" y="0" type="line"/>
			<point x="455" y="437" type="line"/>
			<point x="689" y="800" type="line"/>
			<point x="481" y="800" type="line"/>
			<point x="296" y="504" type="line"/>
			<point x="280" y="467" type="line"/>
			<point x="276" y="467" type="line"/>
			<point x="281" y="504" type="line"/>
			<point x="281" y="800" type="line"/>
			<point x="96" y="800" type="line"/>
		</contour>
	</outline>
</glyph>
<glyph name="R.ss05" format="2">
	<advance width="839"/>
	<anchor x="364" y="800" name="top"/>
	<anchor x="364" y="0" name="bottom"/>
	<outline>
		<contour>
			<point x="96" y="0" type="line"/>
			<point x="281" y="0" type="line"/>
			<point x="281" y="310" type="line"/>
			<point x="462" y="310" type="line" smooth="yes"/>
			<point x="511" y="310"/>
			<point x="540" y="278"/>
			<point x="540" y="223" type="curve" smooth="yes"/>
			<point x="540" y="100" type="line" smooth="yes"/>
			<point x="540" y="65"/>
			<point x="550" y="28"/>
			<point x="567" y="0" type="curve"/>
			<point x="751" y="0" type="line"/>
			<point x="753" y="4" type="line"/>
			<point x="735" y="32"/>
			<point x="725" y="71"/>
			<point x="725" y="109" type="curve" smooth="yes"/>
			<point x="725" y="223" type="line" smooth="yes"/>
			<point x="725" y="313"/>
			<point x="690" y="378"/>
			<point x="631" y="398" type="curve"/>
			<point x="631" y="402" type="line"/>
			<point x="690" y="422"/>
			<point x="725" y="477"/>
			<point x="725" y="549" type="curve" smooth="yes"/>
			<point x="725" y="559" type="line" smooth="yes"/>
			<point x="725" y="710"/>
			<point x="622" y="800"/>
			<point x="447" y="800" type="curve" smooth="yes"/>
			<point x="96" y="800" type="line"/>
		</contour>
		<contour>
			<point x="281" y="465" type="line"/>
			<point x="281" y="645" type="line"/>
			<point x="437" y="645" type="line" smooth="yes"/>
			<point x="499" y="645"/>
			<point x="535" y="613"/>
			<point x="535" y="558" type="curve" smooth="yes"/>
			<point x="535" y="549" type="line" smooth="yes"/>
			<point x="535" y="496"/>
			<point x="499" y="465"/>
			<point x="437" y="465" type="curve" smooth="yes"/>
		</contour>
	</outline>
</glyph>
<glyph name="a.sc" format="2">
	<advance width="774"/>
	<anchor x="733" y="10" name="ogonek"/>
	<anchor x="393" y="0" name="bottom"/>
	<anchor x="393" y="620" name="top"/>
	<outline>
		<contour>
			<point x="733" y="0" type="line"/>
			<point x="500" y="620" type="line"/>
			<point x="292" y="620" type="line"/>
			<point x="52" y="0" type="line"/>
			<point x="235" y="0" type="line"/>
			<point x="375" y="387" type="line"/>
			<point x="391" y="450" type="line"/>
			<point x="395" y="450" type="line"/>
			<point x="411" y="387" type="line"/>
			<point x="541" y="0" type="line"/>
		</contour>
		<contour>
			<point x="205" y="240" type="line"/>
			<point x="205" y="110" type="line"/>
			<point x="570" y="110" type="line"/>
			<point x="570" y="240" type="line"/>
		</contour>
	</outline>
</glyph>
<glyph name="a.ss01" format="2">
	<advance width="682"/>
	<anchor x="620" y="10" name="ogonek"/>
	<anchor x="369" y="0" name="bottom"/>
	<anchor x="369" y="590" name="top"/>
	<outline>
		<contour>
			<point x="424" y="110" type="line" smooth="yes"/>
			<point x="424" y="64"/>
			<point x="430" y="23"/>
			<point x="441" y="0" type="curve"/>
			<point x="620" y="0" type="line"/>
			<point x="622" y="4" type="line"/>
			<point x="611" y="39"/>
			<point x="604" y="82"/>
			<point x="604" y="119" type="curve" smooth="yes"/>
			<point x="604" y="590" type="line"/>
			<point x="454" y="590" type="line"/>
			<point x="424" y="480" type="line"/>
		</contour>
		<contour>
			<point x="439" y="469" type="line"/>
			<point x="418" y="555"/>
			<point x="351" y="606"/>
			<point x="259" y="606" type="curve" smooth="yes"/>
			<point x="121" y="606"/>
			<point x="40" y="493"/>
			<point x="40" y="301" type="curve" smooth="yes"/>
			<point x="40" y="290" type="line" smooth="yes"/>
			<point x="40" y="98"/>
			<point x="121" y="-16"/>
			<point x="257" y="-16" type="curve" smooth="yes"/>
			<point x="350" y="-16"/>
			<point x="418" y="35"/>
			<point x="439" y="121" type="curve"/>
			<point x="439" y="280" type="line"/>
			<point x="424" y="280" type="line"/>
			<point x="424" y="176"/>
			<point x="385" y="114"/>
			<point x="319" y="114" type="curve" smooth="yes"/>
			<point x="258" y="114"/>
			<point x="222" y="177"/>
			<point x="222" y="284" type="curve" smooth="yes"/>
			<point x="222" y="301" type="line" smooth="yes"/>
			<point x="222" y="411"/>
			<point x="261" y="476"/>
			<point x="327" y="476" type="curve" smooth="yes"/>
			<point x="388" y="476"/>
			<point x="424" y="414"/>
			<point x="424" y="310" type="curve"/>
			<point x="439" y="310" type="line"/>
		</contour>
	</outline>
</glyph>
<glyph name="ae.sc" format="2">
	<advance width="1025"/>
	<outline>
		<contour>
			<point x="52" y="0" type="line"/>
			<point x="256" y="0" type="line"/>
			<point x="458" y="465" type="line"/>
			<point x="475" y="465" type="line"/>
			<point x="475" y="0" type="line"/>
			<point x="960" y="0" type="line"/>
			<point x="960" y="155" type="line"/>
			<point x="660" y="155" type="line"/>
			<point x="660" y="250" type="line"/>
			<point x="910" y="250" type="line"/>
			<point x="910" y="385" type="line"/>
			<point x="660" y="385" type="line"/>
			<point x="660" y="465" type="line"/>
			<point x="940" y="465" type="line"/>
			<point x="940" y="620" type="line"/>
			<point x="334" y="620" type="line"/>
		</contour>
		<contour>
			<point x="226" y="230" type="line"/>
			<point x="226" y="100" type="line"/>
			<point x="521" y="100" type="line"/>
			<point x="521" y="230" type="line"/>
		</contour>
	</outline>
</glyph>
<glyph name="b.sc" format="2">
	<advance width="702"/>
	<outline>
		<contour>
			<point x="65" y="0" type="line"/>
			<point x="396" y="0" type="line" smooth="yes"/>
			<point x="534" y="0"/>
			<point x="616" y="66"/>
			<point x="616" y="177" type="curve" smooth="yes"/>
			<point x="616" y="182" type="line" smooth="yes"/>
			<point x="616" y="262"/>
			<point x="570" y="321"/>
			<point x="491" y="342" type="curve"/>
			<point x="491" y="346" type="line"/>
			<point x="538" y="365"/>
			<point x="566" y="408"/>
			<point x="566" y="462" type="curve" smooth="yes"/>
			<point x="566" y="467" type="line" smooth="yes"/>
			<point x="566" y="563"/>
			<point x="495" y="620"/>
			<point x="376" y="620" type="curve" smooth="yes"/>
			<point x="65" y="620" type="line"/>
		</contour>
		<contour>
			<point x="250" y="140" type="line"/>
			<point x="250" y="255" type="line"/>
			<point x="366" y="255" type="line" smooth="yes"/>
			<point x="407" y="255"/>
			<point x="431" y="233"/>
			<point x="431" y="200" type="curve" smooth="yes"/>
			<point x="431" y="195" type="line" smooth="yes"/>
			<point x="431" y="159"/>
			<point x="407" y="140"/>
			<point x="366" y="140" type="curve" smooth="yes"/>
		</contour>
		<contour>
			<point x="250" y="385" type="line"/>
			<point x="250" y="480" type="line"/>
			<point x="346" y="480" type="line" smooth="yes"/>
			<point x="381" y="480"/>
			<point x="401" y="463"/>
			<point x="401" y="435" type="curve" smooth="yes"/>
			<point x="401" y="430" type="line" smooth="yes"/>
			<point x="401" y="402"/>
			<point x="381" y="385"/>
			<point x="346" y="385" type="curve" smooth="yes"/>
		</contour>
	</outline>
</glyph>
<glyph name="c.sc" format="2">
	<advance width="711"/>
	<anchor x="346" y="620" name="top"/>
	<anchor x="346" y="0" name="bottom"/>
	<outline>
		<contour>
			<point x="655" y="237" type="line"/>
			<point x="464" y="251" type="line"/>
			<point x="463" y="239" type="line" smooth="yes"/>
			<point x="458" y="176"/>
			<point x="419" y="139"/>
			<point x="357" y="139" type="curve" smooth="yes"/>
			<point x="277" y="139"/>
			<point x="230" y="197"/>
			<point x="230" y="296" type="curve" smooth="yes"/>
			<point x="230" y="319" type="line" smooth="yes"/>
			<point x="230" y="421"/>
			<point x="276" y="481"/>
			<point x="353" y="481" type="curve" smooth="yes"/>
			<point x="416" y="481"/>
			<point x="456" y="448"/>
			<point x="461" y="391" type="curve" smooth="yes"/>
			<point x="462" y="379" type="line"/>
			<point x="654" y="388" type="line"/>
			<point x="653" y="400" type="line" smooth="yes"/>
			<point x="640" y="548"/>
			<point x="529" y="636"/>
			<point x="354" y="636" type="curve" smooth="yes"/>
			<point x="157" y="636"/>
			<point x="40" y="518"/>
			<point x="40" y="319" type="curve" smooth="yes"/>
			<point x="40" y="304" type="line" smooth="yes"/>
			<point x="40" y="103"/>
			<point x="157" y="-16"/>
			<point x="356" y="-16" type="curve" smooth="yes"/>
			<point x="531" y="-16"/>
			<point x="641" y="74"/>
			<point x="654" y="225" type="curve" smooth="yes"/>
		</contour>
	</outline>
</glyph>
<glyph name="circumflexcomb.alt" format="2">
	<advance width="286"/>
	<anchor x="143" y="800" name="top"/>
	<anchor x="143" y="590" name="_top"/>
	<outline>
		<contour>
			<point x="0" y="660" type="line"/>
			<point x="120" y="660" type="line"/>
			<point x="139" y="731" type="line"/>
			<point x="141" y="757" type="line"/>
			<point x="145" y="757" type="line"/>
			<point x="147" y="731" type="line"/>
			<point x="166" y="660" type="line"/>
			<point x="286" y="660" type="line"/>
			<point x="237" y="790" type="line"/>
			<point x="49" y="790" type="line"/>
		</contour>
	</outline>
</glyph>
<glyph name="d.sc" format="2">
	<advance width="705"/>
	<anchor x="370" y="310" name="center"/>
	<anchor x="340" y="0" name="bottom"/>
	<anchor x="340" y="620" name="top"/>
	<outline>
		<contour>
			<point x="65" y="0" type="line"/>
			<point x="325" y="0" type="line" smooth="yes"/>
			<point x="529" y="0"/>
			<point x="649" y="112"/>
			<point x="649" y="302" type="curve" smooth="yes"/>
			<point x="649" y="317" type="line" smooth="yes"/>
			<point x="649" y="507"/>
			<point x="528" y="620"/>
			<point x="323" y="620" type="curve" smooth="yes"/>
			<point x="65" y="620" type="line"/>
		</contour>
		<contour>
			<point x="250" y="155" type="line"/>
			<point x="250" y="465" type="line"/>
			<point x="322" y="465" type="line" smooth="yes"/>
			<point x="408" y="465"/>
			<point x="459" y="413"/>
			<point x="459" y="325" type="curve" smooth="yes"/>
			<point x="459" y="302" type="line" smooth="yes"/>
			<point x="459" y="210"/>
			<point x="410" y="155"/>
			<point x="326" y="155" type="curve" smooth="yes"/>
		</contour>
	</outline>
</glyph>
<glyph name="dieresiscomb.alt" format="2">
	<advance width="348"/>
	<anchor x="174" y="780" name="top"/>
	<anchor x="174" y="590" name="_top"/>
	<outline>
		<contour>
			<point x="56" y="780" type="line"/>
			<point x="56" y="660" type="line"/>
			<point x="161" y="660" type="line"/>
			<point x="161" y="780" type="line"/>
		</contour>
		<contour>
			<point x="211" y="780" type="line"/>
			<point x="211" y="660" type="line"/>
			<point x="316" y="660" type="line"/>
			<point x="316" y="780" type="line"/>
		</contour>
	</outline>
</glyph>
<glyph name="e.sc" format="2">
	<advance width="645"/>
	<anchor x="550" y="10" name="ogonek"/>
	<anchor x="304" y="620" name="top"/>
	<anchor x="15" y="620" name="topleft"/>
	<anchor x="304" y="0" name="bottom"/>
	<outline>
		<contour>
			<point x="65" y="0" type="line"/>
			<point x="580" y="0" type="line"/>
			<point x="580" y="155" type="line"/>
			<point x="250" y="155" type="line"/>
			<point x="250" y="250" type="line"/>
			<point x="530" y="250" type="line"/>
			<point x="530" y="385" type="line"/>
			<point x="250" y="385" type="line"/>
			<point x="250" y="465" type="line"/>
			<point x="560" y="465" type="line"/>
			<point x="560" y="620" type="line"/>
			<point x="65" y="620" type="line"/>
		</contour>
	</outline>
</glyph>
<glyph name="eng.sc" format="2">
	<advance width="834"/>
	<outline>
		<contour>
			<point x="738" y="156" type="line"/>
			<point x="553" y="156" type="line"/>
			<point x="553" y="32" type="line" smooth="yes"/>
			<point x="553" y="-14"/>
			<point x="504" y="-41"/>
			<point x="420" y="-41" type="curve" smooth="yes"/>
			<point x="387" y="-41"/>
			<point x="351" y="-33"/>
			<point x="323" y="-20" type="curve"/>
			<point x="323" y="-170" type="line"/>
			<point x="358" y="-186"/>
			<point x="409" y="-196"/>
			<point x="461" y="-196" type="curve" smooth="yes"/>
			<point x="635" y="-196"/>
			<point x="738" y="-123"/>
			<point x="738" y="0" type="curve" smooth="yes"/>
		</contour>
		<component base="n.sc" xOffset="31"/>
	</outline>
</glyph>
<glyph name="f.sc" format="2">
	<advance width="620"/>
	<outline>
		<contour>
			<point x="65" y="0" type="line"/>
			<point x="250" y="0" type="line"/>
			<point x="250" y="230" type="line"/>
			<point x="520" y="230" type="line"/>
			<point x="520" y="365" type="line"/>
			<point x="250" y="365" type="line"/>
			<point x="250" y="465" type="line"/>
			<point x="550" y="465" type="line"/>
			<point x="550" y="620" type="line"/>
			<point x="65" y="620" type="line"/>
		</contour>
	</outline>
</glyph>
<glyph name="f_f" format="2">
	<advance width="915"/>
	<outline>
		<contour>
			<point x="145" y="0" type="line"/>
			<point x="325" y="0" type="line"/>
			<point x="325" y="637" type="line" smooth="yes"/>
			<point x="325" y="673"/>
			<point x="347" y="695"/>
			<point x="383" y="695" type="curve" smooth="yes"/>
			<point x="404" y="695"/>
			<point x="427" y="693"/>
			<point x="445" y="689" type="curve"/>
			<point x="445" y="820" type="line"/>
			<point x="415" y="827"/>
			<point x="375" y="831"/>
			<point x="337" y="831" type="curve" smooth="yes"/>
			<point x="216" y="831"/>
			<point x="145" y="759"/>
			<point x="145" y="637" type="curve" smooth="yes"/>
		</contour>
		<contour>
			<point x="545" y="0" type="line"/>
			<point x="725" y="0" type="line"/>
			<point x="725" y="637" type="line" smooth="yes"/>
			<point x="725" y="673"/>
			<point x="747" y="695"/>
			<point x="783" y="695" type="curve" smooth="yes"/>
			<point x="804" y="695"/>
			<point x="827" y="693"/>
			<point x="845" y="689" type="curve"/>
			<point x="845" y="820" type="line"/>
			<point x="815" y="827"/>
			<point x="775" y="831"/>
			<point x="737" y="831" type="curve" smooth="yes"/>
			<point x="616" y="831"/>
			<point x="545" y="759"/>
			<point x="545" y="637" type="curve" smooth="yes"/>
		</contour>
		<contour>
			<point x="45" y="460" type="line"/>
			<point x="845" y="460" type="line"/>
			<point x="845" y="590" type="line"/>
			<point x="45" y="590" type="line"/>
		</contour>
	</outline>
</glyph>
<glyph name="f_f_jdotless" format="2">
	<advance width="1200"/>
	<anchor x="1035" y="590" name="top"/>
	<anchor x="1035" y="-180" name="bottom"/>
	<outline>
		<contour>
			<point x="145" y="0" type="line"/>
			<point x="325" y="0" type="line"/>
			<point x="325" y="637" type="line" smooth="yes"/>
			<point x="325" y="673"/>
			<point x="347" y="695"/>
			<point x="383" y="695" type="curve" smooth="yes"/>
			<point x="404" y="695"/>
			<point x="427" y="693"/>
			<point x="445" y="689" type="curve"/>
			<point x="445" y="820" type="line"/>
			<point x="415" y="827"/>
			<point x="375" y="831"/>
			<point x="337" y="831" type="curve" smooth="yes"/>
			<point x="216" y="831"/>
			<point x="145" y="759"/>
			<point x="145" y="637" type="curve" smooth="yes"/>
		</contour>
		<contour>
			<point x="545" y="0" type="line"/>
			<point x="725" y="0" type="line"/>
			<point x="725" y="637" type="line" smooth="yes"/>
			<point x="725" y="673"/>
			<point x="747" y="695"/>
			<point x="783" y="695" type="curve" smooth="yes"/>
			<point x="804" y="695"/>
			<point x="827" y="693"/>
			<point x="845" y="689" type="curve"/>
			<point x="845" y="820" type="line"/>
			<point x="815" y="827"/>
			<point x="775" y="831"/>
			<point x="737" y="831" type="curve" smooth="yes"/>
			<point x="616" y="831"/>
			<point x="545" y="759"/>
			<point x="545" y="637" type="curve" smooth="yes"/>
		</contour>
		<contour>
			<point x="45" y="460" type="line"/>
			<point x="945" y="460" type="line"/>
			<point x="945" y="3" type="line" smooth="yes"/>
			<point x="945" y="-33"/>
			<point x="923" y="-55"/>
			<point x="887" y="-55" type="curve" smooth="yes"/>
			<point x="866" y="-55"/>
			<point x="843" y="-53"/>
			<point x="825" y="-49" type="curve"/>
			<point x="825" y="-180" type="line"/>
			<point x="855" y="-187"/>
			<point x="895" y="-191"/>
			<point x="933" y="-191" type="curve" smooth="yes"/>
			<point x="1054" y="-191"/>
			<point x="1125" y="-119"/>
			<point x="1125" y="3" type="curve" smooth="yes"/>
			<point x="1125" y="590" type="line"/>
			<point x="45" y="590" type="line"/>
		</contour>
	</outline>
</glyph>
<glyph name="f_f_t" format="2">
	<advance width="1315"/>
	<anchor x="1035" y="295" name="center"/>
	<anchor x="1035" y="590" name="top"/>
	<anchor x="1175" y="820" name="topright"/>
	<anchor x="1142" y="0" name="bottom"/>
	<outline>
		<contour>
			<point x="145" y="0" type="line"/>
			<point x="325" y="0" type="line"/>
			<point x="325" y="637" type="line" smooth="yes"/>
			<point x="325" y="673"/>
			<point x="347" y="695"/>
			<point x="383" y="695" type="curve" smooth="yes"/>
			<point x="404" y="695"/>
			<point x="427" y="693"/>
			<point x="445" y="689" type="curve"/>
			<point x="445" y="820" type="line"/>
			<point x="415" y="827"/>
			<point x="375" y="831"/>
			<point x="337" y="831" type="curve" smooth="yes"/>
			<point x="216" y="831"/>
			<point x="145" y="759"/>
			<point x="145" y="637" type="curve" smooth="yes"/>
		</contour>
		<contour>
			<point x="545" y="0" type="line"/>
			<point x="725" y="0" type="line"/>
			<point x="725" y="637" type="line" smooth="yes"/>
			<point x="725" y="673"/>
			<point x="747" y="695"/>
			<point x="783" y="695" type="curve" smooth="yes"/>
			<point x="804" y="695"/>
			<point x="827" y="693"/>
			<point x="845" y="689" type="curve"/>
			<point x="845" y="820" type="line"/>
			<point x="815" y="827"/>
			<point x="775" y="831"/>
			<point x="737" y="831" type="curve" smooth="yes"/>
			<point x="616" y="831"/>
			<point x="545" y="759"/>
			<point x="545" y="637" type="curve" smooth="yes"/>
		</contour>
		<contour>
			<point x="945" y="183" type="line" smooth="yes"/>
			<point x="945" y="61"/>
			<point x="1018" y="-11"/>
			<point x="1142" y="-11" type="curve" smooth="yes"/>
			<point x="1177" y="-11"/>
			<point x="1215" y="-7"/>
			<point x="1245" y="0" type="curve"/>
			<point x="1245" y="131" type="line"/>
			<point x="1228" y="127"/>
			<point x="1206" y="125"/>
			<point x="1187" y="125" type="curve" smooth="yes"/>
			<point x="1148" y="125"/>
			<point x="1125" y="147"/>
			<point x="1125" y="183" type="curve" smooth="yes"/>
			<point x="1125" y="770" type="line"/>
			<point x="1055" y="770" type="line"/>
			<point x="945" y="674" type="line"/>
		</contour>
		<contour>
			<point x="45" y="590" type="line"/>
			<point x="45" y="460" type="line"/>
			<point x="1245" y="460" type="line"/>
			<point x="1245" y="590" type="line"/>
		</contour>
	</outline>
</glyph>
<glyph name="f_f_tbar" format="2">
	<advance width="1315"/>
	<outline>
		<contour>
			<point x="812" y="270" type="line"/>
			<point x="1172" y="270" type="line"/>
			<point x="1212" y="370" type="line"/>
			<point x="852" y="370" type="line"/>
		</contour>
		<component base="f_f_t"/>
	</outline>
</glyph>
<glyph name="f_idotless" format="2">
	<advance width="800"/>
	<anchor x="725" y="10" name="ogonek"/>
	<anchor x="635" y="0" name="bottom"/>
	<anchor x="635" y="590" name="top"/>
	<outline>
		<contour>
			<point x="145" y="0" type="line"/>
			<point x="325" y="0" type="line"/>
			<point x="325" y="637" type="line" smooth="yes"/>
			<point x="325" y="673"/>
			<point x="347" y="695"/>
			<point x="383" y="695" type="curve" smooth="yes"/>
			<point x="404" y="695"/>
			<point x="427" y="693"/>
			<point x="445" y="689" type="curve"/>
			<point x="445" y="820" type="line"/>
			<point x="415" y="827"/>
			<point x="375" y="831"/>
			<point x="337" y="831" type="curve" smooth="yes"/>
			<point x="216" y="831"/>
			<point x="145" y="759"/>
			<point x="145" y="637" type="curve" smooth="yes"/>
		</contour>
		<contour>
			<point x="45" y="460" type="line"/>
			<point x="545" y="460" type="line"/>
			<point x="545" y="0" type="line"/>
			<point x="725" y="0" type="line"/>
			<point x="725" y="590" type="line"/>
			<point x="45" y="590" type="line"/>
		</contour>
	</outline>
</glyph>
<glyph name="f_t" format="2">
	<advance width="915"/>
	<anchor x="635" y="295" name="center"/>
	<anchor x="635" y="590" name="top"/>
	<anchor x="775" y="820" name="topright"/>
	<anchor x="725" y="0" name="bottom"/>
	<outline>
		<contour>
			<point x="145" y="0" type="line"/>
			<point x="325" y="0" type="line"/>
			<point x="325" y="637" type="line" smooth="yes"/>
			<point x="325" y="673"/>
			<point x="347" y="695"/>
			<point x="383" y="695" type="curve" smooth="yes"/>
			<point x="404" y="695"/>
			<point x="427" y="693"/>
			<point x="445" y="689" type="curve"/>
			<point x="445" y="820" type="line"/>
			<point x="415" y="827"/>
			<point x="375" y="831"/>
			<point x="337" y="831" type="curve" smooth="yes"/>
			<point x="216" y="831"/>
			<point x="145" y="759"/>
			<point x="145" y="637" type="curve" smooth="yes"/>
		</contour>
		<contour>
			<point x="545" y="183" type="line" smooth="yes"/>
			<point x="545" y="61"/>
			<point x="618" y="-11"/>
			<point x="742" y="-11" type="curve" smooth="yes"/>
			<point x="777" y="-11"/>
			<point x="815" y="-7"/>
			<point x="845" y="0" type="curve"/>
			<point x="845" y="131" type="line"/>
			<point x="828" y="127"/>
			<point x="806" y="125"/>
			<point x="787" y="125" type="curve" smooth="yes"/>
			<point x="748" y="125"/>
			<point x="725" y="147"/>
			<point x="725" y="183" type="curve" smooth="yes"/>
			<point x="725" y="770" type="line"/>
			<point x="655" y="770" type="line"/>
			<point x="545" y="674" type="line"/>
		</contour>
		<contour>
			<point x="45" y="590" type="line"/>
			<point x="45" y="460" type="line"/>
			<point x="845" y="460" type="line"/>
			<point x="845" y="590" type="line"/>
		</contour>
	</outline>
</glyph>
<glyph name="f_tbar" format="2">
	<advance width="915"/>
	<outline>
		<contour>
			<point x="432" y="270" type="line"/>
			<point x="792" y="270" type="line"/>
			<point x="832" y="370" type="line"/>
			<point x="472" y="370" type="line"/>
		</contour>
		<component base="f_t"/>
	</outline>
</glyph>
<glyph name="g.sc" format="2">
	<advance width="709"/>
	<anchor x="344" y="620" name="top"/>
	<anchor x="354" y="0" name="bottom"/>
	<outline>
		<contour>
			<point x="653" y="341" type="line"/>
			<point x="352" y="341" type="line"/>
			<point x="352" y="231" type="line"/>
			<point x="463" y="231" type="line"/>
			<point x="463" y="227" type="line" smooth="yes"/>
			<point x="463" y="172"/>
			<point x="424" y="139"/>
			<point x="357" y="139" type="curve" smooth="yes"/>
			<point x="277" y="139"/>
			<point x="230" y="197"/>
			<point x="230" y="296" type="curve" smooth="yes"/>
			<point x="230" y="319" type="line" smooth="yes"/>
			<point x="230" y="421"/>
			<point x="276" y="481"/>
			<point x="353" y="481" type="curve" smooth="yes"/>
			<point x="408" y="481"/>
			<point x="444" y="455"/>
			<point x="451" y="411" type="curve" smooth="yes"/>
			<point x="453" y="399" type="line"/>
			<point x="645" y="408" type="line"/>
			<point x="643" y="420" type="line" smooth="yes"/>
			<point x="621" y="556"/>
			<point x="514" y="636"/>
			<point x="354" y="636" type="curve" smooth="yes"/>
			<point x="157" y="636"/>
			<point x="40" y="518"/>
			<point x="40" y="319" type="curve" smooth="yes"/>
			<point x="40" y="304" type="line" smooth="yes"/>
			<point x="40" y="103"/>
			<point x="157" y="-16"/>
			<point x="356" y="-16" type="curve" smooth="yes"/>
			<point x="543" y="-16"/>
			<point x="653" y="92"/>
			<point x="653" y="275" type="curve" smooth="yes"/>
		</contour>
	</outline>
</glyph>
<glyph name="g.ss02" format="2">
	<advance width="647"/>
	<anchor x="298" y="590" name="top"/>
	<anchor x="315" y="-180" name="bottom"/>
	<outline>
		<contour>
			<point x="70" y="409" type="line" smooth="yes"/>
			<point x="70" y="290"/>
			<point x="153" y="220"/>
			<point x="293" y="220" type="curve" smooth="yes"/>
			<point x="433" y="220"/>
			<point x="516" y="291"/>
			<point x="516" y="412" type="curve" smooth="yes"/>
			<point x="516" y="417" type="line" smooth="yes"/>
			<point x="516" y="536"/>
			<point x="434" y="606"/>
			<point x="294" y="606" type="curve" smooth="yes"/>
			<point x="153" y="606"/>
			<point x="70" y="535"/>
			<point x="70" y="414" type="curve" smooth="yes"/>
		</contour>
		<contour>
			<point x="227" y="412" type="curve" smooth="yes"/>
			<point x="227" y="417" type="line" smooth="yes"/>
			<point x="227" y="467"/>
			<point x="252" y="496"/>
			<point x="293" y="496" type="curve" smooth="yes"/>
			<point x="334" y="496"/>
			<point x="359" y="466"/>
			<point x="359" y="414" type="curve" smooth="yes"/>
			<point x="359" y="409" type="line" smooth="yes"/>
			<point x="359" y="359"/>
			<point x="335" y="330"/>
			<point x="294" y="330" type="curve" smooth="yes"/>
			<point x="252" y="330"/>
			<point x="227" y="360"/>
		</contour>
		<contour>
			<point x="202" y="267" type="line"/>
			<point x="145" y="253"/>
			<point x="112" y="217"/>
			<point x="112" y="169" type="curve" smooth="yes"/>
			<point x="112" y="102"/>
			<point x="170" y="57"/>
			<point x="267" y="47" type="curve" smooth="yes"/>
			<point x="344" y="39" type="line" smooth="yes"/>
			<point x="382" y="35"/>
			<point x="405" y="16"/>
			<point x="405" y="-12" type="curve" smooth="yes"/>
			<point x="405" y="-52"/>
			<point x="372" y="-76"/>
			<point x="315" y="-76" type="curve" smooth="yes"/>
			<point x="257" y="-76"/>
			<point x="222" y="-49"/>
			<point x="222" y="-2" type="curve" smooth="yes"/>
			<point x="222" y="32"/>
			<point x="238" y="59"/>
			<point x="265" y="71" type="curve"/>
			<point x="182" y="135" type="line"/>
			<point x="93" y="110"/>
			<point x="40" y="52"/>
			<point x="40" y="-22" type="curve" smooth="yes"/>
			<point x="40" y="-131"/>
			<point x="142" y="-196"/>
			<point x="315" y="-196" type="curve" smooth="yes"/>
			<point x="486" y="-196"/>
			<point x="587" y="-125"/>
			<point x="587" y="-4" type="curve" smooth="yes"/>
			<point x="587" y="90"/>
			<point x="500" y="154"/>
			<point x="352" y="169" type="curve" smooth="yes"/>
			<point x="275" y="177" type="line" smooth="yes"/>
			<point x="254" y="179"/>
			<point x="242" y="191"/>
			<point x="242" y="209" type="curve" smooth="yes"/>
			<point x="242" y="222"/>
			<point x="255" y="235"/>
			<point x="277" y="243" type="curve"/>
		</contour>
		<contour>
			<point x="455" y="535" type="curve"/>
			<point x="503" y="490" type="line"/>
			<point x="525" y="509"/>
			<point x="556" y="520"/>
			<point x="587" y="520" type="curve"/>
			<point x="587" y="620" type="line"/>
			<point x="519" y="620"/>
			<point x="470" y="588"/>
		</contour>
	</outline>
</glyph>
<glyph name="h.sc" format="2">
	<advance width="720"/>
	<outline>
		<contour>
			<point x="65" y="0" type="line"/>
			<point x="250" y="0" type="line"/>
			<point x="250" y="250" type="line"/>
			<point x="460" y="250" type="line"/>
			<point x="460" y="0" type="line"/>
			<point x="645" y="0" type="line"/>
			<point x="645" y="620" type="line"/>
			<point x="460" y="620" type="line"/>
			<point x="460" y="405" type="line"/>
			<point x="250" y="405" type="line"/>
			<point x="250" y="620" type="line"/>
			<point x="65" y="620" type="line"/>
		</contour>
	</outline>
</glyph>
<glyph name="hbar.sc" format="2">
	<advance width="802"/>
	<outline>
		<contour>
			<point x="61" y="560" type="line"/>
			<point x="21" y="450" type="line"/>
			<point x="741" y="450" type="line"/>
			<point x="781" y="560" type="line"/>
		</contour>
		<component base="h.sc" xOffset="41"/>
	</outline>
</glyph>
<glyph name="i.sc" format="2">
	<advance width="335"/>
	<anchor x="260" y="10" name="ogonek"/>
	<anchor x="162" y="620" name="top"/>
	<anchor x="35" y="620" name="topleft"/>
	<anchor x="162" y="0" name="bottom"/>
	<outline>
		<contour>
			<point x="260" y="620" type="line"/>
			<point x="65" y="620" type="line"/>
			<point x="65" y="0" type="line"/>
			<point x="260" y="0" type="line"/>
		</contour>
	</outline>
</glyph>
<glyph name="j.sc" format="2">
	<advance width="677"/>
	<outline>
		<contour>
			<point x="237" y="270" type="line"/>
			<point x="52" y="270" type="line"/>
			<point x="52" y="234" type="line" smooth="yes"/>
			<point x="52" y="77"/>
			<point x="154" y="-16"/>
			<point x="327" y="-16" type="curve" smooth="yes"/>
			<point x="500" y="-16"/>
			<point x="602" y="76"/>
			<point x="602" y="232" type="curve" smooth="yes"/>
			<point x="602" y="620" type="line"/>
			<point x="417" y="620" type="line"/>
			<point x="417" y="232" type="line" smooth="yes"/>
			<point x="417" y="174"/>
			<point x="384" y="139"/>
			<point x="327" y="139" type="curve" smooth="yes"/>
			<point x="270" y="139"/>
			<point x="237" y="171"/>
			<point x="237" y="226" type="curve" smooth="yes"/>
		</contour>
	</outline>
</glyph>
<glyph name="j.sc.ss03" format="2">
	<advance width="542"/>
	<outline>
		<contour>
			<point x="467" y="253" type="curve" smooth="yes"/>
			<point x="467" y="620" type="line"/>
			<point x="282" y="620" type="line"/>
			<point x="282" y="262" type="line" smooth="yes"/>
			<point x="282" y="188"/>
			<point x="236" y="139"/>
			<point x="149" y="139" type="curve" smooth="yes"/>
			<point x="116" y="139"/>
			<point x="80" y="147"/>
			<point x="52" y="160" type="curve"/>
			<point x="52" y="10" type="line"/>
			<point x="87" y="-6"/>
			<point x="138" y="-16"/>
			<point x="190" y="-16" type="curve" smooth="yes"/>
			<point x="367" y="-16"/>
			<point x="467" y="93"/>
		</contour>
	</outline>
</glyph>
<glyph name="k.sc" format="2">
	<advance width="769"/>
	<anchor x="343" y="620" name="top"/>
	<anchor x="343" y="0" name="bottom"/>
	<outline>
		<contour>
			<point x="65" y="0" type="line"/>
			<point x="250" y="0" type="line"/>
			<point x="250" y="159" type="line"/>
			<point x="352" y="290" type="line"/>
			<point x="356" y="290" type="line"/>
			<point x="503" y="0" type="line"/>
			<point x="709" y="0" type="line"/>
			<point x="492" y="391" type="line"/>
			<point x="679" y="620" type="line"/>
			<point x="463" y="620" type="line"/>
			<point x="279" y="388" type="line"/>
			<point x="247" y="338" type="line"/>
			<point x="243" y="338" type="line"/>
			<point x="250" y="390" type="line"/>
			<point x="250" y="620" type="line"/>
			<point x="65" y="620" type="line"/>
		</contour>
	</outline>
</glyph>
<glyph name="k.sc.ss04" format="2">
	<advance width="720"/>
	<anchor x="329" y="620" name="top"/>
	<anchor x="329" y="0" name="bottom"/>
	<outline>
		<contour>
			<point x="65" y="0" type="line"/>
			<point x="250" y="0" type="line"/>
			<point x="250" y="253" type="line"/>
			<point x="246" y="285" type="line"/>
			<point x="250" y="285" type="line"/>
			<point x="263" y="253" type="line"/>
			<point x="436" y="0" type="line"/>
			<point x="660" y="0" type="line"/>
			<point x="413" y="327" type="line"/>
			<point x="649" y="620" type="line"/>
			<point x="432" y="620" type="line"/>
			<point x="263" y="384" type="line"/>
			<point x="250" y="354" type="line"/>
			<point x="246" y="354" type="line"/>
			<point x="250" y="384" type="line"/>
			<point x="250" y="620" type="line"/>
			<point x="65" y="620" type="line"/>
		</contour>
	</outline>
</glyph>
<glyph name="k.ss04" format="2">
	<advance width="656"/>
	<anchor x="228" y="820" name="top"/>
	<anchor x="228" y="0" name="bottom"/>
	<outline>
		<contour>
			<point x="65" y="0" type="line"/>
			<point x="245" y="0" type="line"/>
			<point x="245" y="270" type="line"/>
			<point x="241" y="308" type="line"/>
			<point x="245" y="308" type="line"/>
			<point x="255" y="270" type="line"/>
			<point x="385" y="0" type="line"/>
			<point x="596" y="0" type="line"/>
			<point x="406" y="346" type="line"/>
			<point x="553" y="590" type="line"/>
			<point x="349" y="590" type="line"/>
			<point x="255" y="385" type="line"/>
			<point x="245" y="347" type="line"/>
			<point x="241" y="347" type="line"/>
			<point x="245" y="385" type="line"/>
			<point x="245" y="820" type="line"/>
			<point x="65" y="820" type="line"/>
		</contour>
	</outline>
</glyph>
<glyph name="lslash.sc" format="2">
	<advance width="672"/>
	<outline>
		<contour>
			<point x="50" y="186" type="line"/>
			<point x="430" y="323" type="line"/>
			<point x="430" y="430" type="line"/>
			<point x="50" y="293" type="line"/>
		</contour>
		<component base="l.sc" xOffset="61"/>
	</outline>
</glyph>
<glyph name="m.sc" format="2">
	<advance width="992"/>
	<outline>
		<contour>
			<point x="917" y="0" type="line"/>
			<point x="917" y="620" type="line"/>
			<point x="639" y="620" type="line"/>
			<point x="496" y="273" type="line"/>
			<point x="486" y="215" type="line"/>
			<point x="482" y="215" type="line"/>
			<point x="472" y="273" type="line"/>
			<point x="325" y="620" type="line"/>
			<point x="65" y="620" type="line"/>
			<point x="65" y="0" type="line"/>
			<point x="225" y="0" type="line"/>
			<point x="225" y="396" type="line"/>
			<point x="221" y="456" type="line"/>
			<point x="225" y="456" type="line"/>
			<point x="238" y="396" type="line"/>
			<point x="410" y="0" type="line"/>
			<point x="554" y="0" type="line"/>
			<point x="719" y="396" type="line"/>
			<point x="732" y="456" type="line"/>
			<point x="736" y="456" type="line"/>
			<point x="732" y="396" type="line"/>
			<point x="732" y="0" type="line"/>
		</contour>
	</outline>
</glyph>
<glyph name="n.sc" format="2">
	<advance width="782"/>
	<anchor x="451" y="620" name="top"/>
	<anchor x="451" y="0" name="bottom"/>
	<outline>
		<contour>
			<point x="65" y="620" type="line"/>
			<point x="65" y="0" type="line"/>
			<point x="235" y="0" type="line"/>
			<point x="235" y="369" type="line"/>
			<point x="229" y="430" type="line"/>
			<point x="233" y="430" type="line"/>
			<point x="248" y="369" type="line"/>
			<point x="486" y="0" type="line"/>
			<point x="707" y="0" type="line"/>
			<point x="707" y="620" type="line"/>
			<point x="537" y="620" type="line"/>
			<point x="537" y="251" type="line"/>
			<point x="543" y="190" type="line"/>
			<point x="538" y="190" type="line"/>
			<point x="524" y="251" type="line"/>
			<point x="286" y="620" type="line"/>
		</contour>
	</outline>
</glyph>
<glyph name="o.sc" format="2">
	<advance width="726"/>
	<anchor x="354" y="310" name="center"/>
	<anchor x="483" y="10" name="ogonek"/>
	<anchor x="354" y="620" name="top"/>
	<anchor x="705" y="620" name="topright"/>
	<anchor x="20" y="620" name="topleft"/>
	<anchor x="354" y="0" name="bottom"/>
	<outline>
		<contour>
			<point x="40" y="304" type="line" smooth="yes"/>
			<point x="40" y="103"/>
			<point x="157" y="-16"/>
			<point x="356" y="-16" type="curve" smooth="yes"/>
			<point x="553" y="-16"/>
			<point x="670" y="102"/>
			<point x="670" y="302" type="curve" smooth="yes"/>
			<point x="670" y="317" type="line" smooth="yes"/>
			<point x="670" y="518"/>
			<point x="553" y="636"/>
			<point x="354" y="636" type="curve" smooth="yes"/>
			<point x="157" y="636"/>
			<point x="40" y="518"/>
			<point x="40" y="319" type="curve" smooth="yes"/>
		</contour>
		<contour>
			<point x="230" y="296" type="curve" smooth="yes"/>
			<point x="230" y="319" type="line" smooth="yes"/>
			<point x="230" y="421"/>
			<point x="276" y="481"/>
			<point x="353" y="481" type="curve" smooth="yes"/>
			<point x="433" y="481"/>
			<point x="480" y="423"/>
			<point x="480" y="325" type="curve" smooth="yes"/>
			<point x="480" y="302" type="line" smooth="yes"/>
			<point x="480" y="200"/>
			<point x="434" y="139"/>
			<point x="357" y="139" type="curve" smooth="yes"/>
			<point x="277" y="139"/>
			<point x="230" y="197"/>
		</contour>
	</outline>
</glyph>
<glyph name="oe.sc" format="2">
	<advance width="1061"/>
	<outline>
		<contour>
			<point x="66" y="304" type="line" smooth="yes"/>
			<point x="66" y="103"/>
			<point x="172" y="-16"/>
			<point x="352" y="-16" type="curve" smooth="yes"/>
			<point x="415" y="-16"/>
			<point x="473" y="9"/>
			<point x="507" y="50" type="curve"/>
			<point x="511" y="50" type="line"/>
			<point x="511" y="0" type="line"/>
			<point x="996" y="0" type="line"/>
			<point x="996" y="155" type="line"/>
			<point x="696" y="155" type="line"/>
			<point x="696" y="250" type="line"/>
			<point x="946" y="250" type="line"/>
			<point x="946" y="385" type="line"/>
			<point x="696" y="385" type="line"/>
			<point x="696" y="465" type="line"/>
			<point x="976" y="465" type="line"/>
			<point x="976" y="620" type="line"/>
			<point x="511" y="620" type="line"/>
			<point x="511" y="570" type="line"/>
			<point x="507" y="570" type="line"/>
			<point x="473" y="611"/>
			<point x="414" y="636"/>
			<point x="350" y="636" type="curve" smooth="yes"/>
			<point x="171" y="636"/>
			<point x="66" y="518"/>
			<point x="66" y="319" type="curve" smooth="yes"/>
		</contour>
		<contour>
			<point x="256" y="296" type="curve" smooth="yes"/>
			<point x="256" y="319" type="line" smooth="yes"/>
			<point x="256" y="421"/>
			<point x="302" y="481"/>
			<point x="379" y="481" type="curve" smooth="yes"/>
			<point x="459" y="481"/>
			<point x="506" y="423"/>
			<point x="506" y="325" type="curve" smooth="yes"/>
			<point x="506" y="302" type="line" smooth="yes"/>
			<point x="506" y="200"/>
			<point x="460" y="139"/>
			<point x="383" y="139" type="curve" smooth="yes"/>
			<point x="303" y="139"/>
			<point x="256" y="197"/>
		</contour>
	</outline>
</glyph>
<glyph name="one.ss07" format="2">
	<advance width="377"/>
	<outline>
		<contour>
			<point x="176" y="780" type="line"/>
			<point x="176" y="723"/>
			<point x="146" y="669"/>
			<point x="96" y="635" type="curve"/>
			<point x="96" y="0" type="line"/>
			<point x="281" y="0" type="line"/>
			<point x="281" y="780" type="line"/>
		</contour>
	</outline>
</glyph>
<glyph name="oslash.sc" format="2">
	<advance width="728"/>
	<outline>
		<contour>
			<point x="759" y="489" type="line"/>
			<point x="759" y="620" type="line"/>
			<point x="10" y="131" type="line"/>
			<point x="10" y="0" type="line"/>
		</contour>
		<component base="o.sc" xOffset="19"/>
	</outline>
</glyph>
<glyph name="p.sc" format="2">
	<advance width="647"/>
	<outline>
		<contour>
			<point x="65" y="0" type="line"/>
			<point x="250" y="0" type="line"/>
			<point x="250" y="185" type="line"/>
			<point x="346" y="185" type="line" smooth="yes"/>
			<point x="505" y="185"/>
			<point x="599" y="264"/>
			<point x="599" y="397" type="curve" smooth="yes"/>
			<point x="599" y="402" type="line" smooth="yes"/>
			<point x="599" y="539"/>
			<point x="505" y="620"/>
			<point x="346" y="620" type="curve" smooth="yes"/>
			<point x="65" y="620" type="line"/>
		</contour>
		<contour>
			<point x="250" y="340" type="line"/>
			<point x="250" y="465" type="line"/>
			<point x="346" y="465" type="line" smooth="yes"/>
			<point x="386" y="465"/>
			<point x="409" y="441"/>
			<point x="409" y="401" type="curve" smooth="yes"/>
			<point x="409" y="397" type="line" smooth="yes"/>
			<point x="409" y="361"/>
			<point x="386" y="340"/>
			<point x="346" y="340" type="curve" smooth="yes"/>
		</contour>
	</outline>
</glyph>
<glyph name="q.sc" format="2">
	<advance width="726"/>
	<outline>
		<contour>
			<point x="40" y="304" type="line" smooth="yes"/>
			<point x="40" y="103"/>
			<point x="157" y="-16"/>
			<point x="356" y="-16" type="curve" smooth="yes"/>
			<point x="553" y="-16"/>
			<point x="670" y="102"/>
			<point x="670" y="302" type="curve" smooth="yes"/>
			<point x="670" y="317" type="line" smooth="yes"/>
			<point x="670" y="518"/>
			<point x="553" y="636"/>
			<point x="354" y="636" type="curve" smooth="yes"/>
			<point x="157" y="636"/>
			<point x="40" y="518"/>
			<point x="40" y="319" type="curve" smooth="yes"/>
		</contour>
		<contour>
			<point x="230" y="296" type="curve" smooth="yes"/>
			<point x="230" y="319" type="line" smooth="yes"/>
			<point x="230" y="421"/>
			<point x="276" y="481"/>
			<point x="353" y="481" type="curve" smooth="yes"/>
			<point x="433" y="481"/>
			<point x="480" y="423"/>
			<point x="480" y="325" type="curve" smooth="yes"/>
			<point x="480" y="302" type="line" smooth="yes"/>
			<point x="480" y="200"/>
			<point x="434" y="139"/>
			<point x="357" y="139" type="curve" smooth="yes"/>
			<point x="277" y="139"/>
			<point x="230" y="197"/>
		</contour>
		<contour>
			<point x="422" y="40" type="line"/>
			<point x="422" y="10" type="line" smooth="yes"/>
			<point x="422" y="-109"/>
			<point x="486" y="-180"/>
			<point x="594" y="-180" type="curve" smooth="yes"/>
			<point x="615" y="-180"/>
			<point x="637" y="-178"/>
			<point x="654" y="-175" type="curve"/>
			<point x="654" y="-23" type="line"/>
			<point x="642" y="-27"/>
			<point x="624" y="-30"/>
			<point x="605" y="-30" type="curve" smooth="yes"/>
			<point x="556" y="-30"/>
			<point x="527" y="-6"/>
			<point x="527" y="35" type="curve" smooth="yes"/>
			<point x="527" y="40" type="line"/>
		</contour>
	</outline>
</glyph>
<glyph name="r.sc" format="2">
	<advance width="674"/>
	<anchor x="315" y="620" name="top"/>
	<anchor x="315" y="0" name="bottom"/>
	<outline>
		<contour>
			<point x="65" y="0" type="line"/>
			<point x="250" y="0" type="line"/>
			<point x="250" y="185" type="line"/>
			<point x="360" y="185" type="line"/>
			<point x="431" y="0" type="line"/>
			<point x="633" y="0" type="line"/>
			<point x="551" y="187" type="line" smooth="yes"/>
			<point x="542" y="207"/>
			<point x="525" y="226"/>
			<point x="504" y="236" type="curve"/>
			<point x="504" y="240" type="line"/>
			<point x="564" y="264"/>
			<point x="599" y="322"/>
			<point x="599" y="397" type="curve" smooth="yes"/>
			<point x="599" y="402" type="line" smooth="yes"/>
			<point x="599" y="539"/>
			<point x="505" y="620"/>
			<point x="346" y="620" type="curve" smooth="yes"/>
			<point x="65" y="620" type="line"/>
		</contour>
		<contour>
			<point x="250" y="340" type="line"/>
			<point x="250" y="465" type="line"/>
			<point x="346" y="465" type="line" smooth="yes"/>
			<point x="386" y="465"/>
			<point x="409" y="441"/>
			<point x="409" y="401" type="curve" smooth="yes"/>
			<point x="409" y="397" type="line" smooth="yes"/>
			<point x="409" y="361"/>
			<point x="386" y="340"/>
			<point x="346" y="340" type="curve" smooth="yes"/>
		</contour>
	</outline>
</glyph>
<glyph name="r.sc.ss05" format="2">
	<advance width="734"/>
	<anchor x="365" y="620" name="top"/>
	<anchor x="365" y="0" name="bottom"/>
	<outline>
		<contour>
			<point x="96" y="0" type="line"/>
			<point x="281" y="0" type="line"/>
			<point x="281" y="185" type="line"/>
			<point x="390" y="185" type="line" smooth="yes"/>
			<point x="425" y="185"/>
			<point x="445" y="163"/>
			<point x="445" y="125" type="curve"/>
			<point x="445" y="80" type="line"/>
			<point x="445" y="42"/>
			<point x="451" y="13"/>
			<point x="462" y="0" type="curve"/>
			<point x="646" y="0" type="line"/>
			<point x="648" y="4" type="line"/>
			<point x="637" y="28"/>
			<point x="630" y="59"/>
			<point x="630" y="89" type="curve"/>
			<point x="630" y="125" type="line"/>
			<point x="630" y="207"/>
			<point x="594" y="262"/>
			<point x="533" y="274" type="curve"/>
			<point x="533" y="278" type="line"/>
			<point x="594" y="296"/>
			<point x="630" y="349"/>
			<point x="630" y="420" type="curve" smooth="yes"/>
			<point x="630" y="427" type="line" smooth="yes"/>
			<point x="630" y="548"/>
			<point x="547" y="620"/>
			<point x="407" y="620" type="curve" smooth="yes"/>
			<point x="96" y="620" type="line"/>
		</contour>
		<contour>
			<point x="281" y="340" type="line"/>
			<point x="281" y="465" type="line"/>
			<point x="377" y="465" type="line" smooth="yes"/>
			<point x="417" y="465"/>
			<point x="440" y="443"/>
			<point x="440" y="405" type="curve" smooth="yes"/>
			<point x="440" y="400" type="line" smooth="yes"/>
			<point x="440" y="362"/>
			<point x="418" y="340"/>
			<point x="380" y="340" type="curve" smooth="yes"/>
		</contour>
	</outline>
</glyph>
<glyph name="registered.ss10" format="2">
	<advance width="932"/>
	<outline>
		<contour>
			<point x="466" y="800" type="curve" smooth="yes"/>
			<point x="245" y="800"/>
			<point x="66" y="621"/>
			<point x="66" y="400" type="curve" smooth="yes"/>
			<point x="66" y="179"/>
			<point x="245" y="0"/>
			<point x="466" y="0" type="curve" smooth="yes"/>
			<point x="689" y="0"/>
			<point x="866" y="179"/>
			<point x="866" y="400" type="curve" smooth="yes"/>
			<point x="866" y="621"/>
			<point x="687" y="800"/>
		</contour>
		<contour>
			<point x="466" y="710" type="curve" smooth="yes"/>
			<point x="638" y="710"/>
			<point x="776" y="572"/>
			<point x="776" y="400" type="curve" smooth="yes"/>
			<point x="776" y="228"/>
			<point x="638" y="90"/>
			<point x="466" y="90" type="curve" smooth="yes"/>
			<point x="294" y="90"/>
			<point x="156" y="228"/>
			<point x="156" y="400" type="curve" smooth="yes"/>
			<point x="156" y="572"/>
			<point x="294" y="710"/>
		</contour>
		<contour>
			<point x="310" y="211" type="line"/>
			<point x="423" y="211" type="line"/>
			<point x="423" y="324" type="line"/>
			<point x="490" y="324" type="line"/>
			<point x="534" y="211" type="line"/>
			<point x="658" y="211" type="line"/>
			<point x="608" y="326" type="line" smooth="yes"/>
			<point x="603" y="338"/>
			<point x="592" y="349"/>
			<point x="579" y="356" type="curve"/>
			<point x="579" y="360" type="line"/>
			<point x="615" y="375"/>
			<point x="637" y="409"/>
			<point x="637" y="453" type="curve" smooth="yes"/>
			<point x="637" y="457" type="line" smooth="yes"/>
			<point x="637" y="541"/>
			<point x="579" y="590"/>
			<point x="482" y="590" type="curve" smooth="yes"/>
			<point x="310" y="590" type="line"/>
		</contour>
		<contour>
			<point x="423" y="419" type="line"/>
			<point x="423" y="496" type="line"/>
			<point x="482" y="496" type="line" smooth="yes"/>
			<point x="506" y="496"/>
			<point x="520" y="481"/>
			<point x="520" y="456" type="curve" smooth="yes"/>
			<point x="520" y="453" type="line" smooth="yes"/>
			<point x="520" y="432"/>
			<point x="506" y="419"/>
			<point x="482" y="419" type="curve" smooth="yes"/>
		</contour>
	</outline>
</glyph>
<glyph name="s.sc" format="2">
	<advance width="645"/>
	<anchor x="323" y="620" name="top"/>
	<anchor x="323" y="0" name="bottom"/>
	<outline>
		<contour>
			<point x="50" y="197" type="line"/>
			<point x="52" y="180" type="line" smooth="yes"/>
			<point x="66" y="57"/>
			<point x="164" y="-16"/>
			<point x="316" y="-16" type="curve" smooth="yes"/>
			<point x="485" y="-16"/>
			<point x="585" y="56"/>
			<point x="585" y="177" type="curve" smooth="yes"/>
			<point x="585" y="226"/>
			<point x="569" y="274"/>
			<point x="541" y="308" type="curve" smooth="yes"/>
			<point x="514" y="341"/>
			<point x="458" y="368"/>
			<point x="371" y="388" type="curve" smooth="yes"/>
			<point x="305" y="403" type="line" smooth="yes"/>
			<point x="286" y="407"/>
			<point x="270" y="414"/>
			<point x="262" y="422" type="curve" smooth="yes"/>
			<point x="253" y="431"/>
			<point x="247" y="443"/>
			<point x="247" y="453" type="curve" smooth="yes"/>
			<point x="247" y="457" type="line" smooth="yes"/>
			<point x="247" y="485"/>
			<point x="275" y="501"/>
			<point x="313" y="501" type="curve" smooth="yes"/>
			<point x="349" y="501"/>
			<point x="380" y="485"/>
			<point x="384" y="459" type="curve" smooth="yes"/>
			<point x="387" y="441" type="line"/>
			<point x="559" y="455" type="line"/>
			<point x="557" y="473" type="line" smooth="yes"/>
			<point x="546" y="575"/>
			<point x="456" y="636"/>
			<point x="316" y="636" type="curve" smooth="yes"/>
			<point x="159" y="636"/>
			<point x="67" y="569"/>
			<point x="67" y="455" type="curve" smooth="yes"/>
			<point x="67" y="407"/>
			<point x="84" y="361"/>
			<point x="112" y="331" type="curve" smooth="yes"/>
			<point x="143" y="298"/>
			<point x="195" y="273"/>
			<point x="272" y="256" type="curve" smooth="yes"/>
			<point x="336" y="242" type="line" smooth="yes"/>
			<point x="357" y="237"/>
			<point x="374" y="228"/>
			<point x="382" y="218" type="curve" smooth="yes"/>
			<point x="390" y="208"/>
			<point x="395" y="195"/>
			<point x="395" y="183" type="curve" smooth="yes"/>
			<point x="395" y="176" type="line" smooth="yes"/>
			<point x="395" y="140"/>
			<point x="366" y="119"/>
			<point x="317" y="119" type="curve" smooth="yes"/>
			<point x="265" y="119"/>
			<point x="231" y="146"/>
			<point x="225" y="193" type="curve" smooth="yes"/>
			<point x="223" y="210" type="line"/>
		</contour>
	</outline>
</glyph>
<glyph name="seven.ss09" format="2">
	<advance width="613"/>
	<outline>
		<contour>
			<point x="52" y="625" type="line"/>
			<point x="376" y="625" type="line"/>
			<point x="160" y="0" type="line"/>
			<point x="356" y="0" type="line"/>
			<point x="572" y="625" type="line"/>
			<point x="572" y="780" type="line"/>
			<point x="52" y="780" type="line"/>
		</contour>
	</outline>
</glyph>
<glyph name="tbar.sc" format="2">
	<advance width="685"/>
	<outline>
		<contour>
			<point x="117" y="375" type="line"/>
			<point x="77" y="265" type="line"/>
			<point x="567" y="265" type="line"/>
			<point x="607" y="375" type="line"/>
		</contour>
		<component base="t.sc"/>
	</outline>
</glyph>
<glyph name="thorn.sc" format="2">
	<advance width="678"/>
	<outline>
		<contour>
			<point x="96" y="0" type="line"/>
			<point x="281" y="0" type="line"/>
			<point x="281" y="105" type="line"/>
			<point x="377" y="105" type="line" smooth="yes"/>
			<point x="536" y="105"/>
			<point x="630" y="184"/>
			<point x="630" y="317" type="curve" smooth="yes"/>
			<point x="630" y="322" type="line" smooth="yes"/>
			<point x="630" y="459"/>
			<point x="536" y="540"/>
			<point x="377" y="540" type="curve" smooth="yes"/>
			<point x="281" y="540" type="line"/>
			<point x="281" y="620" type="line"/>
			<point x="96" y="620" type="line"/>
		</contour>
		<contour>
			<point x="281" y="260" type="line"/>
			<point x="281" y="385" type="line"/>
			<point x="377" y="385" type="line" smooth="yes"/>
			<point x="417" y="385"/>
			<point x="440" y="361"/>
			<point x="440" y="321" type="curve" smooth="yes"/>
			<point x="440" y="317" type="line" smooth="yes"/>
			<point x="440" y="281"/>
			<point x="417" y="260"/>
			<point x="377" y="260" type="curve" smooth="yes"/>
		</contour>
	</outline>
</glyph>
<glyph name="two.ss08" format="2">
	<advance width="699"/>
	<outline>
		<contour>
			<point x="80" y="552" type="line"/>
			<point x="261" y="548" type="line"/>
			<point x="262" y="560" type="line" smooth="yes"/>
			<point x="267" y="611"/>
			<point x="299" y="641"/>
			<point x="347" y="641" type="curve" smooth="yes"/>
			<point x="403" y="641"/>
			<point x="436" y="612"/>
			<point x="436" y="564" type="curve" smooth="yes"/>
			<point x="436" y="525"/>
			<point x="414" y="485"/>
			<point x="379" y="453" type="curve" smooth="yes"/>
			<point x="66" y="170" type="line"/>
			<point x="66" y="0" type="line"/>
			<point x="641" y="0" type="line"/>
			<point x="641" y="155" type="line"/>
			<point x="292" y="155" type="line"/>
			<point x="538" y="370" type="line" smooth="yes"/>
			<point x="590" y="415"/>
			<point x="621" y="487"/>
			<point x="621" y="564" type="curve" smooth="yes"/>
			<point x="621" y="710"/>
			<point x="519" y="796"/>
			<point x="347" y="796" type="curve" smooth="yes"/>
			<point x="192" y="796"/>
			<point x="93" y="710"/>
			<point x="81" y="564" type="curve" smooth="yes"/>
		</contour>
	</outline>
</glyph>
<glyph name="u.sc" format="2">
	<advance width="782"/>
	<anchor x="499" y="10" name="ogonek"/>
	<anchor x="391" y="620" name="top"/>
	<anchor x="721" y="620" name="topright"/>
	<anchor x="391" y="0" name="bottom"/>
	<outline>
		<contour>
			<point x="686" y="620" type="line"/>
			<point x="501" y="620" type="line"/>
			<point x="501" y="272" type="line" smooth="yes"/>
			<point x="501" y="188"/>
			<point x="460" y="139"/>
			<point x="391" y="139" type="curve" smooth="yes"/>
			<point x="322" y="139"/>
			<point x="281" y="186"/>
			<point x="281" y="266" type="curve" smooth="yes"/>
			<point x="281" y="620" type="line"/>
			<point x="96" y="620" type="line"/>
			<point x="96" y="274" type="line" smooth="yes"/>
			<point x="96" y="92"/>
			<point x="206" y="-16"/>
			<point x="391" y="-16" type="curve" smooth="yes"/>
			<point x="576" y="-16"/>
			<point x="686" y="91"/>
			<point x="686" y="272" type="curve" smooth="yes"/>
		</contour>
	</outline>
</glyph>
<glyph name="v.sc" format="2">
	<advance width="791"/>
	<outline>
		<contour>
			<point x="50" y="620" type="line"/>
			<point x="283" y="0" type="line"/>
			<point x="491" y="0" type="line"/>
			<point x="731" y="620" type="line"/>
			<point x="548" y="620" type="line"/>
			<point x="408" y="233" type="line"/>
			<point x="392" y="170" type="line"/>
			<point x="388" y="170" type="line"/>
			<point x="372" y="233" type="line"/>
			<point x="242" y="620" type="line"/>
		</contour>
	</outline>
</glyph>
<glyph name="w.sc" format="2">
	<advance width="1242"/>
	<anchor x="622" y="620" name="top"/>
	<anchor x="622" y="0" name="bottom"/>
	<outline>
		<contour>
			<point x="50" y="620" type="line"/>
			<point x="260" y="0" type="line"/>
			<point x="479" y="0" type="line"/>
			<point x="606" y="385" type="line"/>
			<point x="625" y="470" type="line"/>
			<point x="629" y="470" type="line"/>
			<point x="647" y="385" type="line"/>
			<point x="757" y="0" type="line"/>
			<point x="986" y="0" type="line"/>
			<point x="1182" y="620" type="line"/>
			<point x="1015" y="620" type="line"/>
			<point x="900" y="243" type="line"/>
			<point x="881" y="160" type="line"/>
			<point x="877" y="160" type="line"/>
			<point x="857" y="243" type="line"/>
			<point x="742" y="620" type="line"/>
			<point x="532" y="620" type="line"/>
			<point x="399" y="243" type="line"/>
			<point x="379" y="160" type="line"/>
			<point x="375" y="160" type="line"/>
			<point x="356" y="243" type="line"/>
			<point x="240" y="620" type="line"/>
		</contour>
	</outline>
</glyph>
<glyph name="x.sc" format="2">
	<advance width="785"/>
	<outline>
		<contour>
			<point x="50" y="0" type="line"/>
			<point x="250" y="0" type="line"/>
			<point x="358" y="185" type="line"/>
			<point x="374" y="242" type="line"/>
			<point x="378" y="242" type="line"/>
			<point x="394" y="185" type="line"/>
			<point x="504" y="0" type="line"/>
			<point x="725" y="0" type="line"/>
			<point x="491" y="337" type="line"/>
			<point x="689" y="620" type="line"/>
			<point x="480" y="620" type="line"/>
			<point x="392" y="463" type="line"/>
			<point x="381" y="406" type="line"/>
			<point x="377" y="406" type="line"/>
			<point x="364" y="463" type="line"/>
			<point x="276" y="620" type="line"/>
			<point x="65" y="620" type="line"/>
			<point x="256" y="320" type="line"/>
		</contour>
	</outline>
</glyph>
<glyph name="y.sc" format="2">
	<advance width="787"/>
	<guideline x="578" y="161" angle="0"/>
	<anchor x="396" y="620" name="top"/>
	<anchor x="396" y="0" name="bottom"/>
	<anchor x="83" y="620" name="topleft"/>
	<outline>
		<contour>
			<point x="50" y="620" type="line"/>
			<point x="299" y="192" type="line"/>
			<point x="299" y="0" type="line"/>
			<point x="484" y="0" type="line"/>
			<point x="484" y="192" type="line"/>
			<point x="727" y="620" type="line"/>
			<point x="528" y="620" type="line"/>
			<point x="433" y="421" type="line"/>
			<point x="397" y="326" type="line"/>
			<point x="393" y="326" type="line"/>
			<point x="357" y="421" type="line"/>
			<point x="262" y="620" type="line"/>
		</contour>
	</outline>
</glyph>
<glyph name="y.ss06" format="2">
	<advance width="691"/>
	<anchor x="349" y="590" name="top"/>
	<anchor x="319" y="0" name="bottom"/>
	<outline>
		<contour>
			<point x="50" y="590" type="line"/>
			<point x="245" y="0" type="line"/>
			<point x="240" y="-20" type="line" smooth="yes"/>
			<point x="234" y="-42"/>
			<point x="209" y="-55"/>
			<point x="172" y="-55" type="curve" smooth="yes"/>
			<point x="151" y="-55"/>
			<point x="128" y="-53"/>
			<point x="110" y="-49" type="curve"/>
			<point x="110" y="-180" type="line"/>
			<point x="140" y="-187"/>
			<point x="180" y="-191"/>
			<point x="218" y="-191" type="curve" smooth="yes"/>
			<point x="339" y="-191"/>
			<point x="414" y="-114"/>
			<point x="450" y="3" type="curve" smooth="yes"/>
			<point x="631" y="590" type="line"/>
			<point x="453" y="590" type="line"/>
			<point x="361" y="179" type="line"/>
			<point x="356" y="100" type="line"/>
			<point x="352" y="100" type="line"/>
			<point x="347" y="179" type="line"/>
			<point x="246" y="590" type="line"/>
		</contour>
	</outline>
</glyph>
<glyph name="z.sc" format="2">
	<advance width="690"/>
	<anchor x="355" y="620" name="top"/>
	<anchor x="355" y="0" name="bottom"/>
	<outline>
		<contour>
			<point x="58" y="0" type="line"/>
			<point x="632" y="0" type="line"/>
			<point x="632" y="155" type="line"/>
			<point x="296" y="155" type="line"/>
			<point x="296" y="159" type="line"/>
			<point x="336" y="187" type="line"/>
			<point x="599" y="480" type="line"/>
			<point x="599" y="620" type="line"/>
			<point x="68" y="620" type="line"/>
			<point x="68" y="465" type="line"/>
			<point x="360" y="465" type="line"/>
			<point x="360" y="461" type="line"/>
			<point x="320" y="433" type="line"/>
			<point x="58" y="142" type="line"/>
		</contour>
	</outline>
</glyph>
